<mxfile host="app.diagrams.net" agent="Mozilla/5.0 (Windows NT 10.0; Win64; x64) AppleWebKit/537.36 (KHTML, like Gecko) Chrome/132.0.0.0 Safari/537.36" version="24.8.3">
  <diagram name="Page-1" id="0Cn_Hn87AQ3leyTSK7iW">
    <mxGraphModel dx="-450" dy="-4386" grid="1" gridSize="10" guides="1" tooltips="1" connect="1" arrows="1" fold="1" page="1" pageScale="1" pageWidth="850" pageHeight="1100" math="0" shadow="0">
      <root>
        <mxCell id="0" />
        <mxCell id="1" parent="0" />
        <mxCell id="rqtoLYsZP0avv1NgUhm5-1" value="Database Services&amp;nbsp;" style="sketch=0;points=[[0,0,0],[0.25,0,0],[0.5,0,0],[0.75,0,0],[1,0,0],[1,0.25,0],[1,0.5,0],[1,0.75,0],[1,1,0],[0.75,1,0],[0.5,1,0],[0.25,1,0],[0,1,0],[0,0.75,0],[0,0.5,0],[0,0.25,0]];rounded=1;absoluteArcSize=1;arcSize=2;html=1;strokeColor=none;gradientColor=none;shadow=0;dashed=0;fontSize=12;fontColor=#9E9E9E;align=left;verticalAlign=top;spacing=10;spacingTop=-4;whiteSpace=wrap;fillColor=#F1F8E9;" vertex="1" parent="1">
          <mxGeometry x="3257" y="6162" width="309" height="205" as="geometry" />
        </mxCell>
        <mxCell id="rqtoLYsZP0avv1NgUhm5-2" value="" style="group" vertex="1" connectable="0" parent="1">
          <mxGeometry x="3286.75" y="6206.000000000001" width="130" height="130" as="geometry" />
        </mxCell>
        <mxCell id="rqtoLYsZP0avv1NgUhm5-3" value="Cloud SQL" style="rounded=0;arcSize=10;dashed=1;fillColor=none;gradientColor=none;strokeWidth=1;fontColor=#FFFFFF;labelPosition=left;verticalLabelPosition=top;align=right;verticalAlign=bottom;spacingLeft=0;spacing=0;spacingRight=-70;spacingTop=0;spacingBottom=-25;labelBackgroundColor=#858B94;fontFamily=Helvetica;" vertex="1" parent="rqtoLYsZP0avv1NgUhm5-2">
          <mxGeometry x="-17" width="130" height="130" as="geometry" />
        </mxCell>
        <mxCell id="rqtoLYsZP0avv1NgUhm5-4" value="CloudSQL forÂ &#xa;Chat Logs" style="editableCssRules=.*;shape=image;verticalLabelPosition=bottom;labelBackgroundColor=none;verticalAlign=top;aspect=fixed;imageAspect=0;image=data:image/svg+xml,PHN2ZyB4bWxucz0iaHR0cDovL3d3dy53My5vcmcvMjAwMC9zdmciIHhtbG5zOnY9Imh0dHBzOi8vdmVjdGEuaW8vbmFubyIgd2lkdGg9IjE0LjY1OTk5OTg0NzQxMjExIiBoZWlnaHQ9IjIwIiB2aWV3Qm94PSIwIDAgMTQuNjU5OTk5ODQ3NDEyMTEgMjAiPiYjeGE7CTxzdHlsZSB0eXBlPSJ0ZXh0L2NzcyI+JiN4YTsJLnN0MHtmaWxsOiM0Mjg1ZjQ7fSYjeGE7CS5zdDF7ZmlsbDojNjY5ZGY2O30mI3hhOwkuc3Qye2ZpbGw6I2FlY2JmYTt9JiN4YTsJPC9zdHlsZT4mI3hhOwk8c3R5bGU+JiN4YTsJCS5Ee2ZpbGwtcnVsZTpldmVub2RkfSYjeGE7CTwvc3R5bGU+JiN4YTsJPHBhdGggZD0iTTcuMzMgMTUuMzV2LTMuMDFMMCA4LjQ0djMuMDF6bTAgNC42NXYtMy4wMUwwIDEzLjA5djMuMDF6IiBjbGFzcz0ic3QyIEQiLz4mI3hhOwk8cGF0aCBkPSJNMTQuNjYgOC40NGwtNy4zMyAzLjl2My4wMWw3LjMzLTMuOXptMCA0LjY1bC03LjMzIDMuOVYyMGw3LjMzLTMuOXoiIGNsYXNzPSJzdDEgRCIvPiYjeGE7CTxwYXRoIGQ9Ik03LjMzIDB2My4wMWw3LjMzIDMuOVYzLjl6IiBjbGFzcz0ic3QwIEQiLz4mI3hhOwk8cGF0aCBkPSJNMCA2LjkxbDcuMzMtMy45VjBMMCAzLjl6IiBjbGFzcz0iRCBzdDEiLz4mI3hhOwk8cGF0aCBkPSJNNy4zMyAxMC43OVY3Ljc3TDAgMy44N3YzLjAyeiIgY2xhc3M9IkQgc3QyIi8+JiN4YTsJPHBhdGggZD0iTTE0LjY2IDMuODdsLTcuMzMgMy45djMuMDJsNy4zMy0zLjl6IiBjbGFzcz0iRCBzdDEiLz4mI3hhOzwvc3ZnPg==;fontColor=#999999;fontStyle=1" vertex="1" parent="rqtoLYsZP0avv1NgUhm5-2">
          <mxGeometry x="47.125" y="41.16333333333296" width="35.75" height="47.66666666666667" as="geometry" />
        </mxCell>
        <mxCell id="rqtoLYsZP0avv1NgUhm5-5" value="" style="group" vertex="1" connectable="0" parent="1">
          <mxGeometry x="3421.75" y="6204.000000000001" width="741" height="679" as="geometry" />
        </mxCell>
        <mxCell id="rqtoLYsZP0avv1NgUhm5-6" value="Datastore" style="rounded=0;arcSize=10;dashed=1;fillColor=none;gradientColor=none;strokeWidth=1;fontColor=#FFFFFF;labelPosition=left;verticalLabelPosition=top;align=right;verticalAlign=bottom;spacingLeft=0;spacing=0;spacingRight=-70;spacingTop=0;spacingBottom=-25;labelBackgroundColor=#858B94;fontFamily=Helvetica;" vertex="1" parent="rqtoLYsZP0avv1NgUhm5-5">
          <mxGeometry y="2" width="130" height="130" as="geometry" />
        </mxCell>
        <mxCell id="rqtoLYsZP0avv1NgUhm5-7" value="Datastore" style="sketch=0;html=1;verticalAlign=top;labelPosition=center;verticalLabelPosition=bottom;align=center;spacingTop=-6;fontSize=11;fontStyle=1;fontColor=#999999;shape=image;aspect=fixed;imageAspect=0;image=data:image/svg+xml,PHN2ZyB4bWxucz0iaHR0cDovL3d3dy53My5vcmcvMjAwMC9zdmciIHhtbG5zOnY9Imh0dHBzOi8vdmVjdGEuaW8vbmFubyIgd2lkdGg9IjMwIiBoZWlnaHQ9IjIxIiB2aWV3Qm94PSIwIDAgMzAgMjEiPiYjeGE7CTxzdHlsZSB0eXBlPSJ0ZXh0L2NzcyI+JiN4YTsJLnN0MHtmaWxsOiM0Mjg1ZjQ7fSYjeGE7CS5zdDF7ZmlsbDojNjY5ZGY2O30mI3hhOwkuc3Qye2ZpbGw6I2FlY2JmYTt9JiN4YTsJLnN0M3tmaWxsOiNmZmY7fSYjeGE7CTwvc3R5bGU+JiN4YTsJPHBhdGggZD0iTTAgMGwxLjUgMS41aDZMOSAweiIgY2xhc3M9InN0MiIvPiYjeGE7CTxwYXRoIGQ9Ik05IDlWMEw3LjUgMS41djZ6IiBjbGFzcz0ic3QxIi8+JiN4YTsJPHBhdGggZD0iTTAgOWwxLjUtMS41di02TDAgMHoiIGNsYXNzPSJzdDIiLz4mI3hhOwk8cGF0aCBkPSJNOSA5TDcuNSA3LjVoLTZMMCA5eiIgY2xhc3M9InN0MCIvPiYjeGE7CTxwYXRoIGQ9Ik0xLjUgMS41aDZ2NmgtNnoiIGNsYXNzPSJzdDIiLz4mI3hhOwk8cGF0aCBkPSJNMTAuNSAwTDEyIDEuNWg2TDE5LjUgMHoiIGNsYXNzPSJzdDAiLz4mI3hhOwk8cGF0aCBkPSJNMTkuNSA5VjBMMTggMS41djZ6IiBjbGFzcz0ic3QxIi8+JiN4YTsJPHBhdGggZD0iTTEwLjUgOUwxMiA3LjV2LTZMMTAuNSAweiIgY2xhc3M9InN0MCIvPiYjeGE7CTxwYXRoIGQ9Ik0xOS41IDlMMTggNy41aC02TDEwLjUgOXoiIGNsYXNzPSJzdDEiLz4mI3hhOwk8cGF0aCBkPSJNMTIgMS41aDZ2NmgtNnoiIGNsYXNzPSJzdDMiLz4mI3hhOwk8cGF0aCBkPSJNMjEgMGwxLjUgMS41aDZMMzAgMHoiIGNsYXNzPSJzdDAiLz4mI3hhOwk8cGF0aCBkPSJNMzAgOVYwbC0xLjUgMS41djZ6IiBjbGFzcz0ic3QxIi8+JiN4YTsJPHBhdGggZD0iTTIxIDlsMS41LTEuNXYtNkwyMSAweiIgY2xhc3M9InN0MCIvPiYjeGE7CTxwYXRoIGQ9Ik0zMCA5bC0xLjUtMS41aC02TDIxIDl6IiBjbGFzcz0ic3QxIi8+JiN4YTsJPHBhdGggZD0iTTIyLjUgMS41aDZ2NmgtNnoiIGNsYXNzPSJzdDMiLz4mI3hhOwk8cGF0aCBkPSJNMCAxMmwxLjUgMS41aDZMOSAxMnoiIGNsYXNzPSJzdDAiLz4mI3hhOwk8cGF0aCBkPSJNOSAyMXYtOWwtMS41IDEuNXY2eiIgY2xhc3M9InN0MSIvPiYjeGE7CTxwYXRoIGQ9Ik0wIDIxbDEuNS0xLjV2LTZMMCAxMnoiIGNsYXNzPSJzdDAiLz4mI3hhOwk8cGF0aCBkPSJNOSAyMWwtMS41LTEuNWgtNkwwIDIxeiIgY2xhc3M9InN0MSIvPiYjeGE7CTxwYXRoIGQ9Ik0xLjUgMTMuNWg2djZoLTZ6IiBjbGFzcz0ic3QzIi8+JiN4YTsJPHBhdGggZD0iTTEwLjUgMTJsMS41IDEuNWg2bDEuNS0xLjV6IiBjbGFzcz0ic3QyIi8+JiN4YTsJPHBhdGggZD0iTTE5LjUgMjF2LTlMMTggMTMuNXY2eiIgY2xhc3M9InN0MSIvPiYjeGE7CTxwYXRoIGQ9Ik0xMC41IDIxbDEuNS0xLjV2LTZMMTAuNSAxMnoiIGNsYXNzPSJzdDIiLz4mI3hhOwk8cGF0aCBkPSJNMTkuNSAyMUwxOCAxOS41aC02TDEwLjUgMjF6IiBjbGFzcz0ic3QwIi8+JiN4YTsJPHBhdGggZD0iTTEyIDEzLjVoNnY2aC02em05LTEuNWwxLjUgMS41aDZMMzAgMTJ6IiBjbGFzcz0ic3QyIi8+JiN4YTsJPHBhdGggZD0iTTMwIDIxdi05bC0xLjUgMS41djZ6IiBjbGFzcz0ic3QxIi8+JiN4YTsJPHBhdGggZD0iTTIxIDIxbDEuNS0xLjV2LTZMMjEgMTJ6IiBjbGFzcz0ic3QyIi8+JiN4YTsJPHBhdGggZD0iTTMwIDIxbC0xLjUtMS41aC02TDIxIDIxeiIgY2xhc3M9InN0MCIvPiYjeGE7CTxwYXRoIGQ9Ik0yMi41IDEzLjVoNnY2aC02eiIgY2xhc3M9InN0MiIvPiYjeGE7PC9zdmc+;" vertex="1" parent="rqtoLYsZP0avv1NgUhm5-5">
          <mxGeometry x="44" y="50.49999999999909" width="42" height="29" as="geometry" />
        </mxCell>
        <mxCell id="rqtoLYsZP0avv1NgUhm5-8" value="&lt;b&gt;&amp;nbsp; &amp;nbsp; &amp;nbsp; &amp;nbsp; &amp;nbsp; &amp;nbsp;Client VPC&lt;/b&gt;" style="sketch=0;points=[[0,0,0],[0.25,0,0],[0.5,0,0],[0.75,0,0],[1,0,0],[1,0.25,0],[1,0.5,0],[1,0.75,0],[1,1,0],[0.75,1,0],[0.5,1,0],[0.25,1,0],[0,1,0],[0,0.75,0],[0,0.5,0],[0,0.25,0]];rounded=1;absoluteArcSize=1;arcSize=2;html=1;strokeColor=default;gradientColor=none;shadow=0;dashed=1;fontSize=12;fontColor=#9E9E9E;align=left;verticalAlign=top;spacing=10;spacingTop=-4;whiteSpace=wrap;fillColor=none;container=0;" vertex="1" parent="rqtoLYsZP0avv1NgUhm5-5">
          <mxGeometry x="-173.75" y="-86" width="914.75" height="765" as="geometry" />
        </mxCell>
        <mxCell id="rqtoLYsZP0avv1NgUhm5-9" value="" style="editableCssRules=.*;html=1;shape=image;verticalLabelPosition=bottom;labelBackgroundColor=#ffffff;verticalAlign=top;aspect=fixed;imageAspect=0;image=data:image/svg+xml,PHN2ZyB4bWxucz0iaHR0cDovL3d3dy53My5vcmcvMjAwMC9zdmciIHhtbG5zOnY9Imh0dHBzOi8vdmVjdGEuaW8vbmFubyIgd2lkdGg9IjIwIiBoZWlnaHQ9IjIwIiB2aWV3Qm94PSIwIDAgMjAgMjAiPiYjeGE7CTxzdHlsZSB0eXBlPSJ0ZXh0L2NzcyI+JiN4YTsJLnN0MHtmaWxsOiM0Mjg1ZjQ7fSYjeGE7CS5zdDF7ZmlsbDojNjY5ZGY2O30mI3hhOwkuc3Qye2ZpbGw6I2FlY2JmYTt9JiN4YTsJPC9zdHlsZT4mI3hhOwk8cGF0aCBjbGFzcz0ic3QyIiBkPSJNMTQgMGg2djZoLTZ6Ii8+JiN4YTsJPHBhdGggY2xhc3M9InN0MSIgZD0iTTE3IDBoM3Y2aC0zeiIvPiYjeGE7CTxwYXRoIGNsYXNzPSJzdDIiIGQ9Ik0xNCAxNGg2djZoLTZ6Ii8+JiN4YTsJPHBhdGggY2xhc3M9InN0MSIgZD0iTTE3IDE0aDN2NmgtM3oiLz4mI3hhOwk8cGF0aCBjbGFzcz0ic3QyIiBkPSJNMCAwaDZ2NkgweiIvPiYjeGE7CTxwYXRoIGNsYXNzPSJzdDEiIGQ9Ik0zIDBoM3Y2SDN6Ii8+JiN4YTsJPHBhdGggY2xhc3M9InN0MiIgZD0iTTAgMTRoNnY2SDB6Ii8+JiN4YTsJPGcgY2xhc3M9InN0MSI+JiN4YTsJCTxwYXRoIGQ9Ik0zIDE0aDN2Nkgzek02IDJoOHYySDZ6Ii8+JiN4YTsJCTxwYXRoIGQ9Ik02IDE2aDh2Mkg2ek0xNiA2aDJ2OGgtMnpNMiA2aDJ2OEgyeiIvPiYjeGE7CTwvZz4mI3hhOwk8cGF0aCBjbGFzcz0ic3QwIiBkPSJNMiA2aDJ2Mkgyem0xNCAwaDJ2MmgtMnpNNiAyaDJ2Mkg2em0wIDE0aDJ2Mkg2eiIvPiYjeGE7PC9zdmc+;container=0;" vertex="1" parent="rqtoLYsZP0avv1NgUhm5-5">
          <mxGeometry x="-155.75" y="-77.00000000000182" width="25.76" height="25.76" as="geometry" />
        </mxCell>
        <mxCell id="rqtoLYsZP0avv1NgUhm5-10" value="Cloud&#xa;IAM" style="sketch=0;html=1;verticalAlign=middle;labelPosition=right;verticalLabelPosition=middle;align=left;spacingTop=-6;fontSize=11;fontStyle=1;fontColor=#999999;shape=image;aspect=fixed;imageAspect=0;image=data:image/svg+xml,PHN2ZyB4bWxucz0iaHR0cDovL3d3dy53My5vcmcvMjAwMC9zdmciIHhtbG5zOnY9Imh0dHBzOi8vdmVjdGEuaW8vbmFubyIgd2lkdGg9IjE2LjQyMDAwMDA3NjI5Mzk0NSIgaGVpZ2h0PSIyMC4wNDk5OTkyMzcwNjA1NDciIGZpbGwtcnVsZT0iZXZlbm9kZCIgdmlld0JveD0iMCAwIDE2LjQyMDAwMDA3NjI5Mzk0NSAyMC4wNDk5OTkyMzcwNjA1NDciPiYjeGE7CTxzdHlsZSB0eXBlPSJ0ZXh0L2NzcyI+JiN4YTsJLnN0MHtmaWxsOiM0Mjg1ZjQ7fSYjeGE7CS5zdDF7ZmlsbDojNjY5ZGY2O30mI3hhOwk8L3N0eWxlPiYjeGE7CTxwYXRoIGNsYXNzPSJzdDEiIGQ9Ik04LjIxIDBMMCAzLjQydjUuNjNjMCA1LjA2IDMuNSA5LjggOC4yMSAxMSA0LjcxLTEuMTUgOC4yMS01Ljg5IDguMjEtMTAuOTVWMy40MnptMCAzLjc5YTIuNjMgMi42MyAwIDAgMSAxLjAwNSA1LjA2QTIuNjMgMi42MyAwIDAgMSA2LjM1IDQuNTZhMi42MyAyLjYzIDAgMCAxIDEuODYtLjc3em00LjExIDExLjE1YTguNjQgOC42NCAwIDAgMS00LjExIDIuOTMgOC42NCA4LjY0IDAgMCAxLTQuMTEtMi45M3YtMi4yNWMwLTEuNjcgMi43NC0yLjUyIDQuMTEtMi41MnM0LjExLjg1IDQuMTEgMi41MnoiLz4mI3hhOwk8cGF0aCBjbGFzcz0ic3QwIiBkPSJNOC4yMSAwdjMuNzlhMi42MyAyLjYzIDAgMSAxIDAgNS4yNnYxLjEyYzEuMzcgMCA0LjExLjg1IDQuMTEgMi41MnYyLjI1YTguNjQgOC42NCAwIDAgMS00LjExIDIuOTNWMjBjNC43MS0xLjE1IDguMjEtNS44OSA4LjIxLTEwLjk1VjMuNDJ6Ii8+JiN4YTs8L3N2Zz4=;" vertex="1" parent="rqtoLYsZP0avv1NgUhm5-5">
          <mxGeometry x="486.25" y="-103.00000000000091" width="34" height="42" as="geometry" />
        </mxCell>
        <mxCell id="rqtoLYsZP0avv1NgUhm5-11" value="&lt;b&gt;MySQL&lt;/b&gt;" style="text;html=1;align=center;verticalAlign=middle;resizable=0;points=[];autosize=1;strokeColor=none;fillColor=none;" vertex="1" parent="rqtoLYsZP0avv1NgUhm5-5">
          <mxGeometry x="-152.75" y="25.99999999999909" width="66" height="29" as="geometry" />
        </mxCell>
        <mxCell id="rqtoLYsZP0avv1NgUhm5-12" value="Encrypted Object Storage" style="sketch=0;points=[[0,0,0],[0.25,0,0],[0.5,0,0],[0.75,0,0],[1,0,0],[1,0.25,0],[1,0.5,0],[1,0.75,0],[1,1,0],[0.75,1,0],[0.5,1,0],[0.25,1,0],[0,1,0],[0,0.75,0],[0,0.5,0],[0,0.25,0]];rounded=1;absoluteArcSize=1;arcSize=2;html=1;strokeColor=none;gradientColor=none;shadow=0;dashed=0;fontSize=12;fontColor=#9E9E9E;align=left;verticalAlign=top;spacing=10;spacingTop=-4;whiteSpace=wrap;fillColor=#F1F8E9;" vertex="1" parent="1">
          <mxGeometry x="3821" y="6648" width="328" height="209" as="geometry" />
        </mxCell>
        <mxCell id="rqtoLYsZP0avv1NgUhm5-13" value="" style="group" vertex="1" connectable="0" parent="1">
          <mxGeometry x="3840" y="6695.000000000001" width="130" height="130" as="geometry" />
        </mxCell>
        <mxCell id="rqtoLYsZP0avv1NgUhm5-14" value="Cloud Storage" style="rounded=0;arcSize=10;dashed=1;fillColor=none;gradientColor=none;strokeWidth=1;fontColor=#FFFFFF;labelPosition=left;verticalLabelPosition=top;align=right;verticalAlign=bottom;spacingLeft=0;spacing=0;spacingRight=-70;spacingTop=0;spacingBottom=-25;labelBackgroundColor=#858B94;fontFamily=Helvetica;fontStyle=1" vertex="1" parent="rqtoLYsZP0avv1NgUhm5-13">
          <mxGeometry width="130" height="130" as="geometry" />
        </mxCell>
        <mxCell id="rqtoLYsZP0avv1NgUhm5-15" value="Cloud&#xa;Storage" style="sketch=0;html=1;verticalAlign=top;labelPosition=center;verticalLabelPosition=bottom;align=center;spacingTop=-6;fontSize=11;fontStyle=1;fontColor=#999999;shape=image;aspect=fixed;imageAspect=0;image=data:image/svg+xml,PHN2ZyB4bWxucz0iaHR0cDovL3d3dy53My5vcmcvMjAwMC9zdmciIHhtbG5zOnY9Imh0dHBzOi8vdmVjdGEuaW8vbmFubyIgd2lkdGg9IjIwIiBoZWlnaHQ9IjE2IiB2aWV3Qm94PSIwIDAgMjAgMTYiPiYjeGE7CTxzdHlsZSB0eXBlPSJ0ZXh0L2NzcyI+JiN4YTsJLnN0MHtmaWxsOiM0Mjg1ZjQ7fSYjeGE7CS5zdDF7ZmlsbDojNjY5ZGY2O30mI3hhOwkuc3Qye2ZpbGw6I2FlY2JmYTt9JiN4YTsJLnN0M3tmaWxsOiNmZmY7fSYjeGE7CTwvc3R5bGU+JiN4YTsJPHBhdGggY2xhc3M9InN0MiIgZD0iTTAgMGgyMHY3SDB6Ii8+JiN4YTsJPHBhdGggY2xhc3M9InN0MSIgZD0iTTE4IDBoMnY3aC0yeiIvPiYjeGE7CTxwYXRoIGNsYXNzPSJzdDAiIGQ9Ik0xOCA3bDItN2gtMnoiLz4mI3hhOwk8cGF0aCBjbGFzcz0ic3QxIiBkPSJNMCAwaDJ2N0gweiIvPiYjeGE7CTxnIGNsYXNzPSJzdDMiPiYjeGE7CQk8cGF0aCBkPSJNNCAzaDZ2MUg0eiIvPiYjeGE7CQk8cmVjdCB4PSIxMyIgeT0iMiIgd2lkdGg9IjMiIGhlaWdodD0iMyIgcng9IjEuNSIvPiYjeGE7CTwvZz4mI3hhOwk8cGF0aCBjbGFzcz0ic3QyIiBkPSJNMCA5aDIwdjdIMHoiLz4mI3hhOwk8cGF0aCBjbGFzcz0ic3QxIiBkPSJNMTggOWgydjdoLTJ6Ii8+JiN4YTsJPHBhdGggY2xhc3M9InN0MCIgZD0iTTE4IDE2bDItN2gtMnoiLz4mI3hhOwk8cGF0aCBjbGFzcz0ic3QxIiBkPSJNMCA5aDJ2N0gweiIvPiYjeGE7CTxnIGNsYXNzPSJzdDMiPiYjeGE7CQk8cGF0aCBkPSJNNCAxMmg2djFINHoiLz4mI3hhOwkJPHJlY3QgeD0iMTMiIHk9IjExIiB3aWR0aD0iMyIgaGVpZ2h0PSIzIiByeD0iMS41Ii8+JiN4YTsJPC9nPiYjeGE7PC9zdmc+;" vertex="1" parent="rqtoLYsZP0avv1NgUhm5-13">
          <mxGeometry x="44" y="47.99999999999909" width="42" height="34" as="geometry" />
        </mxCell>
        <mxCell id="rqtoLYsZP0avv1NgUhm5-16" value="" style="group" vertex="1" connectable="0" parent="1">
          <mxGeometry x="3998" y="6695.000000000001" width="130" height="130" as="geometry" />
        </mxCell>
        <mxCell id="rqtoLYsZP0avv1NgUhm5-17" value="Cloud KMS CMEK" style="rounded=0;arcSize=10;dashed=1;fillColor=none;gradientColor=none;strokeWidth=1;fontColor=#FFFFFF;labelPosition=left;verticalLabelPosition=top;align=right;verticalAlign=bottom;spacingLeft=0;spacing=0;spacingRight=-70;spacingTop=0;spacingBottom=-25;labelBackgroundColor=#858B94;fontFamily=Helvetica;" vertex="1" parent="rqtoLYsZP0avv1NgUhm5-16">
          <mxGeometry width="130" height="130" as="geometry" />
        </mxCell>
        <mxCell id="rqtoLYsZP0avv1NgUhm5-18" value="Cloud Key&#xa;Management" style="sketch=0;html=1;verticalAlign=top;labelPosition=center;verticalLabelPosition=bottom;align=center;spacingTop=-6;fontSize=11;fontStyle=1;fontColor=#999999;shape=image;aspect=fixed;imageAspect=0;image=data:image/svg+xml,PHN2ZyB4bWxucz0iaHR0cDovL3d3dy53My5vcmcvMjAwMC9zdmciIHhtbG5zOnY9Imh0dHBzOi8vdmVjdGEuaW8vbmFubyIgd2lkdGg9IjMxMC43NzU2MDY1NDM4NjAyNSIgaGVpZ2h0PSIzNzcuOTUzMDI4ODM1NTI1NDYiIHZpZXdCb3g9Ii0wLjE0MDAwMDAwMDU5NjA0NjQ1IC0wLjQ2NzAwMDAwNzYyOTM5NDUzIDgyLjIyNTk5NzkyNDgwNDY5IDEwMC4wMDAwMDc2MjkzOTQ1MyI+JiN4YTs8c3R5bGUgdHlwZT0idGV4dC9jc3MiPiYjeGE7CS5zdDB7ZmlsbDojNDI4NWY0O30mI3hhOwkuc3Qxe2ZpbGw6IzY2OWRmNjt9JiN4YTsJLnN0MntmaWxsOiNmZmY7fSYjeGE7PC9zdHlsZT4mI3hhOwk8cGF0aCBjbGFzcz0ic3QwIiBkPSJNNDAuOTczLS40NjdsNDEuMTEzIDE3LjQ5M3YyOS42NTRjMCAyNy40MTgtMjQuNjA4IDUwLjgzNi00MS4xMTMgNTIuODUzeiIvPiYjeGE7CTxwYXRoIGNsYXNzPSJzdDEiIGQ9Ik00MC45NzMtLjQ2N0wtLjE0IDE3LjAyNXYyOS42NTRjMCAyNy40MTggMjQuNjA4IDUwLjgzNiA0MS4xMTMgNTIuODUzeiIvPiYjeGE7CTxwYXRoIGNsYXNzPSJzdDIiIGQ9Ik00MS4yNTMgMTYuNjA1Yy05LjU4NCAwLTE3LjQ0NSA3Ljg2Mi0xNy40NDUgMTcuNDQ1IDAgOC4wODQgNS41OTQgMTQuOTQyIDEzLjA5NiAxNi44OTF2OS40ODhoLTkuODY5djguNzAxaDkuODY5djUuMzc3aC02LjMxNXY4LjcwMWg2LjMxNXYyLjE5N2g4LjcwMVY1MC45NDFDNTMuMTA2IDQ4Ljk5MiA1OC43IDQyLjEzNCA1OC43IDM0LjA1YzAtOS41ODQtNy44NjMtMTcuNDQ1LTE3LjQ0Ny0xNy40NDV6bTAgOC42OTlBOC42OCA4LjY4IDAgMCAxIDUwIDM0LjA1YTguNjggOC42OCAwIDAgMS04Ljc0OCA4Ljc0NiA4LjY4IDguNjggMCAwIDEtOC43NDYtOC43NDYgOC42OCA4LjY4IDAgMCAxIDguNzQ2LTguNzQ2eiIvPiYjeGE7PC9zdmc+;" vertex="1" parent="rqtoLYsZP0avv1NgUhm5-16">
          <mxGeometry x="48" y="43.99999999999909" width="34" height="42" as="geometry" />
        </mxCell>
        <mxCell id="rqtoLYsZP0avv1NgUhm5-19" value="Virtual Machines" style="sketch=0;points=[[0,0,0],[0.25,0,0],[0.5,0,0],[0.75,0,0],[1,0,0],[1,0.25,0],[1,0.5,0],[1,0.75,0],[1,1,0],[0.75,1,0],[0.5,1,0],[0.25,1,0],[0,1,0],[0,0.75,0],[0,0.5,0],[0,0.25,0]];rounded=1;absoluteArcSize=1;arcSize=2;html=1;strokeColor=none;gradientColor=none;shadow=0;dashed=0;fontSize=12;fontColor=#9E9E9E;align=left;verticalAlign=top;spacing=10;spacingTop=-4;whiteSpace=wrap;fillColor=#F1F8E9;" vertex="1" parent="1">
          <mxGeometry x="3737" y="6162" width="410" height="271" as="geometry" />
        </mxCell>
        <mxCell id="rqtoLYsZP0avv1NgUhm5-20" value="&lt;span style=&quot;font-size: 12px;&quot;&gt;Managed instance group&lt;/span&gt;" style="sketch=0;points=[[0,0,0],[0.25,0,0],[0.5,0,0],[0.75,0,0],[1,0,0],[1,0.25,0],[1,0.5,0],[1,0.75,0],[1,1,0],[0.75,1,0],[0.5,1,0],[0.25,1,0],[0,1,0],[0,0.75,0],[0,0.5,0],[0,0.25,0]];rounded=1;absoluteArcSize=1;arcSize=2;html=1;strokeColor=none;gradientColor=none;shadow=0;dashed=0;fontSize=12;fontColor=#9E9E9E;align=left;verticalAlign=top;spacing=10;spacingTop=-4;whiteSpace=wrap;fillColor=#E1F5FE;" vertex="1" parent="1">
          <mxGeometry x="3746" y="6210" width="190" height="197" as="geometry" />
        </mxCell>
        <mxCell id="rqtoLYsZP0avv1NgUhm5-21" value="" style="group" vertex="1" connectable="0" parent="1">
          <mxGeometry x="3779" y="6254.000000000001" width="130" height="130" as="geometry" />
        </mxCell>
        <mxCell id="rqtoLYsZP0avv1NgUhm5-22" value="Container-&#xa;Optimized OS" style="sketch=0;html=1;verticalAlign=top;labelPosition=center;verticalLabelPosition=bottom;align=center;spacingTop=-6;fontSize=11;fontStyle=1;fontColor=#999999;shape=image;aspect=fixed;imageAspect=0;image=data:image/svg+xml,PHN2ZyB4bWxucz0iaHR0cDovL3d3dy53My5vcmcvMjAwMC9zdmciIHhtbG5zOnY9Imh0dHBzOi8vdmVjdGEuaW8vbmFubyIgd2lkdGg9IjIwIiBoZWlnaHQ9IjIwIiB2aWV3Qm94PSIwIDAgMjAgMjAiPiYjeGE7CTxzdHlsZSB0eXBlPSJ0ZXh0L2NzcyI+JiN4YTsJLnN0MHtmaWxsOiM0Mjg1ZjQ7fSYjeGE7CTwvc3R5bGU+JiN4YTsJPHBhdGggY2xhc3M9InN0MCIgZD0iTTEwIDBhMTAgMTAgMCAxIDAgMTAgMTBoMEExMCAxMCAwIDAgMCAxMCAwem0wIDE4YTggOCAwIDAgMS00LjE4LTEuMThsMy41OC0yLjA3aDB2LTQuNUw1LjUxIDh2NC41MmwyLjc1IDEuNTktMy40NiAyQTggOCAwIDAgMSA2LjA4IDN2NGgwTDEwIDkuMjggMTMuOSA3IDEwIDQuNzcgNy4yNCA2LjM2VjIuNDdhOCA4IDAgMCAxIDEwLjMxIDQuNyA4LjEgOC4xIDAgMCAxIC41MSAyLjgzdi4wN0wxNC40NiA4aDBsLTMuOSAyLjI2djQuNTFsMy45LTIuMjVWOS4zNGwzLjQ1IDJBOCA4IDAgMCAxIDEwIDE4eiIvPiYjeGE7PC9zdmc+;" vertex="1" parent="rqtoLYsZP0avv1NgUhm5-21">
          <mxGeometry x="44" y="43.99999999999909" width="42" height="42" as="geometry" />
        </mxCell>
        <mxCell id="rqtoLYsZP0avv1NgUhm5-23" value="Compute Engine" style="rounded=0;arcSize=10;dashed=1;fillColor=none;gradientColor=none;strokeWidth=1;fontColor=#FFFFFF;labelPosition=left;verticalLabelPosition=top;align=right;verticalAlign=bottom;spacingLeft=0;spacing=0;spacingRight=-70;spacingTop=0;spacingBottom=-25;labelBackgroundColor=#858B94;fontFamily=Helvetica;container=0;" vertex="1" parent="rqtoLYsZP0avv1NgUhm5-21">
          <mxGeometry width="130" height="130" as="geometry" />
        </mxCell>
        <mxCell id="rqtoLYsZP0avv1NgUhm5-24" value="" style="group" vertex="1" connectable="0" parent="1">
          <mxGeometry x="3976" y="6257.000000000001" width="163" height="130" as="geometry" />
        </mxCell>
        <mxCell id="rqtoLYsZP0avv1NgUhm5-25" value="GitLab &amp; RunnerÂ " style="rounded=0;arcSize=10;dashed=1;fillColor=none;gradientColor=none;strokeWidth=1;fontColor=#FFFFFF;labelPosition=left;verticalLabelPosition=top;align=right;verticalAlign=bottom;spacingLeft=0;spacing=0;spacingRight=-70;spacingTop=0;spacingBottom=-25;labelBackgroundColor=#858B94;fontFamily=Helvetica;" vertex="1" parent="rqtoLYsZP0avv1NgUhm5-24">
          <mxGeometry y="-1" width="130" height="130" as="geometry" />
        </mxCell>
        <mxCell id="rqtoLYsZP0avv1NgUhm5-26" value="Compute&#xa;Engine" style="sketch=0;html=1;verticalAlign=top;labelPosition=center;verticalLabelPosition=bottom;align=center;spacingTop=-6;fontSize=11;fontStyle=1;fontColor=#999999;shape=image;aspect=fixed;imageAspect=0;image=data:image/svg+xml,PHN2ZyB4bWxucz0iaHR0cDovL3d3dy53My5vcmcvMjAwMC9zdmciIHhtbG5zOnY9Imh0dHBzOi8vdmVjdGEuaW8vbmFubyIgd2lkdGg9IjIwIiBoZWlnaHQ9IjIwIiB2aWV3Qm94PSIwIDAgMjAgMjAiPiYjeGE7CTxzdHlsZSB0eXBlPSJ0ZXh0L2NzcyI+JiN4YTsJLnN0MHtmaWxsOiM0Mjg1ZjQ7fSYjeGE7CS5zdDF7ZmlsbDojNjY5ZGY2O30mI3hhOwkuc3Qye2ZpbGw6I2FlY2JmYTt9JiN4YTsJPC9zdHlsZT4mI3hhOwk8cGF0aCBjbGFzcz0ic3QyIiBkPSJNNyA3aDZ2Nkg3eiIvPiYjeGE7CTxwYXRoIGNsYXNzPSJzdDEiIGQ9Ik05IDBoMnY0SDl6TTUgMGgydjRINXptOCAwaDJ2NGgtMnoiLz4mI3hhOwk8cGF0aCBjbGFzcz0ic3QwIiBkPSJNOSAxNmgydjRIOXptLTQgMGgydjRINXptOCAwaDJ2NGgtMnptMy01VjloNHYyem0wIDR2LTJoNHYyem0wLThWNWg0djJ6Ii8+JiN4YTsJPHBhdGggY2xhc3M9InN0MSIgZD0iTTAgMTFWOWg0djJ6bTAgNHYtMmg0djJ6bTAtOFY1aDR2MnoiLz4mI3hhOwk8cGF0aCBjbGFzcz0ic3QyIiBkPSJNMyAzdjE0aDE0VjN6bTEyIDEySDVWNWgxMHoiLz4mI3hhOwk8cGF0aCBjbGFzcz0ic3QxIiBkPSJNMTAgMTBsLTMgM2g2eiIvPiYjeGE7CTxwYXRoIGNsYXNzPSJzdDAiIGQ9Ik0xMyA3bC0zIDMgMyAzeiIvPiYjeGE7PC9zdmc+;" vertex="1" parent="rqtoLYsZP0avv1NgUhm5-24">
          <mxGeometry x="44" y="37.99999999999909" width="42" height="42" as="geometry" />
        </mxCell>
        <mxCell id="rqtoLYsZP0avv1NgUhm5-27" value="" style="shape=image;html=1;verticalAlign=top;verticalLabelPosition=bottom;labelBackgroundColor=#ffffff;imageAspect=0;aspect=fixed;image=https://cdn4.iconfinder.com/data/icons/socialcones/508/Gitlab-128.png" vertex="1" parent="rqtoLYsZP0avv1NgUhm5-24">
          <mxGeometry x="97" y="-33.00000000000091" width="66" height="66" as="geometry" />
        </mxCell>
        <mxCell id="rqtoLYsZP0avv1NgUhm5-28" value="Cloud Functions" style="sketch=0;points=[[0,0,0],[0.25,0,0],[0.5,0,0],[0.75,0,0],[1,0,0],[1,0.25,0],[1,0.5,0],[1,0.75,0],[1,1,0],[0.75,1,0],[0.5,1,0],[0.25,1,0],[0,1,0],[0,0.75,0],[0,0.5,0],[0,0.25,0]];rounded=1;absoluteArcSize=1;arcSize=2;html=1;strokeColor=#d6b656;shadow=0;dashed=0;fontSize=12;align=left;verticalAlign=top;spacing=10;spacingTop=-4;whiteSpace=wrap;fillColor=#fff2cc;" vertex="1" parent="1">
          <mxGeometry x="3287.5" y="6467.89" width="495" height="247.11" as="geometry" />
        </mxCell>
        <mxCell id="rqtoLYsZP0avv1NgUhm5-29" value="&lt;div&gt;&lt;span style=&quot;font-size: 12px;&quot;&gt;R10 Satellite + Other&amp;nbsp;&lt;/span&gt;&lt;span style=&quot;background-color: initial;&quot;&gt;functions&lt;/span&gt;&lt;/div&gt;" style="sketch=0;points=[[0,0,0],[0.25,0,0],[0.5,0,0],[0.75,0,0],[1,0,0],[1,0.25,0],[1,0.5,0],[1,0.75,0],[1,1,0],[0.75,1,0],[0.5,1,0],[0.25,1,0],[0,1,0],[0,0.75,0],[0,0.5,0],[0,0.25,0]];rounded=1;absoluteArcSize=1;arcSize=2;html=1;strokeColor=#82b366;shadow=0;dashed=0;fontSize=12;align=left;verticalAlign=top;spacing=10;spacingTop=-4;whiteSpace=wrap;fillColor=#d5e8d4;" vertex="1" parent="1">
          <mxGeometry x="3301.5" y="6507.89" width="226" height="199" as="geometry" />
        </mxCell>
        <mxCell id="rqtoLYsZP0avv1NgUhm5-30" value="" style="group" vertex="1" connectable="0" parent="1">
          <mxGeometry x="3349.5" y="6551.89" width="130" height="135" as="geometry" />
        </mxCell>
        <mxCell id="rqtoLYsZP0avv1NgUhm5-31" value="Cloud Functions" style="rounded=0;arcSize=10;dashed=1;fillColor=none;gradientColor=none;strokeWidth=1;fontColor=#FFFFFF;labelPosition=left;verticalLabelPosition=top;align=right;verticalAlign=bottom;spacingLeft=0;spacing=0;spacingRight=-70;spacingTop=0;spacingBottom=-25;labelBackgroundColor=#858B94;fontFamily=Helvetica;strokeColor=#999999;" vertex="1" parent="rqtoLYsZP0avv1NgUhm5-30">
          <mxGeometry width="130" height="135" as="geometry" />
        </mxCell>
        <mxCell id="rqtoLYsZP0avv1NgUhm5-32" value="Cloud&#xa;Functions" style="sketch=0;html=1;verticalAlign=top;labelPosition=center;verticalLabelPosition=bottom;align=center;spacingTop=-6;fontSize=11;fontStyle=1;fontColor=#999999;shape=image;aspect=fixed;imageAspect=0;image=data:image/svg+xml,PHN2ZyB4bWxucz0iaHR0cDovL3d3dy53My5vcmcvMjAwMC9zdmciIHhtbG5zOnY9Imh0dHBzOi8vdmVjdGEuaW8vbmFubyIgd2lkdGg9IjIwIiBoZWlnaHQ9IjE5Ljk4OTk5OTc3MTExODE2NCIgdmlld0JveD0iMCAwIDIwIDE5Ljk4OTk5OTc3MTExODE2NCI+JiN4YTsJPHN0eWxlIHR5cGU9InRleHQvY3NzIj4mI3hhOwkuc3Qwe2ZpbGw6IzQyODVmNDt9JiN4YTsJLnN0MXtmaWxsOiM2NjlkZjY7fSYjeGE7CS5zdDJ7ZmlsbDojYWVjYmZhO30mI3hhOwk8L3N0eWxlPiYjeGE7CTxwYXRoIGNsYXNzPSJzdDEiIGQ9Ik0zIDMuOTlMMCA2LjQydjcuMTNsMyAyLjQ0eiIvPiYjeGE7CTxwYXRoIGNsYXNzPSJzdDAiIGQ9Ik0zIDMuOTlsLTMgNCAzLTJ6bS0zIDhsMyA0di0yeiIvPiYjeGE7CTxwYXRoIGNsYXNzPSJzdDIiIGQ9Ik0wIDE1Ljk5bDQgNCAyLTItNi02em0uMDEtOEw1Ljk5IDJsLTItMkwwIDMuOTl6Ii8+JiN4YTsJPHBhdGggY2xhc3M9InN0MSIgZD0iTTE3IDE2bDMtMi40MlY2LjQ0TDE3IDR6Ii8+JiN4YTsJPHBhdGggY2xhc3M9InN0MCIgZD0iTTE3IDE2bDMtNC0zIDJ6bTMtOGwtMy00djJ6Ii8+JiN4YTsJPGcgY2xhc3M9InN0MiI+JiN4YTsJCTxwYXRoIGQ9Ik0yMCA0bC00LTQtMiAyIDYgNnptLS4wMSA4bC01Ljk4IDUuOTkgMiAyTDIwIDE2eiIvPiYjeGE7CQk8Y2lyY2xlIGN4PSI2IiBjeT0iOS45OSIgcj0iMSIvPiYjeGE7CQk8Y2lyY2xlIGN4PSIxMCIgY3k9IjkuOTkiIHI9IjEiLz4mI3hhOwkJPGNpcmNsZSBjeD0iMTMuOTkiIGN5PSI5Ljk5IiByPSIxIi8+JiN4YTsJPC9nPiYjeGE7PC9zdmc+;" vertex="1" parent="rqtoLYsZP0avv1NgUhm5-30">
          <mxGeometry x="44" y="48.289999999999964" width="42" height="34" as="geometry" />
        </mxCell>
        <mxCell id="rqtoLYsZP0avv1NgUhm5-33" value="" style="group;fillColor=#e1d5e7;strokeColor=#9673a6;" vertex="1" connectable="0" parent="1">
          <mxGeometry x="3542.5" y="6508.89" width="226" height="199" as="geometry" />
        </mxCell>
        <mxCell id="rqtoLYsZP0avv1NgUhm5-34" value="&lt;div&gt;Cron Functions&lt;/div&gt;" style="sketch=0;points=[[0,0,0],[0.25,0,0],[0.5,0,0],[0.75,0,0],[1,0,0],[1,0.25,0],[1,0.5,0],[1,0.75,0],[1,1,0],[0.75,1,0],[0.5,1,0],[0.25,1,0],[0,1,0],[0,0.75,0],[0,0.5,0],[0,0.25,0]];rounded=1;absoluteArcSize=1;arcSize=2;html=1;strokeColor=#82b366;shadow=0;dashed=0;fontSize=12;align=left;verticalAlign=top;spacing=10;spacingTop=-4;whiteSpace=wrap;fillColor=#d5e8d4;" vertex="1" parent="rqtoLYsZP0avv1NgUhm5-33">
          <mxGeometry width="226" height="199" as="geometry" />
        </mxCell>
        <mxCell id="rqtoLYsZP0avv1NgUhm5-35" value="" style="group" vertex="1" connectable="0" parent="rqtoLYsZP0avv1NgUhm5-33">
          <mxGeometry x="48" y="44" width="130" height="135" as="geometry" />
        </mxCell>
        <mxCell id="rqtoLYsZP0avv1NgUhm5-36" value="Cloud Functions" style="rounded=0;arcSize=10;dashed=1;fillColor=none;gradientColor=none;strokeWidth=1;fontColor=#FFFFFF;labelPosition=left;verticalLabelPosition=top;align=right;verticalAlign=bottom;spacingLeft=0;spacing=0;spacingRight=-70;spacingTop=0;spacingBottom=-25;labelBackgroundColor=#858B94;fontFamily=Helvetica;strokeColor=#999999;" vertex="1" parent="rqtoLYsZP0avv1NgUhm5-35">
          <mxGeometry width="130" height="135" as="geometry" />
        </mxCell>
        <mxCell id="rqtoLYsZP0avv1NgUhm5-37" value="Cloud&#xa;Functions" style="sketch=0;html=1;verticalAlign=top;labelPosition=center;verticalLabelPosition=bottom;align=center;spacingTop=-6;fontSize=11;fontStyle=1;fontColor=#999999;shape=image;aspect=fixed;imageAspect=0;image=data:image/svg+xml,PHN2ZyB4bWxucz0iaHR0cDovL3d3dy53My5vcmcvMjAwMC9zdmciIHhtbG5zOnY9Imh0dHBzOi8vdmVjdGEuaW8vbmFubyIgd2lkdGg9IjIwIiBoZWlnaHQ9IjE5Ljk4OTk5OTc3MTExODE2NCIgdmlld0JveD0iMCAwIDIwIDE5Ljk4OTk5OTc3MTExODE2NCI+JiN4YTsJPHN0eWxlIHR5cGU9InRleHQvY3NzIj4mI3hhOwkuc3Qwe2ZpbGw6IzQyODVmNDt9JiN4YTsJLnN0MXtmaWxsOiM2NjlkZjY7fSYjeGE7CS5zdDJ7ZmlsbDojYWVjYmZhO30mI3hhOwk8L3N0eWxlPiYjeGE7CTxwYXRoIGNsYXNzPSJzdDEiIGQ9Ik0zIDMuOTlMMCA2LjQydjcuMTNsMyAyLjQ0eiIvPiYjeGE7CTxwYXRoIGNsYXNzPSJzdDAiIGQ9Ik0zIDMuOTlsLTMgNCAzLTJ6bS0zIDhsMyA0di0yeiIvPiYjeGE7CTxwYXRoIGNsYXNzPSJzdDIiIGQ9Ik0wIDE1Ljk5bDQgNCAyLTItNi02em0uMDEtOEw1Ljk5IDJsLTItMkwwIDMuOTl6Ii8+JiN4YTsJPHBhdGggY2xhc3M9InN0MSIgZD0iTTE3IDE2bDMtMi40MlY2LjQ0TDE3IDR6Ii8+JiN4YTsJPHBhdGggY2xhc3M9InN0MCIgZD0iTTE3IDE2bDMtNC0zIDJ6bTMtOGwtMy00djJ6Ii8+JiN4YTsJPGcgY2xhc3M9InN0MiI+JiN4YTsJCTxwYXRoIGQ9Ik0yMCA0bC00LTQtMiAyIDYgNnptLS4wMSA4bC01Ljk4IDUuOTkgMiAyTDIwIDE2eiIvPiYjeGE7CQk8Y2lyY2xlIGN4PSI2IiBjeT0iOS45OSIgcj0iMSIvPiYjeGE7CQk8Y2lyY2xlIGN4PSIxMCIgY3k9IjkuOTkiIHI9IjEiLz4mI3hhOwkJPGNpcmNsZSBjeD0iMTMuOTkiIGN5PSI5Ljk5IiByPSIxIi8+JiN4YTsJPC9nPiYjeGE7PC9zdmc+;" vertex="1" parent="rqtoLYsZP0avv1NgUhm5-35">
          <mxGeometry x="44" y="48.289999999999964" width="42" height="34" as="geometry" />
        </mxCell>
        <mxCell id="rqtoLYsZP0avv1NgUhm5-38" style="edgeStyle=orthogonalEdgeStyle;rounded=0;orthogonalLoop=1;jettySize=auto;html=1;exitX=0.25;exitY=1;exitDx=0;exitDy=0;entryX=0.25;entryY=0;entryDx=0;entryDy=0;startArrow=classic;startFill=1;" edge="1" parent="1" source="rqtoLYsZP0avv1NgUhm5-39" target="rqtoLYsZP0avv1NgUhm5-44">
          <mxGeometry relative="1" as="geometry" />
        </mxCell>
        <mxCell id="rqtoLYsZP0avv1NgUhm5-39" value="" style="strokeColor=#dddddd;shadow=1;strokeWidth=1;rounded=1;absoluteArcSize=1;arcSize=2;" vertex="1" parent="1">
          <mxGeometry x="3046" y="6366" width="160" height="60" as="geometry" />
        </mxCell>
        <mxCell id="rqtoLYsZP0avv1NgUhm5-40" value="Cloud&#xa;DNS" style="editableCssRules=.*;html=1;fontColor=#999999;shape=image;verticalLabelPosition=middle;verticalAlign=middle;labelPosition=right;align=left;spacingLeft=20;part=1;points=[];imageAspect=0;image=data:image/svg+xml,PHN2ZyB4bWxucz0iaHR0cDovL3d3dy53My5vcmcvMjAwMC9zdmciIHhtbG5zOnY9Imh0dHBzOi8vdmVjdGEuaW8vbmFubyIgd2lkdGg9IjIwIiBoZWlnaHQ9IjIwIiB2aWV3Qm94PSIwIDAgMjAgMjAiPiYjeGE7CTxzdHlsZSB0eXBlPSJ0ZXh0L2NzcyI+JiN4YTsJLnN0MHtmaWxsOiM0Mjg1ZjQ7fSYjeGE7CS5zdDF7ZmlsbDojNjY5ZGY2O30mI3hhOwkuc3Qye2ZpbGw6I2FlY2JmYTt9JiN4YTsJLnN0M3tmaWxsOiNmZmY7fSYjeGE7CTwvc3R5bGU+JiN4YTsJPHBhdGggY2xhc3M9InN0MCIgZD0iTTkgNmgydjEwSDl6Ii8+JiN4YTsJPHBhdGggY2xhc3M9InN0MSIgZD0iTTIwIDE3SDB2MmgyMHoiLz4mI3hhOwk8cGF0aCBjbGFzcz0ic3QyIiBkPSJNMTIgMTZIOHY0aDR6TTAgMGgyMHY2SDB6Ii8+JiN4YTsJPHBhdGggY2xhc3M9InN0MSIgZD0iTTEwIDBoMTB2NkgxMHoiLz4mI3hhOwk8cGF0aCBjbGFzcz0ic3QzIiBkPSJNMiAyaDJ2MkgyeiIvPiYjeGE7CTxwYXRoIGNsYXNzPSJzdDIiIGQ9Ik0wIDhoMjB2NkgweiIvPiYjeGE7CTxwYXRoIGNsYXNzPSJzdDEiIGQ9Ik0xMCA4aDEwdjZIMTB6Ii8+JiN4YTsJPHBhdGggY2xhc3M9InN0MyIgZD0iTTIgMTBoMnYySDJ6Ii8+JiN4YTs8L3N2Zz4=;" vertex="1" parent="rqtoLYsZP0avv1NgUhm5-39">
          <mxGeometry width="30" height="30" relative="1" as="geometry">
            <mxPoint x="15" y="15" as="offset" />
          </mxGeometry>
        </mxCell>
        <mxCell id="rqtoLYsZP0avv1NgUhm5-41" style="edgeStyle=orthogonalEdgeStyle;rounded=0;orthogonalLoop=1;jettySize=auto;html=1;exitX=1;exitY=0.75;exitDx=0;exitDy=0;entryX=1;entryY=0.5;entryDx=0;entryDy=0;startArrow=classic;startFill=1;" edge="1" parent="1" source="rqtoLYsZP0avv1NgUhm5-44" target="rqtoLYsZP0avv1NgUhm5-47">
          <mxGeometry relative="1" as="geometry">
            <Array as="points">
              <mxPoint x="3218" y="6513" />
              <mxPoint x="3218" y="6582" />
            </Array>
          </mxGeometry>
        </mxCell>
        <mxCell id="rqtoLYsZP0avv1NgUhm5-42" style="edgeStyle=orthogonalEdgeStyle;rounded=0;orthogonalLoop=1;jettySize=auto;html=1;exitX=1;exitY=0.5;exitDx=0;exitDy=0;entryX=1;entryY=0.5;entryDx=0;entryDy=0;startArrow=classic;startFill=1;" edge="1" parent="1" source="rqtoLYsZP0avv1NgUhm5-44" target="rqtoLYsZP0avv1NgUhm5-49">
          <mxGeometry relative="1" as="geometry">
            <Array as="points">
              <mxPoint x="3229" y="6498" />
              <mxPoint x="3229" y="6662" />
            </Array>
          </mxGeometry>
        </mxCell>
        <mxCell id="rqtoLYsZP0avv1NgUhm5-43" style="edgeStyle=orthogonalEdgeStyle;rounded=0;orthogonalLoop=1;jettySize=auto;html=1;exitX=1;exitY=0.25;exitDx=0;exitDy=0;entryX=1;entryY=0.5;entryDx=0;entryDy=0;startArrow=classic;startFill=1;" edge="1" parent="1" source="rqtoLYsZP0avv1NgUhm5-44" target="rqtoLYsZP0avv1NgUhm5-51">
          <mxGeometry relative="1" as="geometry">
            <Array as="points">
              <mxPoint x="3238" y="6483" />
              <mxPoint x="3238" y="6741" />
            </Array>
          </mxGeometry>
        </mxCell>
        <mxCell id="rqtoLYsZP0avv1NgUhm5-44" value="" style="strokeColor=#dddddd;shadow=1;strokeWidth=1;rounded=1;absoluteArcSize=1;arcSize=2;" vertex="1" parent="1">
          <mxGeometry x="3046" y="6467.89" width="160" height="60" as="geometry" />
        </mxCell>
        <mxCell id="rqtoLYsZP0avv1NgUhm5-45" value="Cloud Load&#xa;Balancing" style="editableCssRules=.*;html=1;fontColor=#999999;shape=image;verticalLabelPosition=middle;verticalAlign=middle;labelPosition=right;align=left;spacingLeft=20;part=1;points=[];imageAspect=0;image=data:image/svg+xml,PHN2ZyB4bWxucz0iaHR0cDovL3d3dy53My5vcmcvMjAwMC9zdmciIHhtbG5zOnY9Imh0dHBzOi8vdmVjdGEuaW8vbmFubyIgd2lkdGg9IjIwIiBoZWlnaHQ9IjIwIiB2aWV3Qm94PSIwIDAgMjAgMjAiPiYjeGE7CTxzdHlsZSB0eXBlPSJ0ZXh0L2NzcyI+JiN4YTsJLnN0MHtmaWxsOiM0Mjg1ZjQ7fSYjeGE7CS5zdDF7ZmlsbDojNjY5ZGY2O30mI3hhOwkuc3Qye2ZpbGw6I2FlY2JmYTt9JiN4YTsJPC9zdHlsZT4mI3hhOwk8cGF0aCBjbGFzcz0ic3QxIiBkPSJNMTYgMTBoMnY0aC0yem0tNyAwaDJ2NEg5em0tNyAwaDJ2NEgyeiIvPiYjeGE7CTxwYXRoIGNsYXNzPSJzdDAiIGQ9Ik05IDVoMnY0SDl6Ii8+JiN4YTsJPHBhdGggY2xhc3M9InN0MSIgZD0iTTIgOWgxNnYySDJ6Ii8+JiN4YTsJPHBhdGggY2xhc3M9InN0MiIgZD0iTTQgMGgxMnY1SDR6Ii8+JiN4YTsJPHBhdGggY2xhc3M9InN0MSIgZD0iTTEwIDBoNnY1aC02eiIvPiYjeGE7CTxwYXRoIGNsYXNzPSJzdDIiIGQ9Ik0xNCAxNGg2djZoLTZ6TTAgMTRoNnY2SDB6Ii8+JiN4YTsJPHBhdGggY2xhc3M9InN0MSIgZD0iTTMgMTRoM3Y2SDN6Ii8+JiN4YTsJPHBhdGggY2xhc3M9InN0MiIgZD0iTTcgMTRoNnY2SDd6Ii8+JiN4YTsJPHBhdGggY2xhc3M9InN0MSIgZD0iTTEwIDE0aDN2NmgtM3ptNyAwaDN2NmgtM3oiLz4mI3hhOzwvc3ZnPg==;" vertex="1" parent="rqtoLYsZP0avv1NgUhm5-44">
          <mxGeometry width="30" height="30" relative="1" as="geometry">
            <mxPoint x="15" y="15" as="offset" />
          </mxGeometry>
        </mxCell>
        <mxCell id="rqtoLYsZP0avv1NgUhm5-46" value="" style="group" vertex="1" connectable="0" parent="1">
          <mxGeometry x="3046" y="6551.71" width="160" height="60" as="geometry" />
        </mxCell>
        <mxCell id="rqtoLYsZP0avv1NgUhm5-47" value="Â  Â  Â  Â  Â  Â Certificate Manager" style="strokeColor=#dddddd;shadow=1;strokeWidth=1;rounded=1;absoluteArcSize=1;arcSize=2;container=0;fontColor=#999999;fontStyle=1" vertex="1" parent="rqtoLYsZP0avv1NgUhm5-46">
          <mxGeometry width="160" height="60" as="geometry" />
        </mxCell>
        <mxCell id="rqtoLYsZP0avv1NgUhm5-48" value="" style="shape=image;verticalLabelPosition=bottom;labelBackgroundColor=default;verticalAlign=top;aspect=fixed;imageAspect=0;image=data:image/jpeg,/9j/4AAQSkZJRgABAQAAAQABAAD/2wBDAAsJCQcJCQcJCQkJCwkJCQkJCQsJCwsMCwsLDA0QDBEODQ4MEhkSJRodJR0ZHxwpKRYlNzU2GioyPi0pMBk7IRP/2wBDAQcICAsJCxULCxUsHRkdLCwsLCwsLCwsLCwsLCwsLCwsLCwsLCwsLCwsLCwsLCwsLCwsLCwsLCwsLCwsLCwsLCz/wAARCADqANYDASIAAhEBAxEB/8QAGwABAAIDAQEAAAAAAAAAAAAAAAYHAQQFAgP/xABGEAABAwEDBQoLBgUFAQAAAAAAAQIDBAUGERIWITXSMUFRVFVxdJOxsxMUFTJhcoGRlKKyIjNSc5LRNEJiocFDZILh8ML/xAAbAQEAAgMBAQAAAAAAAAAAAAAABQYCAwQHAf/EADQRAAEDAQMJCAIDAAMAAAAAAAABAgMEBREVEhMhMTJRUnGhFDM0QYGRwdEisTVh4SPw8f/aAAwDAQACEQMRAD8AtsAAAAAAAAAAAAAAAAAAAAAAAAAAAAAAAAAAAAAAAAAAAAAAAAAAAAAAAAAAAAAAAAAAAAAAAAAAAAAAAAAAAAAAA06+0KOzofD1T8lFVWsY1MqSR2GOSxpuFaW1aMlpV0siqqQQufDTN3kY12Cu53bq+zgJCz6Ptcly7KazkqqjMMvTWuo3Ku9VrzyP8WVlLDuMa1jJJMOFz3oqY8yJ/k5rrVtlyq5bRrcV4J5Gp7mqiGmC5R0cEaXNYnsV988j1vc5Tb8p2vyjXfEzbQ8p2vyjXfEzbRqA25iPhT2MM47ept+U7X5RrviZtoeU7X5RrviZto1AMxHwp7DOO3qbflO1+Ua74mbaHlO1+Ua74mbaNQDMR8Kewzjt6m35TtflGu+Jm2h5TtflGu+Jm2jUAzEfCnsM47ept+U7X5RrviZtoeU7X5RrviZto1AMxHwp7DOO3qbflO1+Ua74mbaHlO2NC+Ua7Rp/iJdo1AMxHwp7DOP3qdiC8tuwKzKqEnY1UxZUMY7KTgy2ojv7kwsq26K1Gq1mMVS1uVJA/S5ETQrmO3FT/wBgVufamqZ6OogqYHYSwuym8Dk3Fa70KmhSOq7Lhnb+CXO8rtHudcFZJG78lvQtcHwpKhlXTUtSxMGVEMczUxxVMtMcFX0H3KUqK1blLEioqXoAAfD6AAAAAAAAAfCsldDSVszfOhpp5W87GK5CqU3E5i0rS1bavQavunFWpuJ7C02CiZL15EJae01AdezLArrUp3VME9PGxsr4cmVJFdixEVV+zo3zkE7uhqqXp1R2MJK0qh9PBlxrpvOSjibLJkv1HIzOtXjdF+mb9hmdavG6L9M37E5BW8Yqt6eyEv2CDd1Ug2Z1q8bov0zfsMzrV43Rfpm/YnIGMVW9PZB2CDd1Ug2Z1q8bov0zfsMzrV43Rfpm/Ymk01PAzLnmiiZ+KV7WN97lQ0Vt2wUXJ8oU+Poc5U96Jh/c2MtOufs6fQxdR0zdej1IzmdavG6L9M37DM61uN0X6Zv2JjT1lFVJjTVME2jHCKRrlRPSiLibBgtr1bVuVehklDAulP2QbM61uN0X6Zv2GZ1q8bov0zfsTkHzGKrensg7BBu6qQbM61eN0X6Zv2PjVXXtGkpqmqkqaVzIInyuaxsuUqNTHBMUwJ+c+2tU2t0Ob6TOO1qpz0aq613IYvoYUaqonUrIAFyK+WHdeR0ljUeP+m+ohb6rJXIh2jhXU1NB+fV9646dTXUFI+FlVURwumR6x+FXJR2SqIv2tzfTfPP6tirUva1PNS0wORIWqu5DaB84poJ25UMsUrfxRPa9vvap9DjVFTQp0It+oAAAAAAAAA1LS1bavQavunFWpuJ7C0rS1davQavunFWpuJ7C1WFsP5oQlp7TQTu6Gq5enVHYwghO7oaql6dUdjDqtrw3qhps/vvRfgkQAKWWEKRm3Lx+JufR0KtdVNxSaZURzIF/C1NxXcO8npXQnRt60Vs6z5JI1RKiZ3gKfTpa9yKqvw/pTFefArfFVVVVVVVVVVVXFVVdOKqTtlWe2f8A5pdlNSbyMrapY/wZrPpPPUVMjpaiWSWV26+VyuXmTHePngfampqusmbT0kTpZnIrsG6Ea1P5nuXQiHebc+1VZlPqqNr8MchGyuTmV+j6Syy1MFPc17kT+v8AwiGQyy/k1LyONVzHNexzmvauLXMVWuReFHJpJPZF6JonR09pu8JC5Ua2qXz4+DwuG6np3efe4lfZloWa9rKqJEa9VSOWNcqJ+G8juH0KiGkYywwVsenSnkqH1kklO7Ro/otxFRURUVFRURUVFxRUUyRe6dpOngls+Z2MlK1HwKq6XQKuGT/xXRzKnASgo9RA6nkWJ3kWSKVJWI9Ac+2tU2t0Ob6ToHPtrVNrdDm+kwg71vND7JsLyKzMGTB6OVIsC6mpoPz6vvXHLvn59k+pV9sZ1Lqamg/Pq+9ccu+fn2T6lX2xlRpv5RebvknZfBJyQjVJV1dDKk9LK6KRNC4aWvTge1dCoWDYlrstWnc9zWsqYXIyeNqrhp817cdOC/49Gmtzp2DUvprWs9UcrWTyeLSpjgjmyJgiL7clSZtKiZPEr0T8k0/4cFJUOiejVXQpZQMGSkFjAAAAAANS0tW2r0Gr7pxVqbiewtK0tW2r0Gr7pxVqbiewtVhbD+aEJae00E7uhqqXp1R2MIITu6Gq5enVHYw6ra8N6oabP770X4JEACllhIVfKRy1VnQfysp5JcP6pH5OK/pIuSe+MTkrLPmw+zJTPiRf6o35X/0RgvdmXdkZd/3SVmtvz7iwrs0MdJZlPLkp4ata2qmdvqjkxY3HgRO1eE7ZxLs1kdTZdNFl4y0bUp5Wruojcch3MqYe5eA7egp1Zl59+XrvUn6fJzTcnVca1dRw11LPSyp9mVqoi77Hppa9PSilWKitVzV3WqrV50XBS066sgoaWoqpXIjYmqqJvveuhrE9KqVYqqqq5y4ucqq5eFVXFSesLLyX36tHuRlp5N7d51LuyrDbNn6VwmWWnd6UfGqp/dELIK2u/Ests2amnCJ0tQ70JHG5O1ULIOS3Ls+27d8qb7NvzS37zJz7a1Ta3RJvpOgc+2tU2t0Ob6SHg71vNDvk2F5FZmDJg9HKkWBdTU0H59X3rjl3z8+yfUq+2I6l1NTQfn1feuOXfPz7J9Sr7Yio038ovN3yTkvgk5IRM+kCq2opHNVUVKmmVFTdRfCtPme4fv6XpFN3rS2u2VIRNaFtcPOBw84PNC4AAADAYAAGpaWrbV6DV904q1NxPYWlaWrrV6DV904q1NxPYWqwth/NCEtPaaCd3Q1VL06o7GEEJ3dDVUvTqjsYdVteG9UNNn996L8EiwGABSywnHvBZzrQoHtibjUU7vDwJvuVEwcxOdNz0ohXXo3+BdCluqQO9dJTU9dBLCzJdVxySzIi/ZV7XI3KROFd/wD9jY7Fq1R3Z3al1fJEWhBemdQ41JWVlDM2elldHImhcNLXt3cl7V0Kh323xr0YqOo6ZZN5yOla1OdmlfmIwCfmo4J1ypG3qRcdRJGlzFuN60LVtC03o6pkTIbpjhjxbExdzFG4rp9Kqpog6FjUlPW2pQ01Q1XQvdK6RiLgj0jjc9Guw3lw0ma5umiVUS5GpfoMUypXpet6qSO6NmviimtKZqo6qakVMipgqU6LlK/T+Jdz0InCSrAw1GtRGtREaiIiImhERN5EQyUKpndUSrK7zLPDEkTEYgwOfbWqbW6HN9J0Dn21qm1uhzfSYQd43mhlJsLyKzMGTB6OVIsC6mpoPz6vvXHLvn59k+pV9sZ1Lqamg/Pq+9ccu+fn2T6lX2xFRpv5RebvknZfBJyQiZ7h+/pekU3etPB7h+/pekU3etLa7ZUg01ltcPOowHDzg80LgMAAAAAAalpautXoNX3TirU3E9haVpautXoNX3TirU3E9harC2H80IS09poJ1dDVUvTqjsYQUnd0NVy9OqOxh1W14b1Q02f33ovwSIAFLLCCFXy/irN6PN9bSakKvl/FWb0eb62kpZPi2+v6U4a7uFIuAqoiKqqiIm6qnbprtWrU0MlXg2ORUR1PTSJhJKzdVXKu4q/yovtwx0XKaeOFEWRbryAjifItzEvOIde7eu7O5qnuXnJc17HOY9rmvYqte1yKjmuTQqKi751rt67s7mqe5ea6xb6aRU3L+jKDvW80LGAB56WsHPtrVNrdDm+k6Bz7a1Ta3RJvpNsHeN5oa5NheRWQMmD0cqRYF1NTQfn1feuOXfPz7J9Sr7YzqXU1NB+fV9645d8/Psn1KvtiKjTfyi83fJOS+CTkhEz3D9/S9Ipu9aeD3D9/S9Ipu9aW12ypCJrLa4edQOEHmhcAAAAAADUtLVtq9Bq+6cVam4nsLStLVtq9Bq+6cVam4nsLVYWw/mhCWntNBO7oaql6dUdjCCE7uhqqXp1R2MOq2vDeqGmz++9F+CRAApZYQQm+aolTZq/7ebvGoTY0prNpKitpa6ZuXJSxvZTtdgsbHOcjvCYfi4OA7KKoSnmSVyX3X/o56iJZY1YnmR2wLuOasVfaUf20wfTUr08xd1JJk/FwJvc/my7AzgDCpqZKl+XIv+GUMLYW5LTg25YEdotWop8mOua3dXQydE3GyengX/G5GLvxyxW/RRSscySNapkjHpg5rkhdoVCxVNOWzqSStpLQyVbVU6Paj2aMtj2KzJem/hjoOuntB0cLoJNKKion9aP0c8tIjnpI3QqKbgAIs7gc+2tU2t0Ob6ToHPtrVNrdDm+k2wd43mhrk2F5FZmDJg9HKkWBdTU0H59X3rjl3z8+yfUq+2M6l1NTQfn1feuOXfTz7J9Sr7Yyo038ovN3yTsvgk5IRM9w/f0vSKbvWng9w/f0vSKbvWltdsqQaay2uHnA4ecHmhcAAAB7h7gADVtLV1q9Bq+6cVYm4nsLZnibNDPC7zZopIncz2q0qdUc1VY7zmKrHc7VwUtFguTJe3kQtpppapgndz9Vy9OqOxhBD6x1NXE3JiqKiNuKrkxSyMbiu6uDVRCWrqZaqLNtW7ScNNMkL8tUvLYBVXjto8crPiJtoeO2jxys+Im2iDwGTjQksTbwlqgqrx20eOVnxE20PHbR45WfETbQwGTjQYm3hLVBVXjto8crPiJtoeO2jxys+Im2hgMnGgxNvCWsYKq8dtHjlZ8RNtDx20eOVnxE20MBk40GJt4S1jBVXjto8crPiJtoeO2jxys+Im2hgMnGgxNvCWqc+29U2t0Sb6SuvHbR45WfETbRh1XXPa5j6qqc1yKjmvnlc1yLvKiuwM47EkY5HZaaDF1otc1UyT4mAC0EMWBdTU0H59X3rjl308+yfUq+2I7V3IVgsazkVMHSxuqHc8zlk/yhxb5+fZPqVfbGU+lcjrTVU3u+SemS6jRP6QiZ7h+/pekU3etPB7h+/pekU3etLc7ZUgk1ltcPOZ9xjh51B5oXAe4AAD3D3AAAgt5rJWlqHV8DF8WqHK6dGoqpDMulXLhuNdu8+PCTowqNcitVEVFRUVF0oqLvKh10lU6lkzjfVN5z1ECTsyVKjBOqy6VmTyPkp5JaVXaciNGPhRfQx2lOZHHOdc2sylyLQgyd7Kgei+3B+BbI7XpXperruaKQbqGZq6EvIsCT5m1/KFN1Em2Mza/lCm6iTbNmKUnH0X6Mexz8JGASfM2v5Qpuok2xmbX8oU3USbYxSk4+i/Q7HPwkYBJ8za/lCm6iTbGZtfyhTdRJtjFKTj6L9Dsc/CRgEnzNr+UKbqJNsZm1/KFN1Em2MUpOPov0Oxz8JGASfM2v5Qpuok2xmbX8oU3USbYxSk4+i/Q7HPwkYBJ8za/lCm6iTbGZtdyhTdRJtjFKTj6L9Dsc/CRg6FkWXJa1WyLByUsa5VXK1FyUan+k125lO3PQmKkjgubRtVq1VZUTIioqsjayFi6ccFVMX4f8iSwQU9NFHBTxMiijTBjI0RrUTmQj6u2WIxWwaVXz3HVBZ7ldfLqPbGMjYxjGtaxjWsY1qYI1rUwREQiF9PPsn1KvtiJiQ6+nn2T6lX2xkPZPi2ev6U767uF9P2RM9w/f0vSKbvWng9w/f0vSKbvWl4dsqVxNZbXDzmfcY4ecHmhcB7gAAAAAAAAAAAalbaNBZ7Yn1cqxtlc5rFSOR6KrUxVPsIppZzXd44vUVGwfK9FLJUWW90bVc6mmZUKjUxVI0RWvX2IuK8xX5P2fZ0FVFluVb0Xyu+iLqquSF+SiJcWLnNd3ji9RUbAzmu7xxeoqNgroEjgdPvXp9HJiUu5Cxc5ru8cXqKjYGc13eOL1FRsFdAYHT716fQxKXchYuc13eOL1FRsDOa7vHF6io2CugMDp969PoYlLuQsXOa7vHF6io2BnNd3ji9RUbBXQGB0+9en0MSl3IWLnNd3ji9RUbAzmu7xxeoqNgroDA6fevT6GJS7kLFzmu7xxeoqNgZzXd44vUVGwV0BgdPvXp9DEpdyFi5zXd44vUVGwRu81pWfaLrPWjm8IkLahJMY5GYK9WYeeicCkeBvp7Khp5Elaq3py+jVLWySsVjkQH0gRXVFG1qKrnVVM1qJuqqyt0HzOpYFM+qtiz0RquZTvWqmXeY2NFyVXnXBE/wCiQnekcTnr5Ipyxty3o1PMsnh5wAecFuAAAAAAAAAAAAMKmKYKiKi6FRdxU9JBLZu5V0j5qmiZ4WjVzn+DjRVlgRdOGTuq1N5U/wCyeA7KSrkpX5TPPWhzz07Z23OKhRzV0I5FXfwUyWlUWdZlVj4xR00qrvviYruDzsMf7mpm5dzk6n+faLA23YlT8mKnt/hFrZr/ACchXALHzcu5ydT/AD7Qzcu5ydT/AD7RnjkHCvT7McNk3oVwCx83LucnU/z7Qzcu5ydT/PtDHIOFen2MNk3oVwCx83LucnU/z7Qzcu5ydT/PtDHIOFen2MNk3oVwCx83LucnU/z7Qzcu5ydT/PtDHIOFen2MNk3oVwCx83LucnU/z7Qzcu5ydT/PtDHIOFen2MNk3oVwFVE3dCeksfNy7nJ1P8+0e4rBsCF2WyzqXKTcV7MvDmR+KHxbch8mr0CWbJvQryjpKy0JUgoollfoynIuEcafikfuIn9/QWDYtkR2TTOjVzZKmZySVMqJgjnJoRrcdOS3e9++dJkccbUbGxjGpuNY1GtT2IeyGrrTfVJkIlzSQpqNsK5S6VAAIo7gAABiMQABiMQABiMQABiMQABiMQABiMQABiMQABiMQABiMQABiMQABiMQABiMQABiMQABiAAAAAAAAAAAAAAAAAAAAAAAAAAAAAAAAAAAAAAAAAAAAD//2Q==;" vertex="1" parent="rqtoLYsZP0avv1NgUhm5-46">
          <mxGeometry x="10" y="15" width="27.44" height="30" as="geometry" />
        </mxCell>
        <mxCell id="rqtoLYsZP0avv1NgUhm5-49" value="" style="strokeColor=#dddddd;shadow=1;strokeWidth=1;rounded=1;absoluteArcSize=1;arcSize=2;" vertex="1" parent="1">
          <mxGeometry x="3046" y="6631.71" width="160" height="60" as="geometry" />
        </mxCell>
        <mxCell id="rqtoLYsZP0avv1NgUhm5-50" value="&lt;font color=&quot;#000000&quot;&gt;Static IP&lt;/font&gt;&lt;br&gt;Cloud External&lt;div&gt;IP Address&lt;/div&gt;" style="editableCssRules=.*;html=1;fontColor=#999999;shape=image;verticalLabelPosition=middle;verticalAlign=middle;labelPosition=right;align=left;spacingLeft=20;part=1;points=[];imageAspect=0;image=data:image/svg+xml,PHN2ZyB4bWxucz0iaHR0cDovL3d3dy53My5vcmcvMjAwMC9zdmciIHhtbG5zOnY9Imh0dHBzOi8vdmVjdGEuaW8vbmFubyIgd2lkdGg9IjE5Ljk5OTk5ODA5MjY1MTM2NyIgaGVpZ2h0PSIyMCIgdmlld0JveD0iMCAtMi44NDIxNzA1NjE4NzU1NzQ1ZS0xNSAxOS45OTk5OTgwOTI2NTEzNjcgMjAiPiYjeGE7CTxzdHlsZSB0eXBlPSJ0ZXh0L2NzcyI+JiN4YTsJLnN0MHtmaWxsOiM0Mjg1ZjQ7fSYjeGE7CS5zdDF7ZmlsbDojNjY5ZGY2O30mI3hhOwk8L3N0eWxlPiYjeGE7CTxwYXRoIGNsYXNzPSJzdDEiIGQ9Ik0xNS40OSAxMC40djYuN2EuNC40IDAgMCAxLS40LjRIMi45YS40LjQgMCAwIDEtLjQtLjRWNC45YS40LjQgMCAwIDEgLjQtLjRoNi43YS40LjQgMCAwIDAgLjQtLjRWMi40YS40LjQgMCAwIDAtLjQtLjRILjRhLjQuNCAwIDAgMC0uNC40djE3LjJhLjQuNCAwIDAgMCAuNC40aDE3LjJhLjQuNCAwIDAgMCAuNC0uNHYtOS4yYS40LjQgMCAwIDAtLjQtLjRoLTEuNzFhLjQuNCAwIDAgMC0uNC40eiIvPiYjeGE7CTxwYXRoIGNsYXNzPSJzdDAiIGQ9Ik0xMiAuNHY3LjJhLjQuNCAwIDAgMCAuNC40aDcuMmEuNC40IDAgMCAwIC40LS40Vi40YS40LjQgMCAwIDAtLjQtLjRoLTcuMmEuNC40IDAgMCAwLS40LjR6bTUuNiA0LjFoLTEuNzFhLjQuNCAwIDAgMS0uNC0uNFYyLjRhLjQuNCAwIDAgMSAuNC0uNGgxLjcxYS40LjQgMCAwIDEgLjQuNHYxLjdhLjQuNCAwIDAgMS0uNC40eiIvPiYjeGE7PC9zdmc+;" vertex="1" parent="rqtoLYsZP0avv1NgUhm5-49">
          <mxGeometry width="30" height="30" relative="1" as="geometry">
            <mxPoint x="15" y="15" as="offset" />
          </mxGeometry>
        </mxCell>
        <mxCell id="rqtoLYsZP0avv1NgUhm5-51" value="" style="strokeColor=#dddddd;shadow=1;strokeWidth=1;rounded=1;absoluteArcSize=1;arcSize=2;" vertex="1" parent="1">
          <mxGeometry x="3046" y="6710.71" width="160" height="60" as="geometry" />
        </mxCell>
        <mxCell id="rqtoLYsZP0avv1NgUhm5-52" value="Cloud&#xa;Armor" style="editableCssRules=.*;html=1;fontColor=#999999;shape=image;verticalLabelPosition=middle;verticalAlign=middle;labelPosition=right;align=left;spacingLeft=20;part=1;points=[];imageAspect=0;image=data:image/svg+xml,PHN2ZyB4bWxucz0iaHR0cDovL3d3dy53My5vcmcvMjAwMC9zdmciIHhtbG5zOnY9Imh0dHBzOi8vdmVjdGEuaW8vbmFubyIgd2lkdGg9IjE2LjUwMDQzNDg3NTQ4ODI4IiBoZWlnaHQ9IjIwIiB2aWV3Qm94PSItMC4wMDAzNjMwODkyNjA2NDUyMTA3NCAxLjE5MjA5Mjg5NTUwNzgxMjVlLTcgMTYuNTAwNDM0ODc1NDg4MjggMjAiPiYjeGE7CTxzdHlsZSB0eXBlPSJ0ZXh0L2NzcyI+JiN4YTsJLnN0MHtmaWxsOiM2NjlkZjY7fSYjeGE7CS5zdDF7ZmlsbDojYWVjYmZhO30mI3hhOwk8L3N0eWxlPiYjeGE7CTxwYXRoIGNsYXNzPSJzdDEiIGQ9Ik0xMC40MiAxMi4wN2wxLjA0IDEuMDUtNS40NSA1LjQ4LTEuMDQtMS4wNXptLS44My00LjE5bDEuMDQgMS4wNS03LjM1IDcuMzktMS4wNC0xLjA1em0tNC4xNi0uODVsMS4wNCAxLjA1LTQuODggNC45LTEuMDQtMS4wNXoiLz4mI3hhOwk8ZyBjbGFzcz0ic3QwIj4mI3hhOwkJPHBhdGggZD0iTTguMjUgMS42MWw2Ljc4IDN2NC41NWE5LjcxIDkuNzEgMCAwIDEtNi43OCA5LjMyIDkuNyA5LjcgMCAwIDEtNi43OC05LjMxVjQuNjNsNi43OC0zbTAtMS42M0wwIDMuNjh2NS40OUExMS4xNyAxMS4xNyAwIDAgMCA4LjEgMjBoLjE1LjE1YTExLjE3IDExLjE3IDAgMCAwIDguMS0xMC43OFYzLjY4eiIvPiYjeGE7CQk8Y2lyY2xlIGN4PSIxMC45NCIgY3k9IjEyLjYyIiByPSIxLjQyIi8+JiN4YTsJCTxjaXJjbGUgY3g9IjEwLjEiIGN5PSI4LjQ1IiByPSIxLjQyIi8+JiN4YTsJCTxjaXJjbGUgY3g9IjUuOTQiIGN5PSI3LjYiIHI9IjEuNDIiLz4mI3hhOwk8L2c+JiN4YTs8L3N2Zz4=;" vertex="1" parent="rqtoLYsZP0avv1NgUhm5-51">
          <mxGeometry width="26" height="30" relative="1" as="geometry">
            <mxPoint x="17" y="15" as="offset" />
          </mxGeometry>
        </mxCell>
        <mxCell id="rqtoLYsZP0avv1NgUhm5-53" value="" style="strokeColor=#dddddd;shadow=1;strokeWidth=1;rounded=1;absoluteArcSize=1;arcSize=2;" vertex="1" parent="1">
          <mxGeometry x="3046" y="6788" width="160" height="60" as="geometry" />
        </mxCell>
        <mxCell id="rqtoLYsZP0avv1NgUhm5-54" value="Cloud&#xa;CDN" style="editableCssRules=.*;html=1;fontColor=#999999;shape=image;verticalLabelPosition=middle;verticalAlign=middle;labelPosition=right;align=left;spacingLeft=20;part=1;points=[];imageAspect=0;image=data:image/svg+xml,PHN2ZyB4bWxucz0iaHR0cDovL3d3dy53My5vcmcvMjAwMC9zdmciIHhtbG5zOnY9Imh0dHBzOi8vdmVjdGEuaW8vbmFubyIgd2lkdGg9IjIwIiBoZWlnaHQ9IjIwIiB2aWV3Qm94PSIwIDAgMjAgMjAiPiYjeGE7CTxzdHlsZSB0eXBlPSJ0ZXh0L2NzcyI+JiN4YTsJLnN0MHtmaWxsOiM0Mjg1ZjQ7fSYjeGE7CS5zdDF7ZmlsbDojNjY5ZGY2O30mI3hhOwkuc3Qye2ZpbGw6I2FlY2JmYTt9JiN4YTsJPC9zdHlsZT4mI3hhOwk8cGF0aCBjbGFzcz0ic3QxIiBkPSJNMTMuMTMgNS42M1YzLjIxTDEwIDB2Mi40MXptMy43NSA3LjVMMjAgMTBoLTIuNWwtMy4xMiAzLjEzem0tMTMuNzUgMEwwIDEwaDIuNWwzLjEzIDMuMTN6bTEwIDEuMjV2Mi40MUwxMCAyMHYtMi40MXoiIGZpbGwtcnVsZT0iZXZlbm9kZCIvPiYjeGE7CTxwYXRoIGNsYXNzPSJzdDIiIGQ9Ik02Ljg4IDUuNjNMMTAgMi40MVYwTDYuODggMy4yMXpNMTcuNSAxMEgyMGwtMy4xMi0zLjEyaC0yLjV6bS0xNSAwSDBsMy4xMy0zLjEyaDIuNXptNC4zOCA0LjM4TDEwIDE3LjU5VjIwbC0zLjEyLTMuMjF6bTAtNy41aDYuMjV2Ni4yNUg2Ljg4eiIgZmlsbC1ydWxlPSJldmVub2RkIi8+JiN4YTsJPHBhdGggY2xhc3M9InN0MSIgZD0iTTYuODggMTMuMTNsNi4yNS02LjI1djYuMjV6IiBmaWxsLXJ1bGU9ImV2ZW5vZGQiLz4mI3hhOwk8cGF0aCBjbGFzcz0ic3QwIiBkPSJNMTAgMTBsMy4xMy0zLjEydjYuMjV6IiBmaWxsLXJ1bGU9ImV2ZW5vZGQiLz4mI3hhOzwvc3ZnPg==;" vertex="1" parent="rqtoLYsZP0avv1NgUhm5-53">
          <mxGeometry width="30" height="30" relative="1" as="geometry">
            <mxPoint x="15" y="15" as="offset" />
          </mxGeometry>
        </mxCell>
        <mxCell id="rqtoLYsZP0avv1NgUhm5-55" style="edgeStyle=orthogonalEdgeStyle;rounded=0;orthogonalLoop=1;jettySize=auto;html=1;exitX=0.75;exitY=0;exitDx=0;exitDy=0;entryX=0.5;entryY=0;entryDx=0;entryDy=0;entryPerimeter=0;startArrow=classic;startFill=1;" edge="1" parent="1" source="rqtoLYsZP0avv1NgUhm5-44" target="rqtoLYsZP0avv1NgUhm5-29">
          <mxGeometry relative="1" as="geometry">
            <Array as="points">
              <mxPoint x="3166" y="6451" />
              <mxPoint x="3415" y="6451" />
              <mxPoint x="3415" y="6484" />
              <mxPoint x="3415" y="6484" />
            </Array>
          </mxGeometry>
        </mxCell>
        <mxCell id="rqtoLYsZP0avv1NgUhm5-56" value="Cloud Run" style="sketch=0;points=[[0,0,0],[0.25,0,0],[0.5,0,0],[0.75,0,0],[1,0,0],[1,0.25,0],[1,0.5,0],[1,0.75,0],[1,1,0],[0.75,1,0],[0.5,1,0],[0.25,1,0],[0,1,0],[0,0.75,0],[0,0.5,0],[0,0.25,0]];rounded=1;absoluteArcSize=1;arcSize=2;html=1;strokeColor=#d6b656;shadow=0;dashed=0;fontSize=12;align=left;verticalAlign=top;spacing=10;spacingTop=-4;whiteSpace=wrap;fillColor=#fff2cc;" vertex="1" parent="1">
          <mxGeometry x="3288.75" y="6720" width="495" height="124" as="geometry" />
        </mxCell>
        <mxCell id="rqtoLYsZP0avv1NgUhm5-57" value="" style="group" vertex="1" connectable="0" parent="1">
          <mxGeometry x="3470" y="6731" width="130" height="109" as="geometry" />
        </mxCell>
        <mxCell id="rqtoLYsZP0avv1NgUhm5-58" value="R10Â  Admin Dashboard" style="rounded=0;arcSize=10;dashed=1;fillColor=none;gradientColor=none;strokeWidth=1;fontColor=#FFFFFF;labelPosition=left;verticalLabelPosition=top;align=right;verticalAlign=bottom;spacingLeft=0;spacing=0;spacingRight=-70;spacingTop=0;spacingBottom=-25;labelBackgroundColor=#858B94;fontFamily=Helvetica;" vertex="1" parent="rqtoLYsZP0avv1NgUhm5-57">
          <mxGeometry width="130" height="109" as="geometry" />
        </mxCell>
        <mxCell id="rqtoLYsZP0avv1NgUhm5-59" value="Cloud Run" style="sketch=0;html=1;verticalAlign=top;labelPosition=center;verticalLabelPosition=bottom;align=center;spacingTop=-6;fontSize=11;fontStyle=1;fontColor=#999999;shape=image;aspect=fixed;imageAspect=0;image=data:image/svg+xml,PHN2ZyB4bWxucz0iaHR0cDovL3d3dy53My5vcmcvMjAwMC9zdmciIHhtbG5zOnY9Imh0dHBzOi8vdmVjdGEuaW8vbmFubyIgd2lkdGg9IjM2NS40NjQ5OTY3NzA0MjQ5MyIgaGVpZ2h0PSIzNzkuMjIyOTk0NDYzNTc3OTUiIHZpZXdCb3g9IjAgMCA5Ni42OTU5OTkxNDU1MDc4MSAxMDAuMzM1OTk4NTM1MTU2MjUiPiYjeGE7PHN0eWxlIHR5cGU9InRleHQvY3NzIj4mI3hhOwkuc3Qwe2ZpbGw6IzQyODVmNDt9JiN4YTsJLnN0MXtmaWxsOiNhZWNiZmE7fSYjeGE7PC9zdHlsZT4mI3hhOwk8cGF0aCBjbGFzcz0ic3QwIiBkPSJNMjkuNzk0IDEwMC4zMzZMNDYuOTIgNTAuMTY4aDQ5Ljc3NnpNMCA5OS42NzFsMTIuOTc2LTQ5LjUwMkgyOS4yMkwxNi44OTcgOTIuMDU0eiIvPiYjeGE7CTxwYXRoIGNsYXNzPSJzdDEiIGQ9Ik0yOS43OTQgMEw0Ni45MiA1MC4xNjhoNDkuNzc2ek0wIC42NjZsMTIuOTc2IDQ5LjUwMkgyOS4yMkwxNi44OTcgOC4yODN6Ii8+JiN4YTs8L3N2Zz4=;" vertex="1" parent="rqtoLYsZP0avv1NgUhm5-57">
          <mxGeometry x="48" y="33.5" width="34" height="42" as="geometry" />
        </mxCell>
        <mxCell id="rqtoLYsZP0avv1NgUhm5-60" style="edgeStyle=orthogonalEdgeStyle;rounded=0;orthogonalLoop=1;jettySize=auto;html=1;exitX=0;exitY=0.25;exitDx=0;exitDy=0;exitPerimeter=0;entryX=0.912;entryY=-0.012;entryDx=0;entryDy=0;entryPerimeter=0;startArrow=classic;startFill=1;" edge="1" parent="1" source="rqtoLYsZP0avv1NgUhm5-56" target="rqtoLYsZP0avv1NgUhm5-44">
          <mxGeometry relative="1" as="geometry">
            <Array as="points">
              <mxPoint x="3270" y="6751" />
              <mxPoint x="3270" y="6460" />
              <mxPoint x="3192" y="6460" />
            </Array>
          </mxGeometry>
        </mxCell>
        <mxCell id="rqtoLYsZP0avv1NgUhm5-61" style="edgeStyle=orthogonalEdgeStyle;rounded=0;orthogonalLoop=1;jettySize=auto;html=1;exitX=1;exitY=0.5;exitDx=0;exitDy=0;entryX=0.007;entryY=0.994;entryDx=0;entryDy=0;entryPerimeter=0;endArrow=none;endFill=0;startArrow=classic;startFill=1;" edge="1" parent="1" source="rqtoLYsZP0avv1NgUhm5-53" target="rqtoLYsZP0avv1NgUhm5-12">
          <mxGeometry relative="1" as="geometry">
            <Array as="points">
              <mxPoint x="3268" y="6818" />
              <mxPoint x="3268" y="6856" />
            </Array>
          </mxGeometry>
        </mxCell>
        <mxCell id="rqtoLYsZP0avv1NgUhm5-62" value="Serverless VPC" style="sketch=0;points=[[0,0,0],[0.25,0,0],[0.5,0,0],[0.75,0,0],[1,0,0],[1,0.25,0],[1,0.5,0],[1,0.75,0],[1,1,0],[0.75,1,0],[0.5,1,0],[0.25,1,0],[0,1,0],[0,0.75,0],[0,0.5,0],[0,0.25,0]];rounded=1;absoluteArcSize=1;arcSize=2;html=1;strokeColor=none;gradientColor=none;shadow=0;dashed=0;fontSize=12;fontColor=#9E9E9E;align=left;verticalAlign=top;spacing=10;spacingTop=-4;whiteSpace=wrap;fillColor=#FFEBEE;" vertex="1" parent="1">
          <mxGeometry x="3821" y="6468" width="315" height="152" as="geometry" />
        </mxCell>
        <mxCell id="rqtoLYsZP0avv1NgUhm5-63" value="" style="group" vertex="1" connectable="0" parent="1">
          <mxGeometry x="3968" y="6494" width="150.6722689075632" height="110" as="geometry" />
        </mxCell>
        <mxCell id="rqtoLYsZP0avv1NgUhm5-64" value="&lt;div&gt;&lt;span style=&quot;font-size: 11px;&quot;&gt;Serverless VPC&amp;nbsp;&lt;/span&gt;&lt;/div&gt;&lt;div&gt;&lt;span style=&quot;font-size: 11px;&quot;&gt;Access&amp;nbsp;&lt;/span&gt;&lt;span style=&quot;background-color: initial;&quot;&gt;Connector&lt;/span&gt;&lt;/div&gt;" style="sketch=0;html=1;verticalAlign=top;labelPosition=center;verticalLabelPosition=bottom;align=center;spacingTop=-6;fontSize=11;fontStyle=1;fontColor=#999999;shape=image;aspect=fixed;imageAspect=0;image=data:image/svg+xml,PHN2ZyB4bWxucz0iaHR0cDovL3d3dy53My5vcmcvMjAwMC9zdmciIHhtbG5zOnY9Imh0dHBzOi8vdmVjdGEuaW8vbmFubyIgd2lkdGg9IjIwIiBoZWlnaHQ9IjIwIiB2aWV3Qm94PSIwIDAgMjAgMjAiPiYjeGE7CTxzdHlsZSB0eXBlPSJ0ZXh0L2NzcyI+JiN4YTsJLnN0MHtmaWxsOiM0Mjg1ZjQ7fSYjeGE7CS5zdDF7ZmlsbDojNjY5ZGY2O30mI3hhOwkuc3Qye2ZpbGw6I2FlY2JmYTt9JiN4YTsJPC9zdHlsZT4mI3hhOwk8cGF0aCBjbGFzcz0ic3QyIiBkPSJNMTQgMGg2djZoLTZ6Ii8+JiN4YTsJPHBhdGggY2xhc3M9InN0MSIgZD0iTTE3IDBoM3Y2aC0zeiIvPiYjeGE7CTxwYXRoIGNsYXNzPSJzdDIiIGQ9Ik0xNCAxNGg2djZoLTZ6Ii8+JiN4YTsJPHBhdGggY2xhc3M9InN0MSIgZD0iTTE3IDE0aDN2NmgtM3oiLz4mI3hhOwk8cGF0aCBjbGFzcz0ic3QyIiBkPSJNMCAwaDZ2NkgweiIvPiYjeGE7CTxwYXRoIGNsYXNzPSJzdDEiIGQ9Ik0zIDBoM3Y2SDN6Ii8+JiN4YTsJPHBhdGggY2xhc3M9InN0MiIgZD0iTTAgMTRoNnY2SDB6Ii8+JiN4YTsJPGcgY2xhc3M9InN0MSI+JiN4YTsJCTxwYXRoIGQ9Ik0zIDE0aDN2Nkgzek02IDJoOHYySDZ6Ii8+JiN4YTsJCTxwYXRoIGQ9Ik02IDE2aDh2Mkg2ek0xNiA2aDJ2OGgtMnpNMiA2aDJ2OEgyeiIvPiYjeGE7CTwvZz4mI3hhOwk8cGF0aCBjbGFzcz0ic3QwIiBkPSJNMiA2aDJ2Mkgyem0xNCAwaDJ2MmgtMnpNNiAyaDJ2Mkg2em0wIDE0aDJ2Mkg2eiIvPiYjeGE7PC9zdmc+;container=0;" vertex="1" parent="rqtoLYsZP0avv1NgUhm5-63">
          <mxGeometry x="60.04923076923069" y="39.70615384615303" width="30.579606440071558" height="30.579606440071558" as="geometry" />
        </mxCell>
        <mxCell id="rqtoLYsZP0avv1NgUhm5-65" value="Serverless VPC Access" style="rounded=0;arcSize=10;dashed=1;fillColor=none;gradientColor=none;strokeWidth=1;fontColor=#FFFFFF;labelPosition=left;verticalLabelPosition=top;align=right;verticalAlign=bottom;spacingLeft=0;spacing=0;spacingRight=-70;spacingTop=0;spacingBottom=-25;labelBackgroundColor=#858B94;fontFamily=Helvetica;container=0;" vertex="1" parent="rqtoLYsZP0avv1NgUhm5-63">
          <mxGeometry width="150.67226890756302" height="110.00000000000001" as="geometry" />
        </mxCell>
        <mxCell id="rqtoLYsZP0avv1NgUhm5-66" style="edgeStyle=orthogonalEdgeStyle;rounded=0;orthogonalLoop=1;jettySize=auto;html=1;exitX=0.5;exitY=1;exitDx=0;exitDy=0;" edge="1" parent="rqtoLYsZP0avv1NgUhm5-63" source="rqtoLYsZP0avv1NgUhm5-64" target="rqtoLYsZP0avv1NgUhm5-64">
          <mxGeometry relative="1" as="geometry" />
        </mxCell>
        <mxCell id="rqtoLYsZP0avv1NgUhm5-67" style="edgeStyle=orthogonalEdgeStyle;rounded=0;orthogonalLoop=1;jettySize=auto;html=1;exitX=1;exitY=0.5;exitDx=0;exitDy=0;exitPerimeter=0;entryX=0;entryY=0.641;entryDx=0;entryDy=0;entryPerimeter=0;startArrow=classic;startFill=1;" edge="1" parent="1" source="rqtoLYsZP0avv1NgUhm5-56" target="rqtoLYsZP0avv1NgUhm5-12">
          <mxGeometry relative="1" as="geometry" />
        </mxCell>
        <mxCell id="rqtoLYsZP0avv1NgUhm5-68" style="edgeStyle=orthogonalEdgeStyle;rounded=0;orthogonalLoop=1;jettySize=auto;html=1;exitX=1;exitY=0.25;exitDx=0;exitDy=0;exitPerimeter=0;entryX=0;entryY=0.75;entryDx=0;entryDy=0;entryPerimeter=0;startArrow=classic;startFill=1;" edge="1" parent="1" source="rqtoLYsZP0avv1NgUhm5-56" target="rqtoLYsZP0avv1NgUhm5-62">
          <mxGeometry relative="1" as="geometry">
            <Array as="points">
              <mxPoint x="3804" y="6751" />
              <mxPoint x="3804" y="6582" />
            </Array>
          </mxGeometry>
        </mxCell>
        <mxCell id="rqtoLYsZP0avv1NgUhm5-69" style="edgeStyle=orthogonalEdgeStyle;rounded=0;orthogonalLoop=1;jettySize=auto;html=1;exitX=0;exitY=0.5;exitDx=0;exitDy=0;exitPerimeter=0;entryX=0.996;entryY=0.306;entryDx=0;entryDy=0;entryPerimeter=0;startArrow=classic;startFill=1;" edge="1" parent="1" source="rqtoLYsZP0avv1NgUhm5-62" target="rqtoLYsZP0avv1NgUhm5-28">
          <mxGeometry relative="1" as="geometry" />
        </mxCell>
        <mxCell id="rqtoLYsZP0avv1NgUhm5-70" style="edgeStyle=orthogonalEdgeStyle;rounded=0;orthogonalLoop=1;jettySize=auto;html=1;exitX=1;exitY=0.918;exitDx=0;exitDy=0;exitPerimeter=0;entryX=-0.001;entryY=0.225;entryDx=0;entryDy=0;entryPerimeter=0;jumpStyle=arc;startArrow=classic;startFill=1;" edge="1" parent="1" source="rqtoLYsZP0avv1NgUhm5-28" target="rqtoLYsZP0avv1NgUhm5-12">
          <mxGeometry relative="1" as="geometry" />
        </mxCell>
        <mxCell id="rqtoLYsZP0avv1NgUhm5-71" value="" style="group" vertex="1" connectable="0" parent="1">
          <mxGeometry x="3576" y="6163" width="151" height="204" as="geometry" />
        </mxCell>
        <mxCell id="rqtoLYsZP0avv1NgUhm5-72" value="NAT" style="sketch=0;points=[[0,0,0],[0.25,0,0],[0.5,0,0],[0.75,0,0],[1,0,0],[1,0.25,0],[1,0.5,0],[1,0.75,0],[1,1,0],[0.75,1,0],[0.5,1,0],[0.25,1,0],[0,1,0],[0,0.75,0],[0,0.5,0],[0,0.25,0]];rounded=1;absoluteArcSize=1;arcSize=2;html=1;strokeColor=none;gradientColor=none;shadow=0;dashed=0;fontSize=12;fontColor=#9E9E9E;align=left;verticalAlign=top;spacing=10;spacingTop=-4;whiteSpace=wrap;fillColor=#F1F8E9;" vertex="1" parent="rqtoLYsZP0avv1NgUhm5-71">
          <mxGeometry width="151" height="203.9999999999998" as="geometry" />
        </mxCell>
        <mxCell id="rqtoLYsZP0avv1NgUhm5-73" value="" style="group" vertex="1" connectable="0" parent="rqtoLYsZP0avv1NgUhm5-71">
          <mxGeometry x="14.467065868263473" y="49.01026694045284" width="117.54491017964072" height="136.1396303901436" as="geometry" />
        </mxCell>
        <mxCell id="rqtoLYsZP0avv1NgUhm5-74" value="Cloud Nat" style="rounded=0;arcSize=10;dashed=1;fillColor=none;gradientColor=none;strokeWidth=1;fontColor=#FFFFFF;labelPosition=left;verticalLabelPosition=top;align=right;verticalAlign=bottom;spacingLeft=0;spacing=0;spacingRight=-70;spacingTop=0;spacingBottom=-25;labelBackgroundColor=#858B94;fontFamily=Helvetica;" vertex="1" parent="rqtoLYsZP0avv1NgUhm5-73">
          <mxGeometry y="-1.0472279260780277" width="117.54491017964072" height="136.1396303901436" as="geometry" />
        </mxCell>
        <mxCell id="rqtoLYsZP0avv1NgUhm5-75" value="Cloud&#xa;NAT" style="sketch=0;html=1;verticalAlign=top;labelPosition=center;verticalLabelPosition=bottom;align=center;spacingTop=-6;fontSize=11;fontStyle=1;fontColor=#999999;shape=image;aspect=fixed;imageAspect=0;image=data:image/svg+xml,PHN2ZyB4bWxuczppbmtzY2FwZT0iaHR0cDovL3d3dy5pbmtzY2FwZS5vcmcvbmFtZXNwYWNlcy9pbmtzY2FwZSIgeG1sbnM6c29kaXBvZGk9Imh0dHA6Ly9zb2RpcG9kaS5zb3VyY2Vmb3JnZS5uZXQvRFREL3NvZGlwb2RpLTAuZHRkIiB4bWxucz0iaHR0cDovL3d3dy53My5vcmcvMjAwMC9zdmciIHhtbG5zOnN2Zz0iaHR0cDovL3d3dy53My5vcmcvMjAwMC9zdmciIHdpZHRoPSI5OS45OTczMDIyMDQ4OTI5NiIgaGVpZ2h0PSI5Ny44ODA4NTM5MDQyOTYzMyIgdmlld0JveD0iLTAuMDQ1Nzc2MzY3MTg3NSAxLjA4Nzc4ODU4MTg0ODE0NDUgOTkuOTk3Mjk5MTk0MzM1OTQgOTcuODgwODQ0MTE2MjEwOTQiIHZlcnNpb249IjEuMSIgaWQ9InN2ZzUiIGlua3NjYXBlOnZlcnNpb249IjEuMSAoYzY4ZTIyYzM4NywgMjAyMS0wNS0yMykiIHNvZGlwb2RpOmRvY25hbWU9ImNsb3VkX25hdC5zdmciPiYjeGE7ICA8c29kaXBvZGk6bmFtZWR2aWV3IGlkPSJuYW1lZHZpZXc3IiBwYWdlY29sb3I9IiNmZmZmZmYiIGJvcmRlcmNvbG9yPSIjNjY2NjY2IiBib3JkZXJvcGFjaXR5PSIxLjAiIGlua3NjYXBlOnBhZ2VzaGFkb3c9IjIiIGlua3NjYXBlOnBhZ2VvcGFjaXR5PSIwLjAiIGlua3NjYXBlOnBhZ2VjaGVja2VyYm9hcmQ9IjAiIGlua3NjYXBlOmRvY3VtZW50LXVuaXRzPSJtbSIgc2hvd2dyaWQ9ImZhbHNlIiBpbmtzY2FwZTp6b29tPSIwLjU3OTMzNzQ0IiBpbmtzY2FwZTpjeD0iLTQyLjI4OTY4OSIgaW5rc2NhcGU6Y3k9IjI1NC42MDExOSIgaW5rc2NhcGU6d2luZG93LXdpZHRoPSIxOTIwIiBpbmtzY2FwZTp3aW5kb3ctaGVpZ2h0PSIxMDE3IiBpbmtzY2FwZTp3aW5kb3cteD0iLTgiIGlua3NjYXBlOndpbmRvdy15PSItOCIgaW5rc2NhcGU6d2luZG93LW1heGltaXplZD0iMSIgaW5rc2NhcGU6Y3VycmVudC1sYXllcj0ibGF5ZXIxIiBmaXQtbWFyZ2luLXRvcD0iMCIgZml0LW1hcmdpbi1sZWZ0PSIwIiBmaXQtbWFyZ2luLXJpZ2h0PSIwIiBmaXQtbWFyZ2luLWJvdHRvbT0iMCIvPiYjeGE7ICA8ZGVmcyBpZD0iZGVmczIiLz4mI3hhOyAgPGcgaW5rc2NhcGU6bGFiZWw9IkxheWVyIDEiIGlua3NjYXBlOmdyb3VwbW9kZT0ibGF5ZXIiIGlkPSJsYXllcjEiIHRyYW5zZm9ybT0idHJhbnNsYXRlKDI1OC42MTk3NSwxNi42Njc3MTUpIj4mI3hhOyAgICA8cGF0aCBpZD0icGF0aDE3MzYyIiBzdHlsZT0ib3BhY2l0eToxO2ZpbGw6IzQyODVmNDtmaWxsLW9wYWNpdHk6MTtzdHJva2U6bm9uZTtzdHJva2Utd2lkdGg6MC45OTk5OTlweDtzdHJva2UtbGluZWNhcDpidXR0O3N0cm9rZS1saW5lam9pbjptaXRlcjtzdHJva2Utb3BhY2l0eToxIiBkPSJNIDE0MS40MTc5Nyw0LjExMTMyODEgMTI0LjQwMjM0LDI0LjM3NSBjIDU3Ljg5NTM3LDQ4LjYxNjQyNiA4My40MTQwNyw5Ni4wNjQ2NyA4My40MTQwNywxNjMuOTQzMzYgMCw3Mi4zMTIyOCAtMzYuMTA3MzEsMTI0LjgyOTc3IC04Mi4wMTk1MywxNjYuMDQ4ODMgbCAxNy42Nzk2OCwxOS42ODc1IGMgNDkuMjAyOTksLTQ0LjE3MzQyIDkwLjc5Njg4LC0xMDQuNDk4MzcgOTAuNzk2ODgsLTE4NS43MzYzMyAwLC03NC44ODE1MiAtMzEuMTU5NDEsLTEzMi4zOTkwMjIgLTkyLjg1NTQ3LC0xODQuMjA3MDMxOSB6IE0gOTYuNTU2NjQxLDc1Ljg4NDc2NiBWIDEwMi4zNDE4IEggMTY2LjQ4MzA1IEMgMTYyLjM5Mjc0LDk0LjU1NDQyIDE1OC40NTE0Myw4Ni44NDE1NDIgMTQ4LjAyMjMzLDc1Ljg4NDc2NiBaIE0gMzE3Ljc3OTMsMjAyLjMwNjY0IHYgMzIuMjkyOTcgbCA1OS45OTAyMywtNDUuNTE3NTggLTU5Ljk5MDIzLC00NS41MTc1OCB2IDMyLjI4NTE2IGggLTY0LjQ3NDYxIHYgMjYuNDU3MDMgeiBNIDUwLjA1ODU5NCwxNzUuODQ5NjEgdiAyNi40NTcwMyBIIDE4Ny4yODEyNSBjIDEuMTU3NDUsLTguMDQ3MzcgMS4yODIzMSwtMTYuNzgzMTUgMCwtMjYuNDU3MDMgeiBtIDQ3LjAzNzEwOSwxMDAuMDQ2ODcgdiAyNi40NTcwNCBoIDUwLjY4MjY3NyBjIDguMDE2NTcsLTguMDE0NjYgMTQuNDYxNjksLTE2LjgxNTA0IDE5LjIyMzU3LC0yNi40NTcwNCB6IiB0cmFuc2Zvcm09Im1hdHJpeCgwLjI2NDU4MzMzLDAsMCwwLjI2NDU4MzMzLC0yNTguNjE5NzUsLTE2LjY2NzcxNSkiIHNvZGlwb2RpOm5vZGV0eXBlcz0iY2NzY2NzY2NjY2NjY2NjY2NjY2NjY2NjY2NjY2NjIi8+JiN4YTsgICAgPHBhdGggaWQ9InBhdGgxNjI3MS03IiBzdHlsZT0iY29sb3I6IzAwMDAwMDtvcGFjaXR5OjE7ZmlsbDojNjY5ZGY2O3N0cm9rZS1saW5lam9pbjpyb3VuZDstaW5rc2NhcGUtc3Ryb2tlOm5vbmU7ZmlsbC1vcGFjaXR5OjEiIGQ9Im0gLTIzNy45NTQwOCw1MS45MDU2ODYgYyAtNC4zNDYzLDEwZS03IC03LjkyMzgyLDMuNTc3NTIxIC03LjkyMzgyLDcuOTIzODI4IDAsNC4zNDYzMDcgMy41Nzc1Miw3LjkyMzgyOCA3LjkyMzgyLDcuOTIzODI4IDQuMzQ2MzEsMCA3LjkyMzgzLC0zLjU3NzUyMSA3LjkyMzgzLC03LjkyMzgyOCAwLC00LjM0NjMwNyAtMy41Nzc1MiwtNy45MjM4MjcgLTcuOTIzODMsLTcuOTIzODI4IHogbSAwLDUgYyAxLjY0NDExLDAgMi45MjM4MywxLjI3OTcxOCAyLjkyMzgzLDIuOTIzODI4IDAsMS42NDQxMSAtMS4yNzk3MiwyLjkyMzgyOCAtMi45MjM4MywyLjkyMzgyOCAtMS42NDQxMSwwIC0yLjkyMzgyLC0xLjI3OTcxOCAtMi45MjM4MiwtMi45MjM4MjggMCwtMS42NDQxMSAxLjI3OTcxLC0yLjkyMzgyOCAyLjkyMzgyLC0yLjkyMzgyOCB6IG0gLTEyLjc4NzYxLC0zMS40ODg1OTMgYyAtNC4zNDYzLDEwZS03IC03LjkyMzgyLDMuNTc3NTIxIC03LjkyMzgyLDcuOTIzODI4IDAsNC4zNDYzMDcgMy41Nzc1Miw3LjkyMzgyOCA3LjkyMzgyLDcuOTIzODI4IDQuMzQ2MzEsMCA3LjkyMzgzLC0zLjU3NzUyMSA3LjkyMzgzLC03LjkyMzgyOCAwLC00LjM0NjMwNyAtMy41Nzc1MiwtNy45MjM4MjcgLTcuOTIzODMsLTcuOTIzODI4IHogbSAwLDUgYyAxLjY0NDExLDAgMi45MjM4MywxLjI3OTcxOCAyLjkyMzgzLDIuOTIzODI4IDAsMS42NDQxMSAtMS4yNzk3MiwyLjkyMzgyOCAtMi45MjM4MywyLjkyMzgyOCAtMS42NDQxMSwwIC0yLjkyMzgyLC0xLjI3OTcxOCAtMi45MjM4MiwtMi45MjM4MjggMCwtMS42NDQxMSAxLjI3OTcxLC0yLjkyMzgyOCAyLjkyMzgyLC0yLjkyMzgyOCB6IG0gMTIuNjE2NTIsLTMxLjQzMTQ5MjkgYyAtNC4zNDYzLDZlLTcgLTcuOTIzODIsMy41Nzc1MjA4IC03LjkyMzgyLDcuOTIzODI4MSAwLDQuMzQ2MzA2OCAzLjU3NzUyLDcuOTIzODI3OCA3LjkyMzgyLDcuOTIzODI3OCA0LjM0NjMxLDAgNy45MjM4MywtMy41Nzc1MjEgNy45MjM4MywtNy45MjM4Mjc4IDAsLTQuMzQ2MzA3MyAtMy41Nzc1MiwtNy45MjM4Mjc1IC03LjkyMzgzLC03LjkyMzgyODEgeiBtIDAsNSBjIDEuNjQ0MTEsMmUtNyAyLjkyMzgzLDEuMjc5NzE4NCAyLjkyMzgzLDIuOTIzODI4MSAwLDEuNjQ0MTA5NiAtMS4yNzk3MiwyLjkyMzgyNzkgLTIuOTIzODMsMi45MjM4Mjc5IC0xLjY0NDExLDAgLTIuOTIzODIsLTEuMjc5NzE4MyAtMi45MjM4MiwtMi45MjM4Mjc5IDAsLTEuNjQ0MTA5NyAxLjI3OTcxLC0yLjkyMzgyNzkgMi45MjM4MiwtMi45MjM4MjgxIHoiLz4mI3hhOyAgPC9nPiYjeGE7PC9zdmc+;" vertex="1" parent="rqtoLYsZP0avv1NgUhm5-73">
          <mxGeometry x="39.78443113772455" y="45.03080082135424" width="37.97604790419162" height="37.97604790419162" as="geometry" />
        </mxCell>
        <mxCell id="rqtoLYsZP0avv1NgUhm5-76" style="edgeStyle=orthogonalEdgeStyle;rounded=0;orthogonalLoop=1;jettySize=auto;html=1;exitX=0.75;exitY=1;exitDx=0;exitDy=0;exitPerimeter=0;entryX=-0.007;entryY=0.831;entryDx=0;entryDy=0;entryPerimeter=0;startArrow=classic;startFill=1;" edge="1" parent="1" source="rqtoLYsZP0avv1NgUhm5-72" target="rqtoLYsZP0avv1NgUhm5-19">
          <mxGeometry relative="1" as="geometry" />
        </mxCell>
        <mxCell id="rqtoLYsZP0avv1NgUhm5-77" style="edgeStyle=orthogonalEdgeStyle;rounded=0;orthogonalLoop=1;jettySize=auto;html=1;exitX=0.943;exitY=1.001;exitDx=0;exitDy=0;exitPerimeter=0;entryX=-0.001;entryY=0.899;entryDx=0;entryDy=0;entryPerimeter=0;startArrow=classic;startFill=1;" edge="1" parent="1" source="rqtoLYsZP0avv1NgUhm5-1" target="rqtoLYsZP0avv1NgUhm5-19">
          <mxGeometry relative="1" as="geometry">
            <Array as="points">
              <mxPoint x="3548" y="6405" />
              <mxPoint x="3709" y="6405" />
            </Array>
          </mxGeometry>
        </mxCell>
        <mxCell id="rqtoLYsZP0avv1NgUhm5-78" style="edgeStyle=orthogonalEdgeStyle;rounded=0;orthogonalLoop=1;jettySize=auto;html=1;entryX=0.405;entryY=0.999;entryDx=0;entryDy=0;entryPerimeter=0;startArrow=classic;startFill=1;jumpStyle=arc;" edge="1" parent="1" target="rqtoLYsZP0avv1NgUhm5-19">
          <mxGeometry relative="1" as="geometry">
            <mxPoint x="3903" y="6468" as="sourcePoint" />
          </mxGeometry>
        </mxCell>
        <mxCell id="rqtoLYsZP0avv1NgUhm5-79" style="edgeStyle=orthogonalEdgeStyle;rounded=0;orthogonalLoop=1;jettySize=auto;html=1;entryX=0.113;entryY=-0.002;entryDx=0;entryDy=0;entryPerimeter=0;startArrow=classic;startFill=1;jumpStyle=arc;" edge="1" parent="1" target="rqtoLYsZP0avv1NgUhm5-62">
          <mxGeometry relative="1" as="geometry">
            <mxPoint x="3534" y="6367" as="sourcePoint" />
            <Array as="points">
              <mxPoint x="3534" y="6443" />
              <mxPoint x="3857" y="6443" />
            </Array>
          </mxGeometry>
        </mxCell>
        <mxCell id="rqtoLYsZP0avv1NgUhm5-80" style="edgeStyle=orthogonalEdgeStyle;rounded=0;orthogonalLoop=1;jettySize=auto;html=1;entryX=0.75;entryY=0;entryDx=0;entryDy=0;entryPerimeter=0;startArrow=classic;startFill=1;jumpStyle=arc;" edge="1" parent="1" target="rqtoLYsZP0avv1NgUhm5-12">
          <mxGeometry relative="1" as="geometry">
            <mxPoint x="4062" y="6431" as="sourcePoint" />
            <Array as="points">
              <mxPoint x="4062" y="6444" />
              <mxPoint x="4142" y="6444" />
              <mxPoint x="4142" y="6627" />
              <mxPoint x="4067" y="6627" />
            </Array>
          </mxGeometry>
        </mxCell>
        <mxCell id="rqtoLYsZP0avv1NgUhm5-81" style="edgeStyle=orthogonalEdgeStyle;rounded=0;orthogonalLoop=1;jettySize=auto;html=1;exitX=0.643;exitY=0;exitDx=0;exitDy=0;jumpStyle=arc;startArrow=classic;startFill=1;exitPerimeter=0;entryX=0;entryY=1;entryDx=0;entryDy=0;entryPerimeter=0;" edge="1" parent="1" source="rqtoLYsZP0avv1NgUhm5-44" target="rqtoLYsZP0avv1NgUhm5-19">
          <mxGeometry relative="1" as="geometry">
            <mxPoint x="3794" y="6434" as="targetPoint" />
            <Array as="points">
              <mxPoint x="3149" y="6433" />
            </Array>
          </mxGeometry>
        </mxCell>
        <mxCell id="rqtoLYsZP0avv1NgUhm5-82" value="" style="strokeColor=#dddddd;shadow=1;strokeWidth=1;rounded=1;absoluteArcSize=1;arcSize=2;" vertex="1" parent="1">
          <mxGeometry x="3046" y="6292" width="160" height="60" as="geometry" />
        </mxCell>
        <mxCell id="rqtoLYsZP0avv1NgUhm5-83" value="Speech-to-text" style="editableCssRules=.*;html=1;fontColor=#999999;shape=image;verticalLabelPosition=middle;verticalAlign=middle;labelPosition=right;align=left;spacingLeft=20;part=1;points=[];imageAspect=0;image=data:image/svg+xml,PHN2ZyB4bWxucz0iaHR0cDovL3d3dy53My5vcmcvMjAwMC9zdmciIHhtbG5zOnY9Imh0dHBzOi8vdmVjdGEuaW8vbmFubyIgd2lkdGg9IjE4IiBoZWlnaHQ9IjIwIiB2aWV3Qm94PSIwIDAgMTggMjAiPiYjeGE7CTxzdHlsZSB0eXBlPSJ0ZXh0L2NzcyI+JiN4YTsJLnN0MHtmaWxsOiM0Mjg1ZjQ7fSYjeGE7CS5zdDF7ZmlsbDojNjY5ZGY2O30mI3hhOwk8L3N0eWxlPiYjeGE7CTxwYXRoIGNsYXNzPSJzdDAiIGQ9Ik04IDBoMnYyMEg4ek00IDZoMnY4SDR6bTggMGgydjhoLTJ6TTAgM2gydjE0SDB6bTE2IDBoMnYxNGgtMnoiLz4mI3hhOwk8cGF0aCBjbGFzcz0ic3QxIiBkPSJNOCAwaDJ2MTBIOHpNNCA2aDJ2NEg0em04IDBoMnY0aC0yek0wIDNoMnY3SDB6bTE2IDBoMnY3aC0yeiIvPiYjeGE7PC9zdmc+;" vertex="1" parent="rqtoLYsZP0avv1NgUhm5-82">
          <mxGeometry width="27" height="30" relative="1" as="geometry">
            <mxPoint x="16" y="15" as="offset" />
          </mxGeometry>
        </mxCell>
        <mxCell id="rqtoLYsZP0avv1NgUhm5-84" style="edgeStyle=orthogonalEdgeStyle;rounded=0;orthogonalLoop=1;jettySize=auto;html=1;exitX=1;exitY=0.75;exitDx=0;exitDy=0;startArrow=classic;startFill=1;entryX=0.578;entryY=-0.001;entryDx=0;entryDy=0;entryPerimeter=0;jumpStyle=arc;" edge="1" parent="1" source="rqtoLYsZP0avv1NgUhm5-82" target="rqtoLYsZP0avv1NgUhm5-29">
          <mxGeometry relative="1" as="geometry">
            <mxPoint x="3451" y="6507" as="targetPoint" />
            <Array as="points">
              <mxPoint x="3221" y="6337" />
              <mxPoint x="3221" y="6416" />
              <mxPoint x="3432" y="6416" />
            </Array>
          </mxGeometry>
        </mxCell>
        <mxCell id="rqtoLYsZP0avv1NgUhm5-85" value="" style="group" vertex="1" connectable="0" parent="1">
          <mxGeometry x="3046" y="6222" width="160" height="60" as="geometry" />
        </mxCell>
        <mxCell id="rqtoLYsZP0avv1NgUhm5-86" value="SecretÂ &#xa;Â  Â Manager" style="strokeColor=#dddddd;shadow=1;strokeWidth=1;rounded=1;absoluteArcSize=1;arcSize=2;container=0;fontColor=#999999;fontStyle=1" vertex="1" parent="rqtoLYsZP0avv1NgUhm5-85">
          <mxGeometry width="160" height="60" as="geometry" />
        </mxCell>
        <mxCell id="rqtoLYsZP0avv1NgUhm5-87" value="" style="sketch=0;html=1;verticalAlign=top;labelPosition=center;verticalLabelPosition=bottom;align=center;spacingTop=-6;fontSize=11;fontStyle=1;fontColor=#999999;shape=image;aspect=fixed;imageAspect=0;image=data:image/svg+xml,PHN2ZyB4bWxucz0iaHR0cDovL3d3dy53My5vcmcvMjAwMC9zdmciIGlkPSJzdmc1MzkzNyIgdmVyc2lvbj0iMS4xIiB2aWV3Qm94PSIwIDAgMTc1LjE2MDYzIDEwNC4yNzczNSIgaGVpZ2h0PSIxMDQuMjc3MzVtbSIgd2lkdGg9IjE3NS4xNjA2M21tIj4mI3hhOyAgPHBhdGggZD0ibSAxMjguNTY5MSwzNC4xMTUyMzYgdiAxMi45Nzg1MTYgbCAtMTIuMzM3ODksLTQuMzgwODYgLTIuNTA5NzcsNy4wNjgzNiAxMi41NDEwMiw0LjQ1MzEyNSAtOC41NjA1NSwxMS40MzE2NCA2LjAwMTk2LDQuNDk2MDk0IDguNTk5NjEsLTExLjQ4MDQ2OSA4LjQ5NDE0LDExLjQ2NDg0NCA2LjAyNzM0LC00LjQ2NDg0NCAtOC40NzI2NiwtMTEuNDMzNTkzIDEyLjY0MDYzLC00LjQ2Njc5NyAtMi41LC03LjA3MDMxMyAtMTIuNDIzODMsNC4zOTA2MjUgViAzNC4xMTUyMzYgWiBtIC00NC43NzY4NzIsMCB2IDEyLjk3ODUxNiBsIC0xMi4zMzc4OTEsLTQuMzgwODYgLTIuNTA5NzY1LDcuMDY4MzYgMTIuNTQxMDE1LDQuNDUzMTI1IC04LjU2MDU0NywxMS40MzE2NCA2LjAwMTk1Myw0LjQ5NjA5NCA4LjU5OTYxLC0xMS40ODA0NjkgOC40OTQxNCwxMS40NjQ4NDQgNi4wMjczNDcsLTQuNDY0ODQ0IC04LjQ3MjY1OSwtMTEuNDMzNTkzIDEyLjY0MDYyOSwtNC40NjY3OTcgLTIuNSwtNy4wNzAzMTMgLTEyLjQyMzgzMiw0LjM5MDYyNSBWIDM0LjExNTIzNiBaIG0gLTQ0Ljc3Njg1LDAgdiAxMi45Nzg1MTYgbCAtMTIuMzM3ODkxLC00LjM4MDg2IC0yLjUwOTc2NSw3LjA2ODM2IDEyLjU0MTAxNSw0LjQ1MzEyNSAtOC41NjA1NDcsMTEuNDMxNjQgNi4wMDE5NTMsNC40OTYwOTQgOC41OTk2MSwtMTEuNDgwNDY5IDguNDk0MTQsMTEuNDY0ODQ0IDYuMDI3MzQ0LC00LjQ2NDg0NCAtOC40NzI2NTYsLTExLjQzMzU5MyAxMi42NDA2MjUsLTQuNDY2Nzk3IC0yLjUsLTcuMDcwMzEzIC0xMi40MjM4MjgsNC4zOTA2MjUgViAzNC4xMTUyMzYgWiBNIDE3NS4xNjA2NCwxMGUtNyBWIDEwNC4yNzczNCBoIC0zNy4yNzY4MiBjIC0xLjIwODU3LDAgLTIuMDAyNDgsLTAuNjIzNTQgLTIuMDAyNDgsLTEuODY2MzQgdiAtOS45MjcyMzggYyAwLC0xLjE0ODI1IDAuNzE1OTYsLTEuNzA2NDIgMi4wMDI0OCwtMS43MDY0MiBoIDIzLjc3NjgyIFYgMTMuNSBoIC0yMy45NDQ5OCBjIC0xLjQwODU1LDAgLTEuOTUxNTEsLTAuNzUyMzE3IC0xLjk1MTUxLC0yLjA3NDQ4MiBWIDEuODQyNzI2IGMgMCwtMS4yNjU5NzEgMC42OTgwOCwtMS44NDI3MjUgMS45NTE1MSwtMS44NDI3MjUgeiBNIDAsMCB2IDEwNC4yNzczNSBoIDM3LjI3NjgxNCBjIDEuMjA4NTcxLDAgMi4wMDI0ODMsLTAuNjIzNTQgMi4wMDI0ODMsLTEuODY2MzQgdiAtOS45MjcyMzggYyAwLC0xLjE0ODI1IC0wLjcxNTk1NywtMS43MDY0MiAtMi4wMDI0ODMsLTEuNzA2NDIgSCAxMy41IFYgMTMuNDk5OTk5IGggMjMuOTQ0OTczIGMgMS40MDg1NTIsMCAxLjk1MTUxMSwtMC43NTIzMTcgMS45NTE1MTEsLTIuMDc0NDgyIFYgMS44NDI3MjUgQyAzOS4zOTY0ODQsMC41NzY3NTQgMzguNjk4NDEsMCAzNy40NDQ5NzMsMCBaIiBzdHlsZT0iY29sb3I6IzAwMDAwMDtvcGFjaXR5OjE7ZmlsbDojNDI4NWY0O2ZpbGwtb3BhY2l0eToxOy1pbmtzY2FwZS1zdHJva2U6bm9uZSIvPiYjeGE7PC9zdmc+;" vertex="1" parent="rqtoLYsZP0avv1NgUhm5-85">
          <mxGeometry x="10" y="20.5" width="31.92" height="19" as="geometry" />
        </mxCell>
        <mxCell id="rqtoLYsZP0avv1NgUhm5-88" style="edgeStyle=orthogonalEdgeStyle;rounded=0;orthogonalLoop=1;jettySize=auto;html=1;exitX=1;exitY=0.75;exitDx=0;exitDy=0;entryX=0.64;entryY=0.002;entryDx=0;entryDy=0;entryPerimeter=0;jumpStyle=arc;startArrow=classic;startFill=1;" edge="1" parent="1" source="rqtoLYsZP0avv1NgUhm5-86" target="rqtoLYsZP0avv1NgUhm5-29">
          <mxGeometry relative="1" as="geometry">
            <mxPoint x="3446" y="6507" as="targetPoint" />
            <Array as="points">
              <mxPoint x="3231" y="6267" />
              <mxPoint x="3231" y="6403" />
              <mxPoint x="3446" y="6403" />
            </Array>
          </mxGeometry>
        </mxCell>
        <mxCell id="rqtoLYsZP0avv1NgUhm5-89" value="" style="group" vertex="1" connectable="0" parent="1">
          <mxGeometry x="3046" y="6152" width="160" height="60" as="geometry" />
        </mxCell>
        <mxCell id="rqtoLYsZP0avv1NgUhm5-90" value="Cloud&#xa;Â  Â  Â  Â Scheduler" style="strokeColor=#dddddd;shadow=1;strokeWidth=1;rounded=1;absoluteArcSize=1;arcSize=2;container=0;fontColor=#999999;fontStyle=1" vertex="1" parent="rqtoLYsZP0avv1NgUhm5-89">
          <mxGeometry width="160" height="60" as="geometry" />
        </mxCell>
        <mxCell id="rqtoLYsZP0avv1NgUhm5-91" value="" style="sketch=0;html=1;verticalAlign=top;labelPosition=center;verticalLabelPosition=bottom;align=center;spacingTop=-6;fontSize=11;fontStyle=1;fontColor=#999999;shape=image;aspect=fixed;imageAspect=0;image=data:image/svg+xml,PHN2ZyB4bWxucz0iaHR0cDovL3d3dy53My5vcmcvMjAwMC9zdmciIHhtbG5zOnY9Imh0dHBzOi8vdmVjdGEuaW8vbmFubyIgd2lkdGg9IjM2MC4zMDM3NjY4NjA4MzYzIiBoZWlnaHQ9IjM3OC4wNTExNTgwNzc0MDg4IiB2aWV3Qm94PSItMC4wMDAxNjI0MjExNDM2MTM3NTU3IC0wLjAwMDEwMDAwNTk0OTIwNzExNTkyIDk1LjMzMDI2MTIzMDQ2ODc1IDEwMC4wMjYxMDAxNTg2OTE0Ij4mI3hhOzxzdHlsZSB0eXBlPSJ0ZXh0L2NzcyI+JiN4YTsJLnN0MHtmaWxsOiM0Mjg1ZjQ7fSYjeGE7CS5zdDF7ZmlsbDojYWVjYmZhO30mI3hhOwkuc3Qye2ZpbGw6IzY2OWRmNjt9JiN4YTs8L3N0eWxlPiYjeGE7CTxwYXRoIGNsYXNzPSJzdDAiIGQ9Ik03OS45NzEgNzcuNzE1bC03LjM1OSA3LjQ4OCA4LjYzOSA4LjQ5IDcuMzU5LTcuNDg4em0tNjUuMDk2LjA2MWwtOC42NDEgOC40OTIgNy4zNjEgNy40ODggOC42MzktOC40OXoiLz4mI3hhOwk8cGF0aCBjbGFzcz0ic3QxIiBkPSJNNzkuNTUzLjIyMWE1LjI1IDUuMjUgMCAwIDAtMy42NiA4Ljk4NEw4Ni4zODkgMTkuNThhNS4yNSA1LjI1IDAgMCAwIDguOTQxLTMuNzY1IDUuMjUgNS4yNSAwIDAgMC0xLjU2LTMuNzA0TDgzLjI3NSAxLjczOEE1LjI1IDUuMjUgMCAwIDAgNzkuNTUzLjIyMXpNMTUuOTE2IDBhNS4yNSA1LjI1IDAgMCAwLTMuNzIzIDEuNTE2TDEuNjk5IDExLjg5MWE1LjI1IDUuMjUgMCAwIDAtLjA0MyA3LjQyNCA1LjI1IDUuMjUgMCAwIDAgNy40MjQuMDQzTDE5LjU3NiA4Ljk4MkE1LjI1IDUuMjUgMCAwIDAgMTUuOTE2IDB6Ii8+JiN4YTsJPHBhdGggY2xhc3M9InN0MCIgZD0iTTQ4LjEzOCAyNi4yNGMxMy4zNDcgMCAyNS40MzIgMTEuMTM2IDI1LjMxIDI2LjQ4MSAwIDE1LjExLTEyLjI2NyAyNS42NzMtMjUuMTg5IDI1LjY3My0xMS4xNDkgMC0xOC4zMTctNS4xNzEtMjEuOTYtMTAuNzM4bDIxLjgzOS0xNS4wOTd6Ii8+JiN4YTsJPHBhdGggY2xhc3M9InN0MiIgZD0iTTgxLjI1IDkzLjY5M2w0LjY2NCA0LjU4NmE1LjI1IDUuMjUgMCAxIDAgNy4zNjEtNy40OWwtNC42NjYtNC41ODR6TTYuMjM0IDg2LjI2OEwxLjU3IDkwLjg1MWE1LjI1IDUuMjUgMCAwIDAtLjA2NSA3LjQyNCA1LjI1IDUuMjUgMCAwIDAgNy40MjQuMDY0bDQuNjY2LTQuNTg0ek00Ny4zNzEgNS41NzhDMjEuMzQ5IDUuNTc4LjE0NiAyNi43NzkuMTQ2IDUyLjgwMXMyMS4yMDMgNDcuMjI1IDQ3LjIyNSA0Ny4yMjUgNDcuMjI1LTIxLjIwMyA0Ny4yMjUtNDcuMjI1UzczLjM5MyA1LjU3OCA0Ny4zNzEgNS41Nzh6bTAgMTBhMzcuMTUgMzcuMTUgMCAwIDEgMzcuMjI1IDM3LjIyM2MwIDIwLjYxNy0xNi42MDcgMzcuMjI1LTM3LjIyNSAzNy4yMjVTMTAuMTQ2IDczLjQxOCAxMC4xNDYgNTIuODAxYTM3LjE1IDM3LjE1IDAgMCAxIDM3LjIyNS0zNy4yMjN6Ii8+JiN4YTs8L3N2Zz4=;" vertex="1" parent="rqtoLYsZP0avv1NgUhm5-89">
          <mxGeometry x="10" y="17" width="24.76" height="26" as="geometry" />
        </mxCell>
        <mxCell id="rqtoLYsZP0avv1NgUhm5-92" style="edgeStyle=orthogonalEdgeStyle;rounded=0;orthogonalLoop=1;jettySize=auto;html=1;exitX=1;exitY=0.75;exitDx=0;exitDy=0;entryX=0.352;entryY=0.007;entryDx=0;entryDy=0;entryPerimeter=0;jumpStyle=arc;startArrow=classic;startFill=1;" edge="1" parent="1" source="rqtoLYsZP0avv1NgUhm5-90" target="rqtoLYsZP0avv1NgUhm5-28">
          <mxGeometry relative="1" as="geometry">
            <Array as="points">
              <mxPoint x="3240" y="6197" />
              <mxPoint x="3240" y="6384" />
              <mxPoint x="3462" y="6384" />
            </Array>
          </mxGeometry>
        </mxCell>
        <mxCell id="rqtoLYsZP0avv1NgUhm5-93" value="" style="strokeColor=#dddddd;shadow=1;strokeWidth=1;rounded=1;absoluteArcSize=1;arcSize=2;" vertex="1" parent="1">
          <mxGeometry x="3046" y="6038" width="160" height="60" as="geometry" />
        </mxCell>
        <mxCell id="rqtoLYsZP0avv1NgUhm5-94" value="Artifact&#xa;Registry" style="editableCssRules=.*;html=1;fontColor=#999999;shape=image;verticalLabelPosition=middle;verticalAlign=middle;labelPosition=right;align=left;spacingLeft=20;part=1;points=[];imageAspect=0;image=data:image/svg+xml,PHN2ZyB4bWxucz0iaHR0cDovL3d3dy53My5vcmcvMjAwMC9zdmciIHhtbG5zOnY9Imh0dHBzOi8vdmVjdGEuaW8vbmFubyIgd2lkdGg9IjIxLjk5OTAwMDU0OTMxNjQwNiIgaGVpZ2h0PSIyMC4zOTM5OTkwOTk3MzE0NDUiIHZpZXdCb3g9IjAgMCAyMS45OTkwMDA1NDkzMTY0MDYgMjAuMzkzOTk5MDk5NzMxNDQ1Ij4mI3hhOwk8c3R5bGUgdHlwZT0idGV4dC9jc3MiPiYjeGE7CS5zdDB7ZmlsbDojNDI4NWY0O2ZpbGwtcnVsZTpldmVub2RkfSYjeGE7CTwvc3R5bGU+JiN4YTsJPHBhdGggY2xhc3M9InN0MCIgZD0iTTUgMHYyLjQ1OEwxLjk5OSA0LjE5N3YxMi4wMUw1IDE3LjkzOHYyLjQ1NmwtNS0yLjg4N1YyLjg4NnptMTIgMGw0Ljk5OSAyLjg4NnYxNC42MjFMMTcgMjAuMzk0di0yLjQ1NmwzLTEuNzMxVjQuMTk3bC0zLTEuNzM5em0tNi4wMTYgNi42NzNsMi45NDctMS42NDYtMi45NDctMS42NDYtMi45NDcgMS42NDZ6bTMuMjY4LTEuMDk2bC0yLjg3MSAxLjY3OHYzLjI4N2wyLjg3MS0xLjY3NnpNNy43NzMgOC44NjZsMi44NzEgMS42NzRWNy4yNTZMNy43NzMgNS41Nzd6bS0uMjEyIDMuODc4bDIuODItMS42NDYtMi44Mi0xLjY0Ni0yLjgyIDEuNjQ2em0zLjEzMi0xLjA5OGwtMi44NzEgMS42Nzh2My4yODdsMi44NzEtMS42NzZ6bS02LjI2NCAzLjI4OUw3LjMgMTYuNjA5di0zLjI4NWwtMi44NzEtMS42Nzl6bTEwLjAyOS0yLjE5MWwyLjgyLTEuNjQ2LTIuODItMS42NDYtMi44MiAxLjY0NnptMy4xMzItMS4wOThsLTIuODcxIDEuNjc4djMuMjg3bDIuODcxLTEuNjc2em0tNi4yNjQgMy4yODlsMi44NzEgMS42NzR2LTMuMjg1bC0yLjg3MS0xLjY3OXoiLz4mI3hhOzwvc3ZnPg==;" vertex="1" parent="rqtoLYsZP0avv1NgUhm5-93">
          <mxGeometry width="30" height="27" relative="1" as="geometry">
            <mxPoint x="15" y="16" as="offset" />
          </mxGeometry>
        </mxCell>
        <mxCell id="rqtoLYsZP0avv1NgUhm5-95" value="" style="strokeColor=#dddddd;shadow=1;strokeWidth=1;rounded=1;absoluteArcSize=1;arcSize=2;" vertex="1" parent="1">
          <mxGeometry x="3216" y="6038" width="160" height="60" as="geometry" />
        </mxCell>
        <mxCell id="rqtoLYsZP0avv1NgUhm5-96" value="Logging" style="editableCssRules=.*;html=1;fontColor=#999999;shape=image;verticalLabelPosition=middle;verticalAlign=middle;labelPosition=right;align=left;spacingLeft=20;part=1;points=[];imageAspect=0;image=data:image/svg+xml,PHN2ZyB4bWxucz0iaHR0cDovL3d3dy53My5vcmcvMjAwMC9zdmciIHhtbG5zOnY9Imh0dHBzOi8vdmVjdGEuaW8vbmFubyIgd2lkdGg9IjIwIiBoZWlnaHQ9IjE5IiB2aWV3Qm94PSIwIDAgMjAgMTkiPiYjeGE7CTxzdHlsZSB0eXBlPSJ0ZXh0L2NzcyI+JiN4YTsJLnN0MHtmaWxsOiM0Mjg1ZjQ7fSYjeGE7CS5zdDF7ZmlsbDojNjY5ZGY2O30mI3hhOwkuc3Qye2ZpbGw6I2FlY2JmYTt9JiN4YTsJPC9zdHlsZT4mI3hhOwk8ZyBjbGFzcz0ic3QwIj4mI3hhOwkJPHBhdGggZD0iTTQgOWg0djJINHptLTIgN2g2djJIMnoiLz4mI3hhOwkJPHBhdGggZD0iTTQgNEgydjEyaDJ6Ii8+JiN4YTsJPC9nPiYjeGE7CTxwYXRoIGNsYXNzPSJzdDEiIGQ9Ik0yMCAxSDd2NGgxM3ptMCA3SDd2NGgxM3ptMCA3SDd2NGgxM3oiLz4mI3hhOwk8cGF0aCBjbGFzcz0ic3QyIiBkPSJNNiAwSDB2Nmg2eiIvPiYjeGE7PC9zdmc+;" vertex="1" parent="rqtoLYsZP0avv1NgUhm5-95">
          <mxGeometry width="30" height="28" relative="1" as="geometry">
            <mxPoint x="15" y="16" as="offset" />
          </mxGeometry>
        </mxCell>
        <mxCell id="rqtoLYsZP0avv1NgUhm5-97" value="" style="strokeColor=#dddddd;shadow=1;strokeWidth=1;rounded=1;absoluteArcSize=1;arcSize=2;" vertex="1" parent="1">
          <mxGeometry x="3385" y="6038" width="160" height="60" as="geometry" />
        </mxCell>
        <mxCell id="rqtoLYsZP0avv1NgUhm5-98" value="Monitoring" style="editableCssRules=.*;html=1;fontColor=#999999;shape=image;verticalLabelPosition=middle;verticalAlign=middle;labelPosition=right;align=left;spacingLeft=20;part=1;points=[];imageAspect=0;image=data:image/svg+xml,PHN2ZyB4bWxucz0iaHR0cDovL3d3dy53My5vcmcvMjAwMC9zdmciIHhtbG5zOnY9Imh0dHBzOi8vdmVjdGEuaW8vbmFubyIgd2lkdGg9IjIwIiBoZWlnaHQ9IjEzLjUyOTk5OTczMjk3MTE5MSIgdmlld0JveD0iLTIuOTMyMDk3ODk3ODEyMDE0ZS05IC01LjI1ODAxNTA0MTgzNzk1NmUtMTUgMjAgMTMuNTI5OTk5NzMyOTcxMTkxIj4mI3hhOwk8c3R5bGUgdHlwZT0idGV4dC9jc3MiPiYjeGE7CS5zdDB7ZmlsbDojNDI4NWY0O30mI3hhOwkuc3Qxe2ZpbGw6IzY2OWRmNjt9JiN4YTsJPC9zdHlsZT4mI3hhOwk8cGF0aCBjbGFzcz0ic3QxIiBkPSJNOC44MyAxMC41OGgyLjMzdjIuNjRIOC44M3oiLz4mI3hhOwk8cGF0aCBjbGFzcz0ic3QwIiBkPSJNMTYuNDggOC42MWEuNTYuNTYgMCAwIDEtLjQtLjE3TDEyIDQuMjEgOS4yNiA3LjFhLjU3LjU3IDAgMCAxLS43Ni4wNUw2LjQyIDUuNDdsLTIuMiAyLjkyYS41Ni41NiAwIDAgMS0uNDUuMjJIMHYxLjcxYS43NS43NSAwIDAgMCAuNzQuNzVoMTguNTJhLjc1Ljc1IDAgMCAwIC43NC0uNzVWOC42MXoiLz4mI3hhOwk8cGF0aCBjbGFzcz0ic3QxIiBkPSJNMy41IDcuNWwyLjM4LTMuMTZhLjU1LjU1IDAgMCAxIC4zNy0uMjIuNjMuNjMgMCAwIDEgLjQyLjEybDIuMTIgMS43MiAyLjgtMi45NGEuNTQuNTQgMCAwIDEgLjQtLjE3aDBhLjU0LjU0IDAgMCAxIC40LjE3bDQuMzMgNC40OEgyMFYuNzRhLjc0Ljc0IDAgMCAwLS43NC0uNzRILjc0QS43NC43NCAwIDAgMCAwIC43NHY2LjgxeiIvPiYjeGE7CTxyZWN0IGNsYXNzPSJzdDAiIHg9IjYuNjciIHk9IjEyLjkyIiB3aWR0aD0iNi42NyIgaGVpZ2h0PSIuNjEiIHJ4PSIuMyIvPiYjeGE7PC9zdmc+;" vertex="1" parent="rqtoLYsZP0avv1NgUhm5-97">
          <mxGeometry width="30" height="21" relative="1" as="geometry">
            <mxPoint x="15" y="19" as="offset" />
          </mxGeometry>
        </mxCell>
        <mxCell id="rqtoLYsZP0avv1NgUhm5-99" value="" style="strokeColor=#dddddd;shadow=1;strokeWidth=1;rounded=1;absoluteArcSize=1;arcSize=2;" vertex="1" parent="1">
          <mxGeometry x="3554.12" y="6038" width="160" height="60" as="geometry" />
        </mxCell>
        <mxCell id="rqtoLYsZP0avv1NgUhm5-100" value="Cloud&#xa;Firewall Rules" style="editableCssRules=.*;html=1;fontColor=#999999;shape=image;verticalLabelPosition=middle;verticalAlign=middle;labelPosition=right;align=left;spacingLeft=20;part=1;points=[];imageAspect=0;image=data:image/svg+xml,PHN2ZyB4bWxucz0iaHR0cDovL3d3dy53My5vcmcvMjAwMC9zdmciIHhtbG5zOnY9Imh0dHBzOi8vdmVjdGEuaW8vbmFubyIgd2lkdGg9IjIwIiBoZWlnaHQ9IjIwIiBmaWxsPSIjNDI4NWY0IiB2aWV3Qm94PSIwIDAgMjAgMjAiPiYjeGE7CTxzdHlsZSB0eXBlPSJ0ZXh0L2NzcyI+JiN4YTsJLnN0MHtmaWxsOiM0Mjg1ZjQ7fSYjeGE7CTwvc3R5bGU+JiN4YTsJPHBhdGggY2xhc3M9InN0MCIgZD0iTTAgMGg4Ljg5djIuMjJIMHptMCAxNy43OGg4Ljg5VjIwSDB6bTAtOC44OWg4Ljg5djIuMjJIMHpNMTEuMTEgMEgyMHYyLjIyaC04Ljg5em0wIDE3Ljc4SDIwVjIwaC04Ljg5em0wLTguODlIMjB2Mi4yMmgtOC44OXpNNS41NSA0LjQ0aDguODl2Mi4yMkg1LjU1em0wIDguODloOC44OXYyLjIySDUuNTV6TTAgNC40NGgzLjMzdjIuMjJIMHptMCA4Ljg5aDMuMzN2Mi4yMkgwem0xNi42Ny04Ljg5SDIwdjIuMjJoLTMuMzN6bTAgOC44OUgyMHYyLjIyaC0zLjMzeiIvPiYjeGE7PC9zdmc+;" vertex="1" parent="rqtoLYsZP0avv1NgUhm5-99">
          <mxGeometry width="30" height="30" relative="1" as="geometry">
            <mxPoint x="15" y="15" as="offset" />
          </mxGeometry>
        </mxCell>
        <mxCell id="rqtoLYsZP0avv1NgUhm5-101" value="Client API&#39;s with Core Functionalities" style="rounded=0;whiteSpace=wrap;html=1;" vertex="1" parent="1">
          <mxGeometry x="3247" y="6918" width="420" height="60" as="geometry" />
        </mxCell>
        <mxCell id="rqtoLYsZP0avv1NgUhm5-102" value="" style="sketch=0;outlineConnect=0;fontColor=#232F3E;gradientColor=none;fillColor=#232F3D;strokeColor=none;dashed=0;verticalLabelPosition=bottom;verticalAlign=top;align=center;html=1;fontSize=12;fontStyle=0;aspect=fixed;pointerEvents=1;shape=mxgraph.aws4.traditional_server;" vertex="1" parent="1">
          <mxGeometry x="3318" y="6929.800000000001" width="21" height="36.4" as="geometry" />
        </mxCell>
        <mxCell id="rqtoLYsZP0avv1NgUhm5-103" value="CDP&amp;nbsp;" style="rounded=0;whiteSpace=wrap;html=1;" vertex="1" parent="1">
          <mxGeometry x="3687" y="6918" width="478" height="60" as="geometry" />
        </mxCell>
        <mxCell id="rqtoLYsZP0avv1NgUhm5-104" style="edgeStyle=orthogonalEdgeStyle;rounded=0;orthogonalLoop=1;jettySize=auto;html=1;startArrow=classic;startFill=1;jumpStyle=arc;exitX=0.25;exitY=1;exitDx=0;exitDy=0;" edge="1" parent="1" source="rqtoLYsZP0avv1NgUhm5-31">
          <mxGeometry relative="1" as="geometry">
            <mxPoint x="3382" y="6917" as="targetPoint" />
            <Array as="points" />
          </mxGeometry>
        </mxCell>
        <mxCell id="rqtoLYsZP0avv1NgUhm5-105" style="edgeStyle=orthogonalEdgeStyle;rounded=0;orthogonalLoop=1;jettySize=auto;html=1;jumpStyle=arc;startArrow=classic;startFill=1;entryX=0.877;entryY=0.992;entryDx=0;entryDy=0;entryPerimeter=0;" edge="1" parent="1" target="rqtoLYsZP0avv1NgUhm5-28">
          <mxGeometry relative="1" as="geometry">
            <Array as="points">
              <mxPoint x="3722" y="6904" />
              <mxPoint x="3722" y="6904" />
            </Array>
            <mxPoint x="3722" y="6918" as="sourcePoint" />
            <mxPoint x="3403" y="6714" as="targetPoint" />
          </mxGeometry>
        </mxCell>
        <mxCell id="rqtoLYsZP0avv1NgUhm5-106" style="edgeStyle=orthogonalEdgeStyle;rounded=0;orthogonalLoop=1;jettySize=auto;html=1;exitX=1;exitY=0.5;exitDx=0;exitDy=0;entryX=0.75;entryY=0;entryDx=0;entryDy=0;" edge="1" parent="1" source="rqtoLYsZP0avv1NgUhm5-107" target="rqtoLYsZP0avv1NgUhm5-25">
          <mxGeometry relative="1" as="geometry" />
        </mxCell>
        <mxCell id="rqtoLYsZP0avv1NgUhm5-107" value="Riafy, Cloud Engineer / DevOps Engineer / Developer&amp;nbsp;" style="rounded=0;whiteSpace=wrap;html=1;" vertex="1" parent="1">
          <mxGeometry x="3733" y="6038" width="318" height="60" as="geometry" />
        </mxCell>
        <mxCell id="rqtoLYsZP0avv1NgUhm5-108" style="edgeStyle=orthogonalEdgeStyle;rounded=0;orthogonalLoop=1;jettySize=auto;html=1;exitX=0.5;exitY=1;exitDx=0;exitDy=0;entryX=0.705;entryY=0;entryDx=0;entryDy=0;entryPerimeter=0;" edge="1" parent="1" source="rqtoLYsZP0avv1NgUhm5-107" target="rqtoLYsZP0avv1NgUhm5-8">
          <mxGeometry relative="1" as="geometry" />
        </mxCell>
        <mxCell id="rqtoLYsZP0avv1NgUhm5-109" style="edgeStyle=orthogonalEdgeStyle;rounded=0;orthogonalLoop=1;jettySize=auto;html=1;exitX=1;exitY=0.75;exitDx=0;exitDy=0;" edge="1" parent="1" source="rqtoLYsZP0avv1NgUhm5-107">
          <mxGeometry relative="1" as="geometry">
            <mxPoint x="3531" y="6163" as="targetPoint" />
            <Array as="points">
              <mxPoint x="4061" y="6083" />
              <mxPoint x="4061" y="6146" />
              <mxPoint x="3532" y="6146" />
              <mxPoint x="3532" y="6163" />
            </Array>
          </mxGeometry>
        </mxCell>
        <mxCell id="rqtoLYsZP0avv1NgUhm5-110" value="" style="sketch=0;html=1;aspect=fixed;strokeColor=none;shadow=0;fillColor=#3B8DF1;verticalAlign=top;labelPosition=center;verticalLabelPosition=bottom;shape=mxgraph.gcp2.lock" vertex="1" parent="1">
          <mxGeometry x="4080" y="6083" width="20" height="25.64" as="geometry" />
        </mxCell>
        <mxCell id="rqtoLYsZP0avv1NgUhm5-111" value="&lt;div&gt;IP Whitelisted/ VPN Enabled /&lt;/div&gt;&lt;div&gt;Secured and Authorised HTTPS&amp;nbsp;&lt;/div&gt;" style="text;html=1;align=center;verticalAlign=middle;resizable=0;points=[];autosize=1;strokeColor=none;fillColor=none;" vertex="1" parent="1">
          <mxGeometry x="4070" y="6033" width="230" height="50" as="geometry" />
        </mxCell>
        <mxCell id="rqtoLYsZP0avv1NgUhm5-112" value="Channel" style="rounded=0;whiteSpace=wrap;fillColor=none;fontColor=#333333;strokeColor=default;labelPosition=left;verticalLabelPosition=top;align=right;verticalAlign=bottom;spacingBottom=-30;spacingRight=-90;fontSize=18;fontStyle=1;spacingLeft=0;opacity=50;" vertex="1" parent="1">
          <mxGeometry x="2891" y="6193" width="100" height="670" as="geometry" />
        </mxCell>
        <mxCell id="rqtoLYsZP0avv1NgUhm5-113" style="edgeStyle=orthogonalEdgeStyle;rounded=0;orthogonalLoop=1;jettySize=auto;html=1;entryX=0;entryY=0.5;entryDx=0;entryDy=0;startArrow=classic;startFill=1;fontSize=20;fontColor=#000000;" edge="1" parent="1" target="rqtoLYsZP0avv1NgUhm5-117">
          <mxGeometry relative="1" as="geometry">
            <mxPoint x="2754" y="6498.058823529412" as="sourcePoint" />
            <Array as="points">
              <mxPoint x="2831" y="6498" />
              <mxPoint x="2831" y="6369" />
            </Array>
          </mxGeometry>
        </mxCell>
        <mxCell id="rqtoLYsZP0avv1NgUhm5-114" style="edgeStyle=orthogonalEdgeStyle;rounded=0;orthogonalLoop=1;jettySize=auto;html=1;entryX=0;entryY=0.5;entryDx=0;entryDy=0;" edge="1" parent="1" target="rqtoLYsZP0avv1NgUhm5-119">
          <mxGeometry relative="1" as="geometry">
            <mxPoint x="2754" y="6498.058823529412" as="sourcePoint" />
            <Array as="points">
              <mxPoint x="2831" y="6498" />
              <mxPoint x="2831" y="6644" />
            </Array>
          </mxGeometry>
        </mxCell>
        <mxCell id="rqtoLYsZP0avv1NgUhm5-115" value="Users" style="sketch=0;outlineConnect=0;fontColor=#000000;gradientColor=none;fillColor=#232F3D;strokeColor=none;dashed=0;verticalLabelPosition=bottom;verticalAlign=top;align=center;html=1;fontSize=20;fontStyle=0;aspect=fixed;pointerEvents=1;shape=mxgraph.aws4.users;spacingTop=10;" vertex="1" parent="1">
          <mxGeometry x="2676" y="6454.005" width="78" height="78" as="geometry" />
        </mxCell>
        <mxCell id="rqtoLYsZP0avv1NgUhm5-116" style="edgeStyle=orthogonalEdgeStyle;rounded=0;orthogonalLoop=1;jettySize=auto;html=1;exitX=1;exitY=0.5;exitDx=0;exitDy=0;entryX=0.25;entryY=0;entryDx=0;entryDy=0;" edge="1" parent="1" source="rqtoLYsZP0avv1NgUhm5-117" target="rqtoLYsZP0avv1NgUhm5-44">
          <mxGeometry relative="1" as="geometry">
            <Array as="points">
              <mxPoint x="3013" y="6369" />
              <mxPoint x="3013" y="6453" />
              <mxPoint x="3086" y="6453" />
            </Array>
          </mxGeometry>
        </mxCell>
        <mxCell id="rqtoLYsZP0avv1NgUhm5-117" value="Whatsapp users" style="shape=image;verticalLabelPosition=bottom;labelBackgroundColor=default;verticalAlign=top;aspect=fixed;imageAspect=0;image=https://upload.wikimedia.org/wikipedia/commons/thumb/6/6b/WhatsApp.svg/1022px-WhatsApp.svg.png;fontSize=12;fontColor=#000000;" vertex="1" parent="1">
          <mxGeometry x="2909.9950000000003" y="6338.349999999999" width="60.57" height="60.93" as="geometry" />
        </mxCell>
        <mxCell id="rqtoLYsZP0avv1NgUhm5-118" style="edgeStyle=orthogonalEdgeStyle;rounded=0;orthogonalLoop=1;jettySize=auto;html=1;exitX=1;exitY=0.5;exitDx=0;exitDy=0;startArrow=classic;startFill=1;endArrow=none;endFill=0;entryX=0.25;entryY=0;entryDx=0;entryDy=0;" edge="1" parent="1" source="rqtoLYsZP0avv1NgUhm5-119" target="rqtoLYsZP0avv1NgUhm5-44">
          <mxGeometry relative="1" as="geometry">
            <mxPoint x="3020" y="6453" as="targetPoint" />
            <Array as="points">
              <mxPoint x="3013" y="6644" />
              <mxPoint x="3013" y="6453" />
              <mxPoint x="3086" y="6453" />
            </Array>
          </mxGeometry>
        </mxCell>
        <mxCell id="rqtoLYsZP0avv1NgUhm5-119" value="Web users" style="image;aspect=fixed;perimeter=ellipsePerimeter;html=1;align=center;shadow=0;dashed=0;spacingTop=3;image=img/lib/active_directory/internet_globe.svg;" vertex="1" parent="1">
          <mxGeometry x="2915.28" y="6619.06" width="50" height="50" as="geometry" />
        </mxCell>
        <mxCell id="rqtoLYsZP0avv1NgUhm5-120" value="&lt;b&gt;Google &lt;/b&gt;Cloud Platform" style="fillColor=#F6F6F6;strokeColor=none;shadow=0;gradientColor=none;fontSize=14;align=left;spacing=10;fontColor=#717171;9E9E9E;verticalAlign=top;spacingTop=-4;fontStyle=0;spacingLeft=40;html=1;container=0;" vertex="1" parent="1">
          <mxGeometry x="4357.67" y="6016" width="1437.33" height="980" as="geometry" />
        </mxCell>
        <mxCell id="rqtoLYsZP0avv1NgUhm5-121" value="&lt;font style=&quot;font-size: 20px;&quot; color=&quot;#5a5858&quot;&gt;R10 VPC&lt;/font&gt;" style="sketch=0;outlineConnect=0;gradientColor=none;html=1;whiteSpace=wrap;fontSize=20;fontStyle=1;shape=mxgraph.aws4.group;grIcon=mxgraph.aws4.group_vpc;strokeColor=#858B94;fillColor=none;verticalAlign=top;align=left;spacingLeft=30;fontColor=#E0E0E0;dashed=0;fontFamily=Helvetica;" vertex="1" parent="1">
          <mxGeometry x="4817.67" y="6046" width="947.33" height="840" as="geometry" />
        </mxCell>
        <mxCell id="rqtoLYsZP0avv1NgUhm5-122" value="asia-south1 (Mumbai)" style="sketch=0;outlineConnect=0;gradientColor=none;html=1;whiteSpace=wrap;fontSize=12;fontStyle=0;shape=mxgraph.aws4.group;grIcon=mxgraph.aws4.group_region;strokeColor=#879196;fillColor=none;verticalAlign=top;align=left;spacingLeft=30;fontColor=#879196;dashed=1;fontFamily=Helvetica;" vertex="1" parent="1">
          <mxGeometry x="5217.67" y="6096" width="517.33" height="750" as="geometry" />
        </mxCell>
        <mxCell id="rqtoLYsZP0avv1NgUhm5-123" value="Public subnet" style="points=[[0,0],[0.25,0],[0.5,0],[0.75,0],[1,0],[1,0.25],[1,0.5],[1,0.75],[1,1],[0.75,1],[0.5,1],[0.25,1],[0,1],[0,0.75],[0,0.5],[0,0.25]];outlineConnect=0;gradientColor=none;html=1;whiteSpace=wrap;fontSize=12;fontStyle=0;container=1;pointerEvents=0;collapsible=0;recursiveResize=0;shape=mxgraph.aws4.group;grIcon=mxgraph.aws4.group_security_group;grStroke=0;strokeColor=#248814;fillColor=#E9F3E6;verticalAlign=top;align=left;spacingLeft=30;fontColor=#248814;dashed=0;fontFamily=Helvetica;" vertex="1" parent="1">
          <mxGeometry x="5297.67" y="6176" width="127.33" height="180" as="geometry" />
        </mxCell>
        <mxCell id="rqtoLYsZP0avv1NgUhm5-124" value="Cloud&#xa;NAT" style="sketch=0;html=1;verticalAlign=top;labelPosition=center;verticalLabelPosition=bottom;align=center;spacingTop=-6;fontSize=11;fontStyle=1;fontColor=#999999;shape=image;aspect=fixed;imageAspect=0;image=data:image/svg+xml,PHN2ZyB4bWxuczppbmtzY2FwZT0iaHR0cDovL3d3dy5pbmtzY2FwZS5vcmcvbmFtZXNwYWNlcy9pbmtzY2FwZSIgeG1sbnM6c29kaXBvZGk9Imh0dHA6Ly9zb2RpcG9kaS5zb3VyY2Vmb3JnZS5uZXQvRFREL3NvZGlwb2RpLTAuZHRkIiB4bWxucz0iaHR0cDovL3d3dy53My5vcmcvMjAwMC9zdmciIHhtbG5zOnN2Zz0iaHR0cDovL3d3dy53My5vcmcvMjAwMC9zdmciIHdpZHRoPSI5OS45OTczMDIyMDQ4OTI5NiIgaGVpZ2h0PSI5Ny44ODA4NTM5MDQyOTYzMyIgdmlld0JveD0iLTAuMDQ1Nzc2MzY3MTg3NSAxLjA4Nzc4ODU4MTg0ODE0NDUgOTkuOTk3Mjk5MTk0MzM1OTQgOTcuODgwODQ0MTE2MjEwOTQiIHZlcnNpb249IjEuMSIgaWQ9InN2ZzUiIGlua3NjYXBlOnZlcnNpb249IjEuMSAoYzY4ZTIyYzM4NywgMjAyMS0wNS0yMykiIHNvZGlwb2RpOmRvY25hbWU9ImNsb3VkX25hdC5zdmciPiYjeGE7ICA8c29kaXBvZGk6bmFtZWR2aWV3IGlkPSJuYW1lZHZpZXc3IiBwYWdlY29sb3I9IiNmZmZmZmYiIGJvcmRlcmNvbG9yPSIjNjY2NjY2IiBib3JkZXJvcGFjaXR5PSIxLjAiIGlua3NjYXBlOnBhZ2VzaGFkb3c9IjIiIGlua3NjYXBlOnBhZ2VvcGFjaXR5PSIwLjAiIGlua3NjYXBlOnBhZ2VjaGVja2VyYm9hcmQ9IjAiIGlua3NjYXBlOmRvY3VtZW50LXVuaXRzPSJtbSIgc2hvd2dyaWQ9ImZhbHNlIiBpbmtzY2FwZTp6b29tPSIwLjU3OTMzNzQ0IiBpbmtzY2FwZTpjeD0iLTQyLjI4OTY4OSIgaW5rc2NhcGU6Y3k9IjI1NC42MDExOSIgaW5rc2NhcGU6d2luZG93LXdpZHRoPSIxOTIwIiBpbmtzY2FwZTp3aW5kb3ctaGVpZ2h0PSIxMDE3IiBpbmtzY2FwZTp3aW5kb3cteD0iLTgiIGlua3NjYXBlOndpbmRvdy15PSItOCIgaW5rc2NhcGU6d2luZG93LW1heGltaXplZD0iMSIgaW5rc2NhcGU6Y3VycmVudC1sYXllcj0ibGF5ZXIxIiBmaXQtbWFyZ2luLXRvcD0iMCIgZml0LW1hcmdpbi1sZWZ0PSIwIiBmaXQtbWFyZ2luLXJpZ2h0PSIwIiBmaXQtbWFyZ2luLWJvdHRvbT0iMCIvPiYjeGE7ICA8ZGVmcyBpZD0iZGVmczIiLz4mI3hhOyAgPGcgaW5rc2NhcGU6bGFiZWw9IkxheWVyIDEiIGlua3NjYXBlOmdyb3VwbW9kZT0ibGF5ZXIiIGlkPSJsYXllcjEiIHRyYW5zZm9ybT0idHJhbnNsYXRlKDI1OC42MTk3NSwxNi42Njc3MTUpIj4mI3hhOyAgICA8cGF0aCBpZD0icGF0aDE3MzYyIiBzdHlsZT0ib3BhY2l0eToxO2ZpbGw6IzQyODVmNDtmaWxsLW9wYWNpdHk6MTtzdHJva2U6bm9uZTtzdHJva2Utd2lkdGg6MC45OTk5OTlweDtzdHJva2UtbGluZWNhcDpidXR0O3N0cm9rZS1saW5lam9pbjptaXRlcjtzdHJva2Utb3BhY2l0eToxIiBkPSJNIDE0MS40MTc5Nyw0LjExMTMyODEgMTI0LjQwMjM0LDI0LjM3NSBjIDU3Ljg5NTM3LDQ4LjYxNjQyNiA4My40MTQwNyw5Ni4wNjQ2NyA4My40MTQwNywxNjMuOTQzMzYgMCw3Mi4zMTIyOCAtMzYuMTA3MzEsMTI0LjgyOTc3IC04Mi4wMTk1MywxNjYuMDQ4ODMgbCAxNy42Nzk2OCwxOS42ODc1IGMgNDkuMjAyOTksLTQ0LjE3MzQyIDkwLjc5Njg4LC0xMDQuNDk4MzcgOTAuNzk2ODgsLTE4NS43MzYzMyAwLC03NC44ODE1MiAtMzEuMTU5NDEsLTEzMi4zOTkwMjIgLTkyLjg1NTQ3LC0xODQuMjA3MDMxOSB6IE0gOTYuNTU2NjQxLDc1Ljg4NDc2NiBWIDEwMi4zNDE4IEggMTY2LjQ4MzA1IEMgMTYyLjM5Mjc0LDk0LjU1NDQyIDE1OC40NTE0Myw4Ni44NDE1NDIgMTQ4LjAyMjMzLDc1Ljg4NDc2NiBaIE0gMzE3Ljc3OTMsMjAyLjMwNjY0IHYgMzIuMjkyOTcgbCA1OS45OTAyMywtNDUuNTE3NTggLTU5Ljk5MDIzLC00NS41MTc1OCB2IDMyLjI4NTE2IGggLTY0LjQ3NDYxIHYgMjYuNDU3MDMgeiBNIDUwLjA1ODU5NCwxNzUuODQ5NjEgdiAyNi40NTcwMyBIIDE4Ny4yODEyNSBjIDEuMTU3NDUsLTguMDQ3MzcgMS4yODIzMSwtMTYuNzgzMTUgMCwtMjYuNDU3MDMgeiBtIDQ3LjAzNzEwOSwxMDAuMDQ2ODcgdiAyNi40NTcwNCBoIDUwLjY4MjY3NyBjIDguMDE2NTcsLTguMDE0NjYgMTQuNDYxNjksLTE2LjgxNTA0IDE5LjIyMzU3LC0yNi40NTcwNCB6IiB0cmFuc2Zvcm09Im1hdHJpeCgwLjI2NDU4MzMzLDAsMCwwLjI2NDU4MzMzLC0yNTguNjE5NzUsLTE2LjY2NzcxNSkiIHNvZGlwb2RpOm5vZGV0eXBlcz0iY2NzY2NzY2NjY2NjY2NjY2NjY2NjY2NjY2NjY2NjIi8+JiN4YTsgICAgPHBhdGggaWQ9InBhdGgxNjI3MS03IiBzdHlsZT0iY29sb3I6IzAwMDAwMDtvcGFjaXR5OjE7ZmlsbDojNjY5ZGY2O3N0cm9rZS1saW5lam9pbjpyb3VuZDstaW5rc2NhcGUtc3Ryb2tlOm5vbmU7ZmlsbC1vcGFjaXR5OjEiIGQ9Im0gLTIzNy45NTQwOCw1MS45MDU2ODYgYyAtNC4zNDYzLDEwZS03IC03LjkyMzgyLDMuNTc3NTIxIC03LjkyMzgyLDcuOTIzODI4IDAsNC4zNDYzMDcgMy41Nzc1Miw3LjkyMzgyOCA3LjkyMzgyLDcuOTIzODI4IDQuMzQ2MzEsMCA3LjkyMzgzLC0zLjU3NzUyMSA3LjkyMzgzLC03LjkyMzgyOCAwLC00LjM0NjMwNyAtMy41Nzc1MiwtNy45MjM4MjcgLTcuOTIzODMsLTcuOTIzODI4IHogbSAwLDUgYyAxLjY0NDExLDAgMi45MjM4MywxLjI3OTcxOCAyLjkyMzgzLDIuOTIzODI4IDAsMS42NDQxMSAtMS4yNzk3MiwyLjkyMzgyOCAtMi45MjM4MywyLjkyMzgyOCAtMS42NDQxMSwwIC0yLjkyMzgyLC0xLjI3OTcxOCAtMi45MjM4MiwtMi45MjM4MjggMCwtMS42NDQxMSAxLjI3OTcxLC0yLjkyMzgyOCAyLjkyMzgyLC0yLjkyMzgyOCB6IG0gLTEyLjc4NzYxLC0zMS40ODg1OTMgYyAtNC4zNDYzLDEwZS03IC03LjkyMzgyLDMuNTc3NTIxIC03LjkyMzgyLDcuOTIzODI4IDAsNC4zNDYzMDcgMy41Nzc1Miw3LjkyMzgyOCA3LjkyMzgyLDcuOTIzODI4IDQuMzQ2MzEsMCA3LjkyMzgzLC0zLjU3NzUyMSA3LjkyMzgzLC03LjkyMzgyOCAwLC00LjM0NjMwNyAtMy41Nzc1MiwtNy45MjM4MjcgLTcuOTIzODMsLTcuOTIzODI4IHogbSAwLDUgYyAxLjY0NDExLDAgMi45MjM4MywxLjI3OTcxOCAyLjkyMzgzLDIuOTIzODI4IDAsMS42NDQxMSAtMS4yNzk3MiwyLjkyMzgyOCAtMi45MjM4MywyLjkyMzgyOCAtMS42NDQxMSwwIC0yLjkyMzgyLC0xLjI3OTcxOCAtMi45MjM4MiwtMi45MjM4MjggMCwtMS42NDQxMSAxLjI3OTcxLC0yLjkyMzgyOCAyLjkyMzgyLC0yLjkyMzgyOCB6IG0gMTIuNjE2NTIsLTMxLjQzMTQ5MjkgYyAtNC4zNDYzLDZlLTcgLTcuOTIzODIsMy41Nzc1MjA4IC03LjkyMzgyLDcuOTIzODI4MSAwLDQuMzQ2MzA2OCAzLjU3NzUyLDcuOTIzODI3OCA3LjkyMzgyLDcuOTIzODI3OCA0LjM0NjMxLDAgNy45MjM4MywtMy41Nzc1MjEgNy45MjM4MywtNy45MjM4Mjc4IDAsLTQuMzQ2MzA3MyAtMy41Nzc1MiwtNy45MjM4Mjc1IC03LjkyMzgzLC03LjkyMzgyODEgeiBtIDAsNSBjIDEuNjQ0MTEsMmUtNyAyLjkyMzgzLDEuMjc5NzE4NCAyLjkyMzgzLDIuOTIzODI4MSAwLDEuNjQ0MTA5NiAtMS4yNzk3MiwyLjkyMzgyNzkgLTIuOTIzODMsMi45MjM4Mjc5IC0xLjY0NDExLDAgLTIuOTIzODIsLTEuMjc5NzE4MyAtMi45MjM4MiwtMi45MjM4Mjc5IDAsLTEuNjQ0MTA5NyAxLjI3OTcxLC0yLjkyMzgyNzkgMi45MjM4MiwtMi45MjM4MjgxIHoiLz4mI3hhOyAgPC9nPiYjeGE7PC9zdmc+;" vertex="1" parent="rqtoLYsZP0avv1NgUhm5-123">
          <mxGeometry x="49" y="82" width="42" height="42" as="geometry" />
        </mxCell>
        <mxCell id="rqtoLYsZP0avv1NgUhm5-125" value="Cloud&#xa;IAM" style="sketch=0;html=1;verticalAlign=middle;labelPosition=right;verticalLabelPosition=middle;align=left;spacingTop=-6;fontSize=11;fontStyle=1;fontColor=#999999;shape=image;aspect=fixed;imageAspect=0;image=data:image/svg+xml,PHN2ZyB4bWxucz0iaHR0cDovL3d3dy53My5vcmcvMjAwMC9zdmciIHhtbG5zOnY9Imh0dHBzOi8vdmVjdGEuaW8vbmFubyIgd2lkdGg9IjE2LjQyMDAwMDA3NjI5Mzk0NSIgaGVpZ2h0PSIyMC4wNDk5OTkyMzcwNjA1NDciIGZpbGwtcnVsZT0iZXZlbm9kZCIgdmlld0JveD0iMCAwIDE2LjQyMDAwMDA3NjI5Mzk0NSAyMC4wNDk5OTkyMzcwNjA1NDciPiYjeGE7CTxzdHlsZSB0eXBlPSJ0ZXh0L2NzcyI+JiN4YTsJLnN0MHtmaWxsOiM0Mjg1ZjQ7fSYjeGE7CS5zdDF7ZmlsbDojNjY5ZGY2O30mI3hhOwk8L3N0eWxlPiYjeGE7CTxwYXRoIGNsYXNzPSJzdDEiIGQ9Ik04LjIxIDBMMCAzLjQydjUuNjNjMCA1LjA2IDMuNSA5LjggOC4yMSAxMSA0LjcxLTEuMTUgOC4yMS01Ljg5IDguMjEtMTAuOTVWMy40MnptMCAzLjc5YTIuNjMgMi42MyAwIDAgMSAxLjAwNSA1LjA2QTIuNjMgMi42MyAwIDAgMSA2LjM1IDQuNTZhMi42MyAyLjYzIDAgMCAxIDEuODYtLjc3em00LjExIDExLjE1YTguNjQgOC42NCAwIDAgMS00LjExIDIuOTMgOC42NCA4LjY0IDAgMCAxLTQuMTEtMi45M3YtMi4yNWMwLTEuNjcgMi43NC0yLjUyIDQuMTEtMi41MnM0LjExLjg1IDQuMTEgMi41MnoiLz4mI3hhOwk8cGF0aCBjbGFzcz0ic3QwIiBkPSJNOC4yMSAwdjMuNzlhMi42MyAyLjYzIDAgMSAxIDAgNS4yNnYxLjEyYzEuMzcgMCA0LjExLjg1IDQuMTEgMi41MnYyLjI1YTguNjQgOC42NCAwIDAgMS00LjExIDIuOTNWMjBjNC43MS0xLjE1IDguMjEtNS44OSA4LjIxLTEwLjk1VjMuNDJ6Ii8+JiN4YTs8L3N2Zz4=;" vertex="1" parent="1">
          <mxGeometry x="5641" y="6028" width="34" height="42" as="geometry" />
        </mxCell>
        <mxCell id="rqtoLYsZP0avv1NgUhm5-126" value="" style="shape=mxgraph.gcp2.google_cloud_platform;fillColor=#F6F6F6;strokeColor=none;shadow=0;gradientColor=none;fontColor=#000000;" vertex="1" parent="1">
          <mxGeometry x="4377.67" y="6026" width="23" height="20" as="geometry">
            <mxPoint x="20" y="10" as="offset" />
          </mxGeometry>
        </mxCell>
        <mxCell id="rqtoLYsZP0avv1NgUhm5-127" value="" style="strokeColor=#dddddd;shadow=1;strokeWidth=1;rounded=1;absoluteArcSize=1;arcSize=2;fontColor=#000000;" vertex="1" parent="1">
          <mxGeometry x="5317.67" y="6026" width="100" height="44" as="geometry" />
        </mxCell>
        <mxCell id="rqtoLYsZP0avv1NgUhm5-128" value="Internet&lt;br&gt;Gateway" style="sketch=0;dashed=0;connectable=0;html=1;fillColor=#757575;strokeColor=none;shape=mxgraph.gcp2.gateway;part=1;labelPosition=right;verticalLabelPosition=middle;align=left;verticalAlign=middle;spacingLeft=5;fontSize=12;fontColor=#000000;" vertex="1" parent="rqtoLYsZP0avv1NgUhm5-127">
          <mxGeometry y="0.5" width="32" height="32" relative="1" as="geometry">
            <mxPoint x="5" y="-16" as="offset" />
          </mxGeometry>
        </mxCell>
        <mxCell id="rqtoLYsZP0avv1NgUhm5-129" style="edgeStyle=orthogonalEdgeStyle;rounded=0;orthogonalLoop=1;jettySize=auto;html=1;startArrow=classic;startFill=1;" edge="1" parent="1" source="rqtoLYsZP0avv1NgUhm5-124" target="rqtoLYsZP0avv1NgUhm5-139">
          <mxGeometry relative="1" as="geometry">
            <Array as="points">
              <mxPoint x="5137.67" y="6276" />
              <mxPoint x="5137.67" y="6276" />
            </Array>
          </mxGeometry>
        </mxCell>
        <mxCell id="rqtoLYsZP0avv1NgUhm5-130" style="edgeStyle=orthogonalEdgeStyle;rounded=0;orthogonalLoop=1;jettySize=auto;html=1;entryX=0.5;entryY=1;entryDx=0;entryDy=0;startArrow=classic;startFill=1;" edge="1" parent="1" source="rqtoLYsZP0avv1NgUhm5-124" target="rqtoLYsZP0avv1NgUhm5-127">
          <mxGeometry relative="1" as="geometry" />
        </mxCell>
        <mxCell id="rqtoLYsZP0avv1NgUhm5-131" value="" style="group" connectable="0" vertex="1" parent="1">
          <mxGeometry x="4427.67" y="6288" width="290" height="163.9699999999998" as="geometry" />
        </mxCell>
        <mxCell id="rqtoLYsZP0avv1NgUhm5-132" value="Central Foundational Model" style="rounded=0;whiteSpace=wrap;fillColor=none;dashed=1;labelPosition=left;verticalLabelPosition=top;align=right;verticalAlign=bottom;spacingLeft=-50;html=1;spacingTop=100;spacingRight=-160;spacingBottom=-20;fontColor=#999999;strokeColor=#999999;" vertex="1" parent="rqtoLYsZP0avv1NgUhm5-131">
          <mxGeometry width="270" height="140" as="geometry" />
        </mxCell>
        <mxCell id="rqtoLYsZP0avv1NgUhm5-133" value="" style="rounded=0;whiteSpace=wrap;html=1;fillColor=#FFFFFF;fontColor=#333333;strokeColor=none;shadow=1;" vertex="1" parent="rqtoLYsZP0avv1NgUhm5-131">
          <mxGeometry x="15" y="25.65000000000009" width="240" height="90.35" as="geometry" />
        </mxCell>
        <mxCell id="rqtoLYsZP0avv1NgUhm5-134" value="" style="shape=image;verticalLabelPosition=bottom;labelBackgroundColor=default;verticalAlign=top;aspect=fixed;imageAspect=0;image=data:image/png,iVBORw0KGgoAAAANSUhEUgAAAV4AAAGNCAYAAABZgRmbAAAkdUlEQVR42u2d324cyXXG9Qh6g+wj8AEcgCstDBuGY2GDxAgSIxMkuzaCIBjEQJC7JWBS8tprexA7jmFrJSJw4lxkV7zJRW6CRm4WkAhoHsAXfedLNcwZ0jsCPOnTXaT4Zzj/urrOqarfDyjEkSgue9jzzemvTn3nzh0AAIBFPDv+/MGnx7PRpy9mRb3mC1Yhfy9fx6sFkBa7j87eurc/Gd4/ODm6dzAp6zW/tsrm7+qvka/lFesiti/ndz958fleLarlLWJ726rk38m/51UEiJd3vnOy68R2vuEq5N/yCm5T4dYCuqHg3hDgZ89nA15NgMgq3A9e3d1ScG8IMBXwmnz6fHbYUXCvrvr7Uf0CRCK6B5OdWjArD6J7vqr7D6dYkMushU+PZ2Ovonu+6u+L+ALYphbJgUfBvb54+l1Y6b54fdSL6F4SX15lAJuIJ9uj6CK+i3CbaPPe1/FsxKsNYMxekK4Fv/bCrbaDWBm84mIxPJ/tBBFdt569eL3Lqw5gymIoAohuu/YnPPm2FsOtvbl9rZJXHSAriwHL4Uq1W1efgUW3rXo5aAGQX7V76cBF3tWu79axtdfrI255AF1c69hcY2XdYqYjuq7qpb0MQLvaHWkJ79v7k0NsBuwGAGwG7Ib++eTFbKgpvNLCxq0PoCq8c82VqfAG6t1dcpSYWx9AB9e7qyq8WQbpuJjHueIquP0BdFBqI0N4Ffp3EV4AhBfhRXgBMrUaFFvJEF6EFyBbtIU3y6xehBcge+EtFYW3yvJFR3gB8kYOMaidXDs4yfP0KsILkH3FO1CseAcIL8ILkKv4Vho2g8x1Q3gRXoBMhfdkj5wGhBcAAiKVZ+CqN99qF+EFgHMkohFvF+EFgOCWQ/8RkVlbDAgvACyiz/YyRBfhBYCA4ovoIrwAsNp2GHjacKvu7U+GvKIILwCsgXQedKl+5d9mmcWA8AJAZwGWwPS6aq3XeKXgNl9zsofgIrwA4LEKlijHtv1MDl6c7Mn/lj/LujcX4QUAQHgRXgAAhBcAAOEFAEB4EV4AAIQXAADhRXgBABBeAACEF+EFAEB4AQAQXgAAhBfhBQBAeAEAEF6EFyBLzhPKLi+SyRDeXnj2cn732fPZ4NPj2ci9blfX89nhJy9mw2efkUOaKiIwbRTipLi+7h+cHDU5tAeTnRSvXSZSuFD0ctm0ifZ1yHyKMMLrQXBfvN799MXro42u63g2FpHmDkugunt09pYTnE3G4JSNCCdQBboPmmqrkT+JvAYIb0jBrStXD69PKcLNnRbn47SHceeN+MRb3S+tbtf+EJLvxR2F8K4WXbEUXswqb9d5PBtxt0UkugeTHU+iczEOJ6bKzw269DzePc4PIIQ3EJ+8+Hyvr2sVn5i7LgrRrfwLz6SKwf911sK8j8WId4R3WaXLZiKiO+9pVZaHQPZT6d6o/hn1jvBeEt3jzx8EuWZsB8uebhVAeEzaDu5DZx5iZe/5IrxOdF/O73r1dFcsNtxMVntFKOGRTTtz17/O6HZ/q0R4Ed470oMb+LpLpM4O7ajyYKLTLEuWQxCLgc02VcExJ7yubSz4tdPna6raLUMLj6WNJo3rz7rq7XEHf831+kj9w6c9iRb+2o9nYyRPH9evOtdYFqrekN7u9SVPGgivwpL/vgG7pdS6fo4X6+NOpakIj4Udfg+HRGgv2/gxO9ROvtHHbS2b4c0Hz4zWmjwfs9uK7+DkyMD1F2ofPLnaDW43f55rxaf9wSMeO9Kn+JjdtpDNFVdlQHg1r3+e7c0nXqOS8Kh/2ul73ByoyNXftSI82tefaprb6qqv/9NaZh+zEV6EV114lDfYtK8/28MUoQ8PuFVZyC1AeBHe3IUH4c2o6rXQzYDwgomKV/n4MMKr7fWGOsVmqH8V4UV48XgR3hwsh8pS72o7XUJReAnMuZO58JQILyHpYjns9Ci+lXx/gx822fYxQ/BwGHMHCBBeW+Jbpi66FxaLXjvdnGB0ExXvSFF4BggvwnutEtxwwGOkkxe02uks5FRAO8xS6/CEhVxehNeiKLUe6LabbqWcDMPbJpM3gqq3yDUWEeG1LsBthOQqC6KUr4tNVBS6GwruKkNVb/iErsrKFAqENxYR/uzsLRHWGyvypK2AXm9FKlnmXq+huWMIL2h7vTshLAc6GQyLb4AOB2tRiAgvpC++9O3athwkraxP8TU46BLhhaTF18oxaVAT38LidGGEF2yJrz/Pt4qhuwOuiq/fyRR2BzsivGAO1+1QdQk655BEvLgsh7JTlWs8bxbhBZvVby2ckh28QQVcipdL50I6yFBGGdOzbquYVMuxCArCC1GIsNgGUglfX9KtYPVYNHiugvcnQ7EPrqz6z2IUEYQXAADhBQBAeBFeAACEFwAA4UV4AQAQXgAAhBfhBQBAeO3T9LDKtIbj2ciFo19dcmhAelk5OACA8CK8HQW3mUKx8RiggnwCAIQX4d1UcNuUrqLzvDVOcwEgvAjvappsAiIRARBehDcMbraa/xDw+vvy6gIgvAhvKNFFfAEQXoT3Jk3HQoBhj2JjcLsDILzZC6+0gIUY9Hhp4GO0G25NW12CU5Y34Vu/ONu9sZ6mf/0ymUKyed/EQU6KdrX/v4iIxfE+CK9Vi6F798LG3Q6RPQ3sNP3Lq8PQq2bqRGKtdCKq7398OqzXuF7zJat67/Hp0Xsfnw0SqwoHTmTXEhMJTReBRngR3ttFpenTDSq6bdVb/3cjeW22/VAqYx/l3gjuk+nhCrG9VYTf/3i6F/P1t9Vth9E/+5OxdWFBeLWq3b431G5dr48s2wnuhJ6X6j5GG0JEc0vBvb7G7z2dRGUtNZbC+qN+1lkjhBfhvW4zVDrCW1e9BgdBOtEde77WKoYKXxg8fXW3FsvCk+herFjsh97Gu9ffk/HuCK+qzXAhvMa80J5E9/Km4iAC0R37Ft1YxLcR3W5ThaMTX4RXATe+XE14LZ1o61t0Lypfwx0dfVS6N9Zju5tOvVS615ZMIEZ4Mxdejz5m9D7vFkFA86033QxaLB493ZWbbhZbz8SHDSY4+5Mhwpuz8IZvIzPZViaWR9Drrj/wLN0HsvkVSHTPV2Hp+ncPJjuBBaeyYjkgvAiv5utQBve3DXU6BLEYri05dGHl+j13MKy5TvYQXoQ3W+ENXu0ay61QqHZNVb27j87eUhKdCuGdzOX1Z3MtQ/EJ6O3e2GizcA9888npSEl45xa8XvFbtUTHwuk2beG9kyO+c3dj7GrIvZ2uFsBSS3jlGLIB4Sm0RMdCh4Pm9UsXSZbC66ZM6AmP8qEC7T5m7Q8el8GgJbpzyXXIuuIzIDwu7EfrNRjdyRWNjSUrj9raFb+2xy0bXJrCK4c1MvV3zTxqK3R0mLJa9IRXq5fXgL+r7nErC69LHNMUXlXhkR11PM4wB0cWrPJOzrgs3nmO7VQIb7BDEwivZeFtYy9DX/vgTu4Er3qNtFIhvAgvwquwyZbrptqNqldyCsJ5vZWVI7O5C6+E1iC8CO8lv7sK0rt7MNlBdc/FN9AOv6VEslBz5qxmVRjYXCsQXju44HcshtSEyFosonY7nXY7mYuB1BPeJ9NDhNcWPfu9iG5o8bWaRasaBG8gIrLP/F3r+bwI71LxrRBdnUqwzGH6gt7oo1lp4fo1W8qk4kZ4beI838LHRhqe7oYbbp03n45nI4vZsxrettUQeLXTa8o2A8K7UfW7zVSOkirXjwCvWwGX8vUxDXhUSGmrLH0gdZgkHHVADsK7QQXcnnAbLa2C24MYIypc3yJci6l0JYiwXl/i4cY4TfeStRKw2p0NLV2/22SrQomuJKJZuG6Et/vrJ8viEE+IhIA9vYXF65dZaIGEt9T2dhFeAEuWQ/8bbZVlzztANm8lweuWKjaEFyBtv9f0hOEAfq8p0UV4AVKvfI9nY+vdHVfE13+GQ2lNdBFeAIO4WWxVKm1jm+KOE5c+2saseLoIL0AM4vumla7aJoEt1i6Py7ggnXKb6RKWJgkjvACxVsBiQRzPxrf1L0voTdNWF5GtsLb98Hj6wG2+Fbd6uLXYykk4Cz26CC8AAMKL8AIAILwAAAgvAADCi/ACACC8AAAIL8ILAIDwQkpI1oD0qTaHCtpjtYX83zYacjaMIYsAAOHdnDaP92TP5fHeNhaokK8hj9eH2H529pZMktgkCL2ZPJHAqS1AeHMXXvcaFduM/GECxTaC+3J+1wnu9lkFcmw2wVNcgPAyc23tVVABryu67Ryyylsc4vHnD3hVAeGNQ3jvP5w+8DxluKL6XSW6mY13B4QX4X2DG27Z1/WiASFFF/EFhNe+8LpKt+9rRgMW2Au9zxzDdgCE157wOk+3CnHNeL7noisbaf483dWeb4QdD/IzS8ucRD8uiIaUjo+imbZcf4DlcM9I9KPk7VrP3EV417YYimDXvT8Zo7p3ggx5vNHtEJX9cnsG760tdY0IJ9TR0UwhbuexLQtFL2RsEHm8cQlvz74ulsNtlVxQ0X3j9+4YF9ydLQR30YDLaG8wGdnj5q9VW4z9KZhAEY3wlgrXXuZd7Xbt1U2w6m0tBZ/X+/ootuq3qXA9zFyTqRTMXLMrvO2JNJ1rl828fIU3nLd7oxrMynaJaNKwG/GT9Gh3hPei2h1pXfvb+5PDLEW3eZzWEd3WbjC2EdV79R+B+Dofd97DMie+CG8tvO3RXq3rz9Nu8P9IHe/oczfOPWuLpUfRNSm+CG9T8dLVEV54m9HlasJrRYQCt9OZ7GV2Y9znAVZpxfPNXXhd767q9cvvIEd/t1AV3vq/n7Svu6TdzNJ9IO1fW3YubLfqyhrh1RdeC9eP8GYqvIrtdIOMLIYby0KrGcKL8CK8qW6oLdloM1TtzoMvA1Vv9laDYitZ3sKrJTqX+lsNfPiUal0dBo5OuwMSc42l7fVa8Dhz31zb/eBVfnnd2ptr2l0NWjaDJbuhFsCxlvDKhl7WwmMgs0Dp1NpFTu+dHAmVSGZ1d1/7+uWJQ/P62yPBOqJrxW7Q7GO1cIBAfga1k2sHJ0d3ckXx5Npc+zCBejudssctG1yqwltX2wYqvpFixade8QfK4CUo54bwhm+lMuPv5i68AXt3b13a94Ciz1tZ8TdD5fBavX6dx22lY8MWjgvnLryaG2tWhNcJT5FzToEb2x5YeE/27uROE+6d4cEJhBfhFRTayiqptK28/6XyDLzJlne1e1H1trv7VW5ZvAjv6RDh1dhkslfthfzwyToOcoHlMAjTQjYbWrlmNtfYXFOo+gqrGhDCcsg2CnKp5dD3gQpjyVzZC6/WqbVLIemW7gd3kqvqs2/X+iN2n5U/ortMfPvqcjAYh5i78Dq7oVQU36G1e6I38Y1AdN9Uvv5b7BDd9W2HKkV7AeG9Sg/TJtYPyjE6FLNpMfN4sEIOCsS2meT6e318AFV4upuIb7vh1jVEp7A81BLhVbUbCuvvAed5dhGfMuZDAq3vvf1rIFUu3QvbCnBzrHbTdrPXR9bG+iC8S+2GIsdYyA3Fp9zEVhDBTUV03MbjQCr3dTYP6+sfIri+BPjl/K5kKzixKq4v+XP5+5im6SK8OlWvtU21jfzfWlScB1pcW6NGbB/ZtE98vw7SfnZ5yZ+hkoDwblz1BjtMUVn1dgEA4Q2OVKK9C+9jNloAEF6E9wIXEzlOOX8XABDewtpr0oiv/xlsFaILAAjvClyOg4/Jw+P3nrLxAgAI71o03Q7bV78lVS4AILxd7Ie2Al7V71s2Qs0GGgAgvH4R60AOQFxe2hODAQDhTVp4AQAQXgAAhBfhBQBAeAEAEF6EFwAQXoQXAGwiweaStSuidb6aOEjDgecIL3TFTaUYNpm0i6ZT1H/m5pUNUs+ileu7EQtJ/m4PYlsLqwtDr9YKQX8+GyC8CG8KuLHnxVbTFxLKqJXxPe6DpVw65qcNSx9w53SrbmX2WrmlqJTWBRjhhaUV7haCm9r4mw6jfyr5t1TCmwiun3lr7TqejeX7IbwIb0zVnedJw2Vs1a+r9Esf1y7fi7tqdZW743PCsFuVxRlsCC/crPAmA++j3V0FGIv49vManOxxd4UV3YslXjHCi/BmKLrRiK/zcXu5fvne3GWBRfei8jXU/YDwwoWnK4Ms/doLt4uvUd8zwAcPle91xIsNJDallUnECC9ciM6iFrGeluz8G/3gCXL9eL5KAiT/PYQ3LuGVKEg3ibi4ZTLFWLJ4Jfw8tojIMJWebfHxtJG2/mZj7t0OUn0GsBhu+r0GOh0Q3jUEtxbSJuB80wkUtQjHMsY9sOicryLnD57sLQc18TmejRBeu8LbVrjdJw5/88npyHIF7FrH5hpLeoUz/uCp8vZ2tz8g0dnrRXhtCq+rcn1OGTY78LLPXfyVa38yzPmDJ9sTbu6ghJrwaHc4ILw36WG0+5sR7wbFV6naM2M3aH7wWNxkDCO87ZFgNeH55MVsiPAaEt12oOW8x1VZ8n1lg0dRdE08bofs5sBusCI8z2eHCK8NZGBlz6J7YTtYuWZ3LFZTeOcGKn7V68+yu8EljmUrPAhvixvfXgYS3rm0pSG8TngUT7K5ICDV68+yp9dbEA7CG7Xwuv7cechlwXKwILyawpP79SO8CK92tVuFFl7ZxEN4dR+1EV4t4X0+O8xZeLQ3F8Xq0b4HemgdW3ujTX1zLeAxWYseL1ZDphWf9tFhiarM+fob4X18eqQkvPP3H0/V0+pUhWd/Ms76+nPdXNMWHgsTKlSv30BGsZroulNtBoSn0BIdCzGJyu1k5Z0ccTkNesJjIK9BsbND/VHbHQueK67CgPAM1Q4QPDRR8Y9y/uDJUXgKEx8+zSDP/HqYhYC9u7ct9YpH0ec0Ue1pbrBZ+ODJzm6wNAhTI6/CQrVvQHjnFn7/Osdm7aRzEZKjJzxFbgE5qlWvgWoX4b1R9Va55tESC5lJ1Wtx8GVAy6WyMoED4dXxei22UAXeZCvvQEuw1jIDObxLNhrLnD50EN6rSFpWANExef8z+iflqu94NrZ8/b1PWTbkayO8C8RH0sp6rPys7+IHshwGKO3iqq/oS3StPGKvFF//gz8ra6KL8N4uvn1UvrG0TvUpvox3X1X5+j5KXH+/GET36geQp+pfPnAMjbRHeNcVoJM9X7v3sVV5PYkvle5a4tPu9JedK736+0T7GrSbjtu+BpWVacoI75bVb9vtUHSp8GI9Ett4vn5sl1Iz+jJa68Ftum0qPqX8u5iq3JUC3D4FVOsE34itEMO1I7wbCfBorX5XEav9ydDKIEtP1e82fb4lVa4n79OJcLFAgKrmz49no5gr3HVfBxFieS3Ol1yzxRY5hLcfD7g57dW0n4kd0VgSA/mzlANf3Am30dIquP47qfKzPpEGgPBCn08BIsbNBw5WAgDCCwCA8CK8AAAILwAAwgsAgPAivAAACC8AAMKL8AIAILwAAAgvwgsAgPACACC8AAAIL8ILAIDwAkB2SL6uxD9eisa8uiQSU3J4P4snhxXh3Yw2GvFkz40GKi4viUNscnhJ6gLwILhvQtA3HfczQHjjF95LIejVZiHgJ3sp5/MC9CO4deXqYe5aaTkgHeFdIrgycbj73LVKqmDeTYlVYlJVXZ6E0ExDkMddo8MVo3lt23lzlccJyyOENx7h9Thv7HwVVL/bM3j66m57r073bqzH0wffetqzvbfZ7K/6a2S6b4QjaVRFt/7g6mW8vcxiMzaHDeG9RXQ3sxUY+tiT2L738dmgvkfGa95LpQixVxF2026LDm/8gipYU3TfiC/Ca1d4exTdC+uBync19X0xrFe17T31zSenIxHuTj+EPKb6euNbHzeubd30K7r2bAeE97qn26voXgyE5N12y/1YV6sbVLirViX39+ZCUD+Wyu54D2/+IqaWpyCiK6+1T093xbJi/yC8b3BtYfNAa8S77irOVqh831/yfS2I7oX/m/oYdq2ninW7HRBeO8Ir48gDim6zpE2Nd17r5b7/ZHrY5z22tvh29HOj320PWu02bWNBRbeteg30+SK8rtr128Gw1pIDF9lXuU8nOx6theXr8XR5oelORoUTAWn2z9h6CP56X3rdEV594W1Po4UVXare/qyFZZ7vrRturvqqFIQgW+tBHvtVhFeqXuUPPIS38XZHWsKb4+GKpk3s8emRyv32ZLr4KWPjo6m+l/T9Gus1TdFmeNNlMhsivOrCW2oJr2Q+ZGgtlJr3240+X7ezPldfbc5AFj2/7oSa6gcdwquHayGbK64qF9F1vblz9XW96pXqx4TwnlsPEYS8ROvvXmrtQ3jz9HfPF9ZC8FVd8xo7B7JkccwV4UV4UxLelDfY3P1VGRLd1m64fLBCaVNtvYStRK0HhBfh1RZe+RnStBYkxMaW4L5Z073Lwju3vLQ3ghBehDfJijex7IbmQMTHp4Vd0T2di/XRbvKEygnAekB4bQlvlbvwYi2orCIy4bUf7r1RV4P26658ctCA8Bba94Cy8JapiK4kgkUguFELbzJJZ9otfBY6R0y19mgIr8Jx4ZSODXtOFAssvFZ6eLdJOovceug5jGi58Bp47TTfNBslR/VX8Y4UK95BzO8dyT+IxFpY7PHGsLm2tOc3YutBr3/aRii65iNi7yNb1sANs1Q5PBHrxppsoEVmLSztaigiFt9ok85CZ/Gay+RtHxV1qw79qrcIL7wnUVp1QRPFQiSVGTu5llXSmUJ3Q2Hp+vvOQ13ZxK5d9bYjf6h2V4lu+ESxXtaVlDLtwJbck85Cer3WDqQoVL2Ftd9/UK83slSyEGHlqk9aNo8N52E9iBiGsBysZmAEPGlUWfB2b1S9EpgToMMhtkSyJKyFVU9a7s0/T0h8o0o6672tTzmNbOWbLESYyapJACmLb/29Y7IYzCSKhXjSUpj/RdLZZfFtoyKrHJ8A3HHPccrtY4riW8QiugYTxfzcf3X1vnyXXbG3lJB19+Th73cQ1QdPX2+6GET3sviKJZDjVGELYeU9rdW+uuIIIKyHm90OVacPm0jn2Xn0fMdLKw3DuOnDXSZUFDGljyVoLWx+QtL5vWVy4htZ0plU6U2r3/oVcCm2QgoDRJtuh+13s6srjeoRIyfMNqmA5WtjEtwYEsWCHkt3zf1FiuIbY9KZiKl4wFIJX19iJ6SaW+zazYZr+L+V2BQx2QqbWhBtotnJ3o21PxnGmK0bUaJYP/bCGo+8CYpvuiHrKSNv1hvrab6jymPFdlh5p1V6s7dcq1Oi1kP8SWcAkT3BJGstXDmZ5stvTOqQRWJJZwDmq9xIE8XW2VPo3eJKItchwaQzAMvEnShmpHMm7a4HrAcAz9bCGGsB62E96+EzNmwAsBZuaVfUPn4urUxJHriINOkMQJuUEsUWWQtmumg8H3Ml6QwgUlJLFLu8xKc294I31sPz2WGi4jvGegBYIbqJhJWbtBZWCnBfCVsknQFgLSjEOQbfQNtafCVoJ1XrIaKkM4BA1kKZpuhGmveRYL5vlElnAH2QbKKYTCoxNJcP6wHrASDZsPLorIW1rAeSzgCixyWKlSSKRQRJZwAxWwskisVb/bZJZxUh67AJbhNn6M78F1dXLQiPpw+SeUQ0aC2kmigmlkk29w0h67DWY21zzr+psjZ5tC1SDUNXtBYIK0/LeiDpDG6rsDo/1pbR70xjLcSfKGa2+iXpDG5aCmXSxzyjeNIgUSwT64GQ9ewrrP7SrMa82dR/B+mHlWM9kHQWaaXb6+Ml4rscwspztx5IOsvx0bYK8ZjJq52XtYDVtKn1QNJZRps4Ad/01lOmQj9pkCgGC6pfQtbzeOMHfUNiORBWDplbD7lvvOkcP400dcqvn461AKsh6Yxq1+cR0Yw/6IapWgv0bfdV/ZJ0lpbwaiZcZeb/kSgG3cSXkPWUqi8eScNZC4SVQ3dIOktCDFSrpIysBcLKwWP1S9JZvILQnpBSfeNiLZAoBtuKL0lnkVZi+gEsqb4nSBQDrAesB4Q3s9eVsPI8rQeSzhCI7ISXsHIwYD2QdBbJ4zAeL9YCiWJpWQ+ErFuGrgY/kCgG9qpfQtaN2w2aVVrc/Z+ElYN964GkM5tVr2K7U8zVFGHlEFP1S9KZNeElq2HjDbSUrQUSxVK2HghZt2Y3kE62vidOohhgPWA9RFn1lrH5h4SVQzoCTNKZpao3XP9pRG/0xMPKC6yFXMWXpDMTMHMtL2uBRDFoIGTdjND0Kb7jiJ4ASBQDrIfYrYdYks76Et9YjpwSVg55ii9JZ8k9YseyY05YOWQPSWcWHrebEJ2q0+ZNJI+1CVsLJIrBhtUvIesmHr2dAJeb2AqxdC6QKAaQnfUQV9KZVE5tP2sjxMXFatqt6j+rxTamNzph5QArrQeSzsC7jYK1ALCy+iXpDLpWuW2/ckGiGMDG1gMh67BFlUuiGIAX64GkM1gLwsoBfFoPJJ3Bamsh2UQxrAXQsx5IOoPMrAUSxcBK9UvIOjQknihGWDkYE1+SzrKHsHIAJUg6y1R0CSsHUK5+CVnHWiBRDADrAeuhN2uBRDEAa5B0liaElQNYr35JOkvKWiCsHCAW8SVkPXpcolhJohgA1oMd6yHhpDMSxQBir35JOovKWiCsHCAp64GkswishTR7c7EWIG/rgZB1rAUSxQCwHjJOOks5UYywcoBF1gNJZ7pVLmHlANlWvySdKUBYOQDiS8g61gKJYgAq1gNJZ71CohgALBZgks4adj94dfed75zs3rZ2D9Z/nCasHABWi2+GSWcipvcOTvbuHUyKelX1mq+5yvsHJ0f39ifDRWJMWDkAbETq1sP9h9MHb+9PDjcU2pVCXK/R7qPGyx2mai2QKAaA9bD2+tVns/kH/3U2/9oPp3OPYrtwfeX7k/k3/nVKohgAbCG+iSSdieB+6cNJ74KbrgATVg4QnFiTzn78P7+b/+k/T4ML7vX17o+m87/5RZyJYlgLAJrVb2Qh6//0n2fqgnt5ffG7cVW/JIoBmLIebCediZdrocq9bcnPRlg5AGxhPdhMOvv5/34eZPOs65KfkbByANi8+jWWdCaiq7GBlor4Yi0AYD0kLbrGxJdEMYBIq1+1pDPxdGMUXSPiS6IYQPTWQ+DjxtY30kxvuBFWDpCQ9RAwZP1vn55GL7rn6y9/hrUAAMath4/++3fJiO55n2+AQxYkigEkLb49Jp3F7usuO+FGohgAdKaPpDNrp9J8rr/6OWHlAOCj+vWYdHb4f5/3Jnpf/Wj6+q9/fvry7//t9NG3/+P0C9ev493R6de/9oPps698f/KbPoN1fCaKYS0A5G49eEg662NDTQT37w6njze5nj8ZnX7hj34wKd55OPm9zY02EsUAwNEl6Uy8Xd8i9/4vTosu1yMC/OXvTV4Z6u0lrBwAFlS/WyadSa6uL3H70oeT3//DL0+/7uuapPr1Kb5bdjgQVg4AS8R3i5B1XwE4vkX3nAc/nD7WO1SBtQAAnq0HyWOwLLoXle9H05c+fs4vfzghUQwAeqx+10g689VCtukm2jb48nxX2Q0kigGAB+vh9qSzb/y0u83w9R9PX4W4Ftlw8yG8f/4vU8LKASCE9bA4ZN2HkA1/GU6svvrR9Nc9nWTDWgCAnqyHS8eNffi7oapdn1XvjcMUJIoBQO/Wg0s68xGIE8Lbvc6XPpycdvmZ33k4IVEMAFSq38E//ursd12F99v/fvYHoX92H729hJUDgArvjqY/63okWOXn/tHpsLPd8L3f/iF3AAAEpxagUUz+7jk+fN53vnOyyx0AABrCW8QovO5nR3gBAOFFeAEAVvD2/uQQqwEAIGjVeLLXRbz+eDQ91fi5fWyuIbwAEKXwarWTybSKrj83v30AUOH+w+mDrgIm43xC/9w+RgTx2wcAFeRxu6uADX52+uuQP7OnoJyC3z4AKNoN3UNyFg2w7Asfp9ZkU5HfPADoCe/+ZBxL1fvuT87+wNMQzAG/eQDQrHhHsURD+hr/vvuI0ewAoMjuwWTH1+ifPjscvM1dqyt8fusAYKHqLX2ImvT19iG+PoddSgsdv3EASMZu6EN8/YouNgMAWLEbajHyKW5iO3T1fGUjzddkYdrIAMAk9w9OjjyL3Pwvfjr9zTatZlLlfvG7k9e+fx6OCQOAKXwcplgWpiMjgpaJsOQvSIXbh+BS7QKAWbqmlW0ixH/2k9Pffvl7k1c9Ci3VLgDYx3m9VQghDLnERuG3CwBmubc/GSYmvNXuB4xuBwDr4nvQPQ/BTLX7cPqA3ygA2Lcc6goxEcthxG8TAOIR3/YoccziW/BbBIDo8BGUrrL2J2N8XQCIFolQRHQBAHQq3wrRBQAIiPN8S6uiK4c/EF0ASE98a2HrI9Oha5+u9B7z2wGApHGHLCxYD4VU4vxGACCb6jdUtsOCVTI3DQDyFeBHZ28FFGAEFwDgcgXcWBAephYvCrnh6C8AwIoqWETYbcRV27SFSRUtYkunAgDAltWwC1ofyLDJRUv+nsxciIH/B9tcEEv8ObYdAAAAAElFTkSuQmCCrYeP/vt3yYjueZ9vgEMWJIoBJC2+PSadxe7rLjvhRqIYAHSmj6Qza6fSfK6/+jlh5QDgo/r1mHR2+H+f9yZ6X/1o+vqvf3768u//7fTRt//j9AvXr+Pd0enXv/aD6bOvfH/ymz6DdXwmimEtAORuPXhIOutjQ00E9+8Op483uZ4/GZ1+4Y9+MCneeTj5vc2NNhLFAMDRJelMvF3fIvf+L06LLtcjAvzl701eGertJawcABZUv1smnUmuri9x+9KHk9//wy9Pv+7rmqT69Sm+W3Y4EFYOAEvEd4uQdV8BOL5F95wHP5w+1jtUgbUAAJ6tB8ljsCy6F5XvR9OXPn7OL384IVEMAHqsftdIOvPVQrbpJto2+PJ8V9kNJIoBgAfr4faks2/8tLvN8PUfT1+FuBbZcPMhvH/+L1PCygEghPWwOGTdh5ANfxlOrL760fTXPZ1kw1oAgJ6sh0vHjX34u6GqXZ9V743DFCSKAUDv1oNLOvMRiBPC273Olz6cnHb5md95OCFRDABUqt/BP/7q7Hddhffb/372B6F/dh+9vYSVA4AK746mP+t6JFjl5/7R6bCz3fC93/4hdwAABKcWoFFM/u45Pnzed75zsssdAAAawlvEKLzuZ0d4AQDhRXgBAFbw9v7kEKsBACBo1Xiy10W8/ng0PdX4uX1sriG8ABCl8Gq1k8m0iq4/N799AFDh/sPpg64CJuN8Qv/cPkYE8dsHABXkcburgA1+dvrrkD+zp6Ccgt8+ACjaDd1DchYNsOwLH6fWZFOR3zwA6Anv/mQcS9X77k/O/sDTEMwBv3kA0Kx4R7FEQ/oa/777iNHsAKDI7sFkx9fonz47HLzNXasrfH7rAGCh6i19iJr09fYhvj6HXUoLHb9xAEjGbuhDfP2KLjYDAFixG2ox8iluYjt09XxlI83XZGHayADAJPcPTo48i9z8L346/c02rWZS5X7xu5PXvn8ejgkDgCl8HKZYFqYjI4KWibDkL0iF24fgUu0CgFm6ppVtIsR/9pPT3375e5NXPQot1S4A2Md5vVUIIQy5xEbhtwsAZrm3PxkmJrzV7geMbgcA6+J70D0PwUy1+3D6gN8oANi3HOoKMRHLYcRvEwDiEd/2KHHM4lvwWw==;" vertex="1" parent="rqtoLYsZP0avv1NgUhm5-131">
          <mxGeometry x="30" y="39.940000000000055" width="60" height="68.06" as="geometry" />
        </mxCell>
        <mxCell id="rqtoLYsZP0avv1NgUhm5-135" value="Foundational Model" style="text;html=1;strokeColor=none;fillColor=none;align=left;verticalAlign=middle;whiteSpace=wrap;rounded=0;fontColor=#707070;" vertex="1" parent="rqtoLYsZP0avv1NgUhm5-131">
          <mxGeometry x="105" y="60" width="125" height="37.78" as="geometry" />
        </mxCell>
        <mxCell id="rqtoLYsZP0avv1NgUhm5-136" value="Vertex AI&amp;nbsp;&lt;div&gt;Gemini / PaLM 2&lt;/div&gt;" style="text;html=1;strokeColor=none;fillColor=none;align=center;verticalAlign=middle;whiteSpace=wrap;rounded=0;fontStyle=1;fontSize=15;fontColor=#999999;" vertex="1" parent="rqtoLYsZP0avv1NgUhm5-131">
          <mxGeometry x="90" y="25.649999999999636" width="130" height="50" as="geometry" />
        </mxCell>
        <mxCell id="rqtoLYsZP0avv1NgUhm5-137" value="us-central1" style="rounded=0;whiteSpace=wrap;html=1;fillColor=none;dashed=1;labelPosition=left;verticalLabelPosition=top;align=left;verticalAlign=top;spacingRight=0;spacingLeft=320;spacingTop=175;fontColor=#808080;" vertex="1" parent="rqtoLYsZP0avv1NgUhm5-131">
          <mxGeometry x="-22.670000000000073" y="-20" width="310" height="180" as="geometry" />
        </mxCell>
        <mxCell id="rqtoLYsZP0avv1NgUhm5-138" style="edgeStyle=orthogonalEdgeStyle;rounded=0;orthogonalLoop=1;jettySize=auto;html=1;entryX=1;entryY=0.5;entryDx=0;entryDy=0;startArrow=classic;startFill=1;exitX=0;exitY=0.75;exitDx=0;exitDy=0;" edge="1" parent="1" source="rqtoLYsZP0avv1NgUhm5-139" target="rqtoLYsZP0avv1NgUhm5-132">
          <mxGeometry relative="1" as="geometry">
            <mxPoint x="4877.67" y="6184" as="sourcePoint" />
          </mxGeometry>
        </mxCell>
        <mxCell id="rqtoLYsZP0avv1NgUhm5-139" value="Generative AI Studio" style="rounded=0;whiteSpace=wrap;fillColor=none;dashed=1;labelPosition=left;verticalLabelPosition=top;align=right;verticalAlign=bottom;spacingLeft=-50;html=1;spacingTop=100;spacingRight=-120;spacingBottom=-20;fontColor=#999999;strokeColor=#999999;" vertex="1" parent="1">
          <mxGeometry x="4877.67" y="6096" width="270" height="350" as="geometry" />
        </mxCell>
        <mxCell id="rqtoLYsZP0avv1NgUhm5-140" value="" style="rounded=0;whiteSpace=wrap;html=1;fillColor=#FFFFFF;fontColor=#333333;strokeColor=none;shadow=1;" vertex="1" parent="1">
          <mxGeometry x="4892.67" y="6121.65" width="240" height="90.35" as="geometry" />
        </mxCell>
        <mxCell id="rqtoLYsZP0avv1NgUhm5-141" value="" style="shape=image;verticalLabelPosition=bottom;labelBackgroundColor=default;verticalAlign=top;aspect=fixed;imageAspect=0;image=data:image/png,iVBORw0KGgoAAAANSUhEUgAAAV4AAAGNCAYAAABZgRmbAAAkdUlEQVR42u2d324cyXXG9Qh6g+wj8AEcgCstDBuGY2GDxAgSIxMkuzaCIBjEQJC7JWBS8tprexA7jmFrJSJw4lxkV7zJRW6CRm4WkAhoHsAXfedLNcwZ0jsCPOnTXaT4Zzj/urrOqarfDyjEkSgue9jzzemvTn3nzh0AAIBFPDv+/MGnx7PRpy9mRb3mC1Yhfy9fx6sFkBa7j87eurc/Gd4/ODm6dzAp6zW/tsrm7+qvka/lFesiti/ndz958fleLarlLWJ726rk38m/51UEiJd3vnOy68R2vuEq5N/yCm5T4dYCuqHg3hDgZ89nA15NgMgq3A9e3d1ScG8IMBXwmnz6fHbYUXCvrvr7Uf0CRCK6B5OdWjArD6J7vqr7D6dYkMushU+PZ2Ovonu+6u+L+ALYphbJgUfBvb54+l1Y6b54fdSL6F4SX15lAJuIJ9uj6CK+i3CbaPPe1/FsxKsNYMxekK4Fv/bCrbaDWBm84mIxPJ/tBBFdt569eL3Lqw5gymIoAohuu/YnPPm2FsOtvbl9rZJXHSAriwHL4Uq1W1efgUW3rXo5aAGQX7V76cBF3tWu79axtdfrI255AF1c69hcY2XdYqYjuq7qpb0MQLvaHWkJ79v7k0NsBuwGAGwG7Ib++eTFbKgpvNLCxq0PoCq8c82VqfAG6t1dcpSYWx9AB9e7qyq8WQbpuJjHueIquP0BdFBqI0N4Ffp3EV4AhBfhRXgBMrUaFFvJEF6EFyBbtIU3y6xehBcge+EtFYW3yvJFR3gB8kYOMaidXDs4yfP0KsILkH3FO1CseAcIL8ILkKv4Vho2g8x1Q3gRXoBMhfdkj5wGhBcAAiKVZ+CqN99qF+EFgHMkohFvF+EFgOCWQ/8RkVlbDAgvACyiz/YyRBfhBYCA4ovoIrwAsNp2GHjacKvu7U+GvKIILwCsgXQedKl+5d9mmcWA8AJAZwGWwPS6aq3XeKXgNl9zsofgIrwA4LEKlijHtv1MDl6c7Mn/lj/LujcX4QUAQHgRXgAAhBcAAOEFAEB4EV4AAIQXAADhRXgBABBeAACEF+EFAEB4AQAQXgAAhBfhBQBAeAEAEF6EFyBLzhPKLi+SyRDeXnj2cn732fPZ4NPj2ci9blfX89nhJy9mw2efkUOaKiIwbRTipLi+7h+cHDU5tAeTnRSvXSZSuFD0ctm0ifZ1yHyKMMLrQXBfvN799MXro42u63g2FpHmDkugunt09pYTnE3G4JSNCCdQBboPmmqrkT+JvAYIb0jBrStXD69PKcLNnRbn47SHceeN+MRb3S+tbtf+EJLvxR2F8K4WXbEUXswqb9d5PBtxt0UkugeTHU+iczEOJ6bKzw269DzePc4PIIQ3EJ+8+Hyvr2sVn5i7LgrRrfwLz6SKwf911sK8j8WId4R3WaXLZiKiO+9pVZaHQPZT6d6o/hn1jvBeEt3jzx8EuWZsB8uebhVAeEzaDu5DZx5iZe/5IrxOdF/O73r1dFcsNtxMVntFKOGRTTtz17/O6HZ/q0R4Ed470oMb+LpLpM4O7ajyYKLTLEuWQxCLgc02VcExJ7yubSz4tdPna6raLUMLj6WNJo3rz7rq7XEHf831+kj9w6c9iRb+2o9nYyRPH9evOtdYFqrekN7u9SVPGgivwpL/vgG7pdS6fo4X6+NOpakIj4Udfg+HRGgv2/gxO9ROvtHHbS2b4c0Hz4zWmjwfs9uK7+DkyMD1F2ofPLnaDW43f55rxaf9wSMeO9Kn+JjdtpDNFVdlQHg1r3+e7c0nXqOS8Kh/2ul73ByoyNXftSI82tefaprb6qqv/9NaZh+zEV6EV114lDfYtK8/28MUoQ8PuFVZyC1AeBHe3IUH4c2o6rXQzYDwgomKV/n4MMKr7fWGOsVmqH8V4UV48XgR3hwsh8pS72o7XUJReAnMuZO58JQILyHpYjns9Ci+lXx/gx822fYxQ/BwGHMHCBBeW+Jbpi66FxaLXjvdnGB0ExXvSFF4BggvwnutEtxwwGOkkxe02uks5FRAO8xS6/CEhVxehNeiKLUe6LabbqWcDMPbJpM3gqq3yDUWEeG1LsBthOQqC6KUr4tNVBS6GwruKkNVb/iErsrKFAqENxYR/uzsLRHWGyvypK2AXm9FKlnmXq+huWMIL2h7vTshLAc6GQyLb4AOB2tRiAgvpC++9O3athwkraxP8TU46BLhhaTF18oxaVAT38LidGGEF2yJrz/Pt4qhuwOuiq/fyRR2BzsivGAO1+1QdQk655BEvLgsh7JTlWs8bxbhBZvVby2ckh28QQVcipdL50I6yFBGGdOzbquYVMuxCArCC1GIsNgGUglfX9KtYPVYNHiugvcnQ7EPrqz6z2IUEYQXAADhBQBAeBFeAACEFwAA4UV4AQAQXgAAhBfhBQBAeO3T9LDKtIbj2ciFo19dcmhAelk5OACA8CK8HQW3mUKx8RiggnwCAIQX4d1UcNuUrqLzvDVOcwEgvAjvappsAiIRARBehDcMbraa/xDw+vvy6gIgvAhvKNFFfAEQXoT3Jk3HQoBhj2JjcLsDILzZC6+0gIUY9Hhp4GO0G25NW12CU5Y34Vu/ONu9sZ6mf/0ymUKyed/EQU6KdrX/v4iIxfE+CK9Vi6F798LG3Q6RPQ3sNP3Lq8PQq2bqRGKtdCKq7398OqzXuF7zJat67/Hp0Xsfnw0SqwoHTmTXEhMJTReBRngR3ttFpenTDSq6bdVb/3cjeW22/VAqYx/l3gjuk+nhCrG9VYTf/3i6F/P1t9Vth9E/+5OxdWFBeLWq3b431G5dr48s2wnuhJ6X6j5GG0JEc0vBvb7G7z2dRGUtNZbC+qN+1lkjhBfhvW4zVDrCW1e9BgdBOtEde77WKoYKXxg8fXW3FsvCk+herFjsh97Gu9ffk/HuCK+qzXAhvMa80J5E9/Km4iAC0R37Ft1YxLcR3W5ThaMTX4RXATe+XE14LZ1o61t0Lypfwx0dfVS6N9Zju5tOvVS615ZMIEZ4Mxdejz5m9D7vFkFA86033QxaLB493ZWbbhZbz8SHDSY4+5Mhwpuz8IZvIzPZViaWR9Drrj/wLN0HsvkVSHTPV2Hp+ncPJjuBBaeyYjkgvAiv5utQBve3DXU6BLEYri05dGHl+j13MKy5TvYQXoQ3W+ENXu0ay61QqHZNVb27j87eUhKdCuGdzOX1Z3MtQ/EJ6O3e2GizcA9888npSEl45xa8XvFbtUTHwuk2beG9kyO+c3dj7GrIvZ2uFsBSS3jlGLIB4Sm0RMdCh4Pm9UsXSZbC66ZM6AmP8qEC7T5m7Q8el8GgJbpzyXXIuuIzIDwu7EfrNRjdyRWNjSUrj9raFb+2xy0bXJrCK4c1MvV3zTxqK3R0mLJa9IRXq5fXgL+r7nErC69LHNMUXlXhkR11PM4wB0cWrPJOzrgs3nmO7VQIb7BDEwivZeFtYy9DX/vgTu4Er3qNtFIhvAgvwquwyZbrptqNqldyCsJ5vZWVI7O5C6+E1iC8CO8lv7sK0rt7MNlBdc/FN9AOv6VEslBz5qxmVRjYXCsQXju44HcshtSEyFosonY7nXY7mYuB1BPeJ9NDhNcWPfu9iG5o8bWaRasaBG8gIrLP/F3r+bwI71LxrRBdnUqwzGH6gt7oo1lp4fo1W8qk4kZ4beI838LHRhqe7oYbbp03n45nI4vZsxrettUQeLXTa8o2A8K7UfW7zVSOkirXjwCvWwGX8vUxDXhUSGmrLH0gdZgkHHVADsK7QQXcnnAbLa2C24MYIypc3yJci6l0JYiwXl/i4cY4TfeStRKw2p0NLV2/22SrQomuJKJZuG6Et/vrJ8viEE+IhIA9vYXF65dZaIGEt9T2dhFeAEuWQ/8bbZVlzztANm8lweuWKjaEFyBtv9f0hOEAfq8p0UV4AVKvfI9nY+vdHVfE13+GQ2lNdBFeAIO4WWxVKm1jm+KOE5c+2saseLoIL0AM4vumla7aJoEt1i6Py7ggnXKb6RKWJgkjvACxVsBiQRzPxrf1L0voTdNWF5GtsLb98Hj6wG2+Fbd6uLXYykk4Cz26CC8AAMKL8AIAILwAAAgvAADCi/ACACC8AAAIL8ILAIDwQkpI1oD0qTaHCtpjtYX83zYacjaMIYsAAOHdnDaP92TP5fHeNhaokK8hj9eH2H529pZMktgkCL2ZPJHAqS1AeHMXXvcaFduM/GECxTaC+3J+1wnu9lkFcmw2wVNcgPAyc23tVVABryu67Ryyylsc4vHnD3hVAeGNQ3jvP5w+8DxluKL6XSW6mY13B4QX4X2DG27Z1/WiASFFF/EFhNe+8LpKt+9rRgMW2Au9zxzDdgCE157wOk+3CnHNeL7noisbaf483dWeb4QdD/IzS8ucRD8uiIaUjo+imbZcf4DlcM9I9KPk7VrP3EV417YYimDXvT8Zo7p3ggx5vNHtEJX9cnsG760tdY0IJ9TR0UwhbuexLQtFL2RsEHm8cQlvz74ulsNtlVxQ0X3j9+4YF9ydLQR30YDLaG8wGdnj5q9VW4z9KZhAEY3wlgrXXuZd7Xbt1U2w6m0tBZ/X+/ootuq3qXA9zFyTqRTMXLMrvO2JNJ1rl828fIU3nLd7oxrMynaJaNKwG/GT9Gh3hPei2h1pXfvb+5PDLEW3eZzWEd3WbjC2EdV79R+B+Dofd97DMie+CG8tvO3RXq3rz9Nu8P9IHe/oczfOPWuLpUfRNSm+CG9T8dLVEV54m9HlasJrRYQCt9OZ7GV2Y9znAVZpxfPNXXhd767q9cvvIEd/t1AV3vq/n7Svu6TdzNJ9IO1fW3YubLfqyhrh1RdeC9eP8GYqvIrtdIOMLIYby0KrGcKL8CK8qW6oLdloM1TtzoMvA1Vv9laDYitZ3sKrJTqX+lsNfPiUal0dBo5OuwMSc42l7fVa8Dhz31zb/eBVfnnd2ptr2l0NWjaDJbuhFsCxlvDKhl7WwmMgs0Dp1NpFTu+dHAmVSGZ1d1/7+uWJQ/P62yPBOqJrxW7Q7GO1cIBAfga1k2sHJ0d3ckXx5Npc+zCBejudssctG1yqwltX2wYqvpFixade8QfK4CUo54bwhm+lMuPv5i68AXt3b13a94Ciz1tZ8TdD5fBavX6dx22lY8MWjgvnLryaG2tWhNcJT5FzToEb2x5YeE/27uROE+6d4cEJhBfhFRTayiqptK28/6XyDLzJlne1e1H1trv7VW5ZvAjv6RDh1dhkslfthfzwyToOcoHlMAjTQjYbWrlmNtfYXFOo+gqrGhDCcsg2CnKp5dD3gQpjyVzZC6/WqbVLIemW7gd3kqvqs2/X+iN2n5U/ortMfPvqcjAYh5i78Dq7oVQU36G1e6I38Y1AdN9Uvv5b7BDd9W2HKkV7AeG9Sg/TJtYPyjE6FLNpMfN4sEIOCsS2meT6e318AFV4upuIb7vh1jVEp7A81BLhVbUbCuvvAed5dhGfMuZDAq3vvf1rIFUu3QvbCnBzrHbTdrPXR9bG+iC8S+2GIsdYyA3Fp9zEVhDBTUV03MbjQCr3dTYP6+sfIri+BPjl/K5kKzixKq4v+XP5+5im6SK8OlWvtU21jfzfWlScB1pcW6NGbB/ZtE98vw7SfnZ5yZ+hkoDwblz1BjtMUVn1dgEA4Q2OVKK9C+9jNloAEF6E9wIXEzlOOX8XABDewtpr0oiv/xlsFaILAAjvClyOg4/Jw+P3nrLxAgAI71o03Q7bV78lVS4AILxd7Ie2Al7V71s2Qs0GGgAgvH4R60AOQFxe2hODAQDhTVp4AQAQXgAAhBfhBQBAeAEAEF6EFwAQXoQXAGwiweaStSuidb6aOEjDgecIL3TFTaUYNpm0i6ZT1H/m5pUNUs+ileu7EQtJ/m4PYlsLqwtDr9YKQX8+GyC8CG8KuLHnxVbTFxLKqJXxPe6DpVw65qcNSx9w53SrbmX2WrmlqJTWBRjhhaUV7haCm9r4mw6jfyr5t1TCmwiun3lr7TqejeX7IbwIb0zVnedJw2Vs1a+r9Esf1y7fi7tqdZW743PCsFuVxRlsCC/crPAmA++j3V0FGIv49vManOxxd4UV3YslXjHCi/BmKLrRiK/zcXu5fvne3GWBRfei8jXU/YDwwoWnK4Ms/doLt4uvUd8zwAcPle91xIsNJDallUnECC9ciM6iFrGeluz8G/3gCXL9eL5KAiT/PYQ3LuGVKEg3ibi4ZTLFWLJ4Jfw8tojIMJWebfHxtJG2/mZj7t0OUn0GsBhu+r0GOh0Q3jUEtxbSJuB80wkUtQjHMsY9sOicryLnD57sLQc18TmejRBeu8LbVrjdJw5/88npyHIF7FrH5hpLeoUz/uCp8vZ2tz8g0dnrRXhtCq+rcn1OGTY78LLPXfyVa38yzPmDJ9sTbu6ghJrwaHc4ILw36WG0+5sR7wbFV6naM2M3aH7wWNxkDCO87ZFgNeH55MVsiPAaEt12oOW8x1VZ8n1lg0dRdE08bofs5sBusCI8z2eHCK8NZGBlz6J7YTtYuWZ3LFZTeOcGKn7V68+yu8EljmUrPAhvixvfXgYS3rm0pSG8TngUT7K5ICDV68+yp9dbEA7CG7Xwuv7cechlwXKwILyawpP79SO8CK92tVuFFl7ZxEN4dR+1EV4t4X0+O8xZeLQ3F8Xq0b4HemgdW3ujTX1zLeAxWYseL1ZDphWf9tFhiarM+fob4X18eqQkvPP3H0/V0+pUhWd/Ms76+nPdXNMWHgsTKlSv30BGsZroulNtBoSn0BIdCzGJyu1k5Z0ccTkNesJjIK9BsbND/VHbHQueK67CgPAM1Q4QPDRR8Y9y/uDJUXgKEx8+zSDP/HqYhYC9u7ct9YpH0ec0Ue1pbrBZ+ODJzm6wNAhTI6/CQrVvQHjnFn7/Osdm7aRzEZKjJzxFbgE5qlWvgWoX4b1R9Va55tESC5lJ1Wtx8GVAy6WyMoED4dXxei22UAXeZCvvQEuw1jIDObxLNhrLnD50EN6rSFpWANExef8z+iflqu94NrZ8/b1PWTbkayO8C8RH0sp6rPys7+IHshwGKO3iqq/oS3StPGKvFF//gz8ra6KL8N4uvn1UvrG0TvUpvox3X1X5+j5KXH+/GET36geQp+pfPnAMjbRHeNcVoJM9X7v3sVV5PYkvle5a4tPu9JedK736+0T7GrSbjtu+BpWVacoI75bVb9vtUHSp8GI9Ett4vn5sl1Iz+jJa68Ftum0qPqX8u5iq3JUC3D4FVOsE34itEMO1I7wbCfBorX5XEav9ydDKIEtP1e82fb4lVa4n79OJcLFAgKrmz49no5gr3HVfBxFieS3Ol1yzxRY5hLcfD7g57dW0n4kd0VgSA/mzlANf3Am30dIquP47qfKzPpEGgPBCn08BIsbNBw5WAgDCCwCA8CK8AAAILwAAwgsAgPAivAAACC8AAMKL8AIAILwAAAgvwgsAgPACACC8AAAIL8ILAIDwAkB2SL6uxD9eisa8uiQSU3J4P4snhxXh3Yw2GvFkz40GKi4viUNscnhJ6gLwILhvQtA3HfczQHjjF95LIejVZiHgJ3sp5/MC9CO4deXqYe5aaTkgHeFdIrgycbj73LVKqmDeTYlVYlJVXZ6E0ExDkMddo8MVo3lt23lzlccJyyOENx7h9Thv7HwVVL/bM3j66m57r073bqzH0wffetqzvbfZ7K/6a2S6b4QjaVRFt/7g6mW8vcxiMzaHDeG9RXQ3sxUY+tiT2L738dmgvkfGa95LpQixVxF2026LDm/8gipYU3TfiC/Ca1d4exTdC+uBync19X0xrFe17T31zSenIxHuTj+EPKb6euNbHzeubd30K7r2bAeE97qn26voXgyE5N12y/1YV6sbVLirViX39+ZCUD+Wyu54D2/+IqaWpyCiK6+1T093xbJi/yC8b3BtYfNAa8S77irOVqh831/yfS2I7oX/m/oYdq2ninW7HRBeO8Ir48gDim6zpE2Nd17r5b7/ZHrY5z22tvh29HOj320PWu02bWNBRbeteg30+SK8rtr128Gw1pIDF9lXuU8nOx6theXr8XR5oelORoUTAWn2z9h6CP56X3rdEV594W1Po4UVXare/qyFZZ7vrRturvqqFIQgW+tBHvtVhFeqXuUPPIS38XZHWsKb4+GKpk3s8emRyv32ZLr4KWPjo6m+l/T9Gus1TdFmeNNlMhsivOrCW2oJr2Q+ZGgtlJr3240+X7ezPldfbc5AFj2/7oSa6gcdwquHayGbK64qF9F1vblz9XW96pXqx4TwnlsPEYS8ROvvXmrtQ3jz9HfPF9ZC8FVd8xo7B7JkccwV4UV4UxLelDfY3P1VGRLd1m64fLBCaVNtvYStRK0HhBfh1RZe+RnStBYkxMaW4L5Z073Lwju3vLQ3ghBehDfJijex7IbmQMTHp4Vd0T2di/XRbvKEygnAekB4bQlvlbvwYi2orCIy4bUf7r1RV4P26658ctCA8Bba94Cy8JapiK4kgkUguFELbzJJZ9otfBY6R0y19mgIr8Jx4ZSODXtOFAssvFZ6eLdJOovceug5jGi58Bp47TTfNBslR/VX8Y4UK95BzO8dyT+IxFpY7PHGsLm2tOc3YutBr3/aRii65iNi7yNb1sANs1Q5PBHrxppsoEVmLSztaigiFt9ok85CZ/Gay+RtHxV1qw79qrcIL7wnUVp1QRPFQiSVGTu5llXSmUJ3Q2Hp+vvOQ13ZxK5d9bYjf6h2V4lu+ESxXtaVlDLtwJbck85Cer3WDqQoVL2Ftd9/UK83slSyEGHlqk9aNo8N52E9iBiGsBysZmAEPGlUWfB2b1S9EpgToMMhtkSyJKyFVU9a7s0/T0h8o0o6672tTzmNbOWbLESYyapJACmLb/29Y7IYzCSKhXjSUpj/RdLZZfFtoyKrHJ8A3HHPccrtY4riW8QiugYTxfzcf3X1vnyXXbG3lJB19+Th73cQ1QdPX2+6GET3sviKJZDjVGELYeU9rdW+uuIIIKyHm90OVacPm0jn2Xn0fMdLKw3DuOnDXSZUFDGljyVoLWx+QtL5vWVy4htZ0plU6U2r3/oVcCm2QgoDRJtuh+13s6srjeoRIyfMNqmA5WtjEtwYEsWCHkt3zf1FiuIbY9KZiKl4wFIJX19iJ6SaW+zazYZr+L+V2BQx2QqbWhBtotnJ3o21PxnGmK0bUaJYP/bCGo+8CYpvuiHrKSNv1hvrab6jymPFdlh5p1V6s7dcq1Oi1kP8SWcAkT3BJGstXDmZ5stvTOqQRWJJZwDmq9xIE8XW2VPo3eJKItchwaQzAMvEnShmpHMm7a4HrAcAz9bCGGsB62E96+EzNmwAsBZuaVfUPn4urUxJHriINOkMQJuUEsUWWQtmumg8H3Ml6QwgUlJLFLu8xKc294I31sPz2WGi4jvGegBYIbqJhJWbtBZWCnBfCVsknQFgLSjEOQbfQNtafCVoJ1XrIaKkM4BA1kKZpuhGmveRYL5vlElnAH2QbKKYTCoxNJcP6wHrASDZsPLorIW1rAeSzgCixyWKlSSKRQRJZwAxWwskisVb/bZJZxUh67AJbhNn6M78F1dXLQiPpw+SeUQ0aC2kmigmlkk29w0h67DWY21zzr+psjZ5tC1SDUNXtBYIK0/LeiDpDG6rsDo/1pbR70xjLcSfKGa2+iXpDG5aCmXSxzyjeNIgUSwT64GQ9ewrrP7SrMa82dR/B+mHlWM9kHQWaaXb6+Ml4rscwspztx5IOsvx0bYK8ZjJq52XtYDVtKn1QNJZRps4Ad/01lOmQj9pkCgGC6pfQtbzeOMHfUNiORBWDplbD7lvvOkcP400dcqvn461AKsh6Yxq1+cR0Yw/6IapWgv0bfdV/ZJ0lpbwaiZcZeb/kSgG3cSXkPWUqi8eScNZC4SVQ3dIOktCDFSrpIysBcLKwWP1S9JZvILQnpBSfeNiLZAoBtuKL0lnkVZi+gEsqb4nSBQDrAesB4Q3s9eVsPI8rQeSzhCI7ISXsHIwYD2QdBbJ4zAeL9YCiWJpWQ+ErFuGrgY/kCgG9qpfQtaN2w2aVVrc/Z+ElYN964GkM5tVr2K7U8zVFGHlEFP1S9KZNeElq2HjDbSUrQUSxVK2HghZt2Y3kE62vidOohhgPWA9RFn1lrH5h4SVQzoCTNKZpao3XP9pRG/0xMPKC6yFXMWXpDMTMHMtL2uBRDFoIGTdjND0Kb7jiJ4ASBQDrIfYrYdYks76Et9YjpwSVg55ii9JZ8k9YseyY05YOWQPSWcWHrebEJ2q0+ZNJI+1CVsLJIrBhtUvIesmHr2dAJeb2AqxdC6QKAaQnfUQV9KZVE5tP2sjxMXFatqt6j+rxTamNzph5QArrQeSzsC7jYK1ALCy+iXpDLpWuW2/ckGiGMDG1gMh67BFlUuiGIAX64GkM1gLwsoBfFoPJJ3Bamsh2UQxrAXQsx5IOoPMrAUSxcBK9UvIOjQknihGWDkYE1+SzrKHsHIAJUg6y1R0CSsHUK5+CVnHWiBRDADrAeuhN2uBRDEAa5B0liaElQNYr35JOkvKWiCsHCAW8SVkPXpcolhJohgA1oMd6yHhpDMSxQBir35JOovKWiCsHCAp64GkswishTR7c7EWIG/rgZB1rAUSxQCwHjJOOks5UYywcoBF1gNJZ7pVLmHlANlWvySdKUBYOQDiS8g61gKJYgAq1gNJZ71CohgALBZgks4adj94dfed75zs3rZ2D9Z/nCasHABWi2+GSWcipvcOTvbuHUyKelX1mq+5yvsHJ0f39ifDRWJMWDkAbETq1sP9h9MHb+9PDjcU2pVCXK/R7qPGyx2mai2QKAaA9bD2+tVns/kH/3U2/9oPp3OPYrtwfeX7k/k3/nVKohgAbCG+iSSdieB+6cNJ74KbrgATVg4QnFiTzn78P7+b/+k/T4ML7vX17o+m87/5RZyJYlgLAJrVb2Qh6//0n2fqgnt5ffG7cVW/JIoBmLIebCediZdrocq9bcnPRlg5AGxhPdhMOvv5/34eZPOs65KfkbByANi8+jWWdCaiq7GBlor4Yi0AYD0kLbrGxJdEMYBIq1+1pDPxdGMUXSPiS6IYQPTWQ+DjxtY30kxvuBFWDpCQ9RAwZP1vn55GL7rn6y9/hrUAAMath4/++3fJiO55n2+AQxYkigEkLb49Jp3F7usuO+FGohgAdKaPpDNrp9J8rr/6OWHlAOCj+vWYdHb4f5/3Jnpf/Wj6+q9/fvry7//t9NG3/+P0C9ev493R6de/9oPps698f/KbPoN1fCaKYS0A5G49eEg662NDTQT37w6njze5nj8ZnX7hj34wKd55OPm9zY02EsUAwNEl6Uy8Xd8i9/4vTosu1yMC/OXvTV4Z6u0lrBwAFlS/WyadSa6uL3H70oeT3//DL0+/7uuapPr1Kb5bdjgQVg4AS8R3i5B1XwE4vkX3nAc/nD7WO1SBtQAAnq0HyWOwLLoXle9H05c+fs4vfzghUQwAeqx+10g689VCtukm2jb48nxX2Q0kigGAB+vh9qSzb/y0u83w9R9PX4W4Ftlw8yG8f/4vU8LKASCE9bA4ZN2HkA1/GU6svvrR9Nc9nWTDWgCAnqyHS8eNffi7oapdn1XvjcMUJIoBQO/Wg0s68xGIE8Lbvc6XPpycdvmZ33k4IVEMAFSq38E//ursd12F99v/fvYHoX92H729hJUDgArvjqY/63okWOXn/tHpsLPd8L3f/iF3AAAEpxagUUz+7jk+fN53vnOyyx0AABrCW8QovO5nR3gBAOFFeAEAVvD2/uQQqwEAIGjVeLLXRbz+eDQ91fi5fWyuIbwAEKXwarWTybSKrj83v30AUOH+w+mDrgIm43xC/9w+RgTx2wcAFeRxu6uADX52+uuQP7OnoJyC3z4AKNoN3UNyFg2w7Asfp9ZkU5HfPADoCe/+ZBxL1fvuT87+wNMQzAG/eQDQrHhHsURD+hr/vvuI0ewAoMjuwWTH1+ifPjscvM1dqyt8fusAYKHqLX2ImvT19iG+PoddSgsdv3EASMZu6EN8/YouNgMAWLEbajHyKW5iO3T1fGUjzddkYdrIAMAk9w9OjjyL3Pwvfjr9zTatZlLlfvG7k9e+fx6OCQOAKXwcplgWpiMjgpaJsOQvSIXbh+BS7QKAWbqmlW0ixH/2k9Pffvl7k1c9Ci3VLgDYx3m9VQghDLnERuG3CwBmubc/GSYmvNXuB4xuBwDr4nvQPQ/BTLX7cPqA3ygA2Lcc6goxEcthxG8TAOIR3/YoccziW/BbBIDo8BGUrrL2J2N8XQCIFolQRHQBAHQq3wrRBQAIiPN8S6uiK4c/EF0ASE98a2HrI9Oha5+u9B7z2wGApHGHLCxYD4VU4vxGACCb6jdUtsOCVTI3DQDyFeBHZ28FFGAEFwDgcgXcWBAephYvCrnh6C8AwIoqWETYbcRV27SFSRUtYkunAgDAltWwC1ofyLDJRUv+nsxciIH/B9tcEEv8ObYdAAAAAElFTkSuQmCCrYeP/vt3yYjueZ9vgEMWJIoBJC2+PSadxe7rLjvhRqIYAHSmj6Qza6fSfK6/+jlh5QDgo/r1mHR2+H+f9yZ6X/1o+vqvf3768u//7fTRt//j9AvXr+Pd0enXv/aD6bOvfH/ymz6DdXwmimEtAORuPXhIOutjQ00E9+8Op483uZ4/GZ1+4Y9+MCneeTj5vc2NNhLFAMDRJelMvF3fIvf+L06LLtcjAvzl701eGertJawcABZUv1smnUmuri9x+9KHk9//wy9Pv+7rmqT69Sm+W3Y4EFYOAEvEd4uQdV8BOL5F95wHP5w+1jtUgbUAAJ6tB8ljsCy6F5XvR9OXPn7OL384IVEMAHqsftdIOvPVQrbpJto2+PJ8V9kNJIoBgAfr4faks2/8tLvN8PUfT1+FuBbZcPMhvH/+L1PCygEghPWwOGTdh5ANfxlOrL760fTXPZ1kw1oAgJ6sh0vHjX34u6GqXZ9V743DFCSKAUDv1oNLOvMRiBPC273Olz6cnHb5md95OCFRDABUqt/BP/7q7Hddhffb/372B6F/dh+9vYSVA4AK746mP+t6JFjl5/7R6bCz3fC93/4hdwAABKcWoFFM/u45Pnzed75zsssdAAAawlvEKLzuZ0d4AQDhRXgBAFbw9v7kEKsBACBo1Xiy10W8/ng0PdX4uX1sriG8ABCl8Gq1k8m0iq4/N799AFDh/sPpg64CJuN8Qv/cPkYE8dsHABXkcburgA1+dvrrkD+zp6Ccgt8+ACjaDd1DchYNsOwLH6fWZFOR3zwA6Anv/mQcS9X77k/O/sDTEMwBv3kA0Kx4R7FEQ/oa/777iNHsAKDI7sFkx9fonz47HLzNXasrfH7rAGCh6i19iJr09fYhvj6HXUoLHb9xAEjGbuhDfP2KLjYDAFixG2ox8iluYjt09XxlI83XZGHayADAJPcPTo48i9z8L346/c02rWZS5X7xu5PXvn8ejgkDgCl8HKZYFqYjI4KWibDkL0iF24fgUu0CgFm6ppVtIsR/9pPT3375e5NXPQot1S4A2Md5vVUIIQy5xEbhtwsAZrm3PxkmJrzV7geMbgcA6+J70D0PwUy1+3D6gN8oANi3HOoKMRHLYcRvEwDiEd/2KHHM4lvwWw==;" vertex="1" parent="1">
          <mxGeometry x="4907.67" y="6135.9400000000005" width="60" height="68.06" as="geometry" />
        </mxCell>
        <mxCell id="rqtoLYsZP0avv1NgUhm5-142" value="Text Generation" style="text;html=1;strokeColor=none;fillColor=none;align=left;verticalAlign=middle;whiteSpace=wrap;rounded=0;fontColor=#707070;" vertex="1" parent="1">
          <mxGeometry x="4982.67" y="6156" width="125" height="37.78" as="geometry" />
        </mxCell>
        <mxCell id="rqtoLYsZP0avv1NgUhm5-143" value="" style="rounded=0;whiteSpace=wrap;html=1;fillColor=#FFFFFF;fontColor=#333333;strokeColor=none;shadow=1;" vertex="1" parent="1">
          <mxGeometry x="4892.67" y="6227" width="240" height="90.35" as="geometry" />
        </mxCell>
        <mxCell id="rqtoLYsZP0avv1NgUhm5-144" value="" style="shape=image;verticalLabelPosition=bottom;labelBackgroundColor=default;verticalAlign=top;aspect=fixed;imageAspect=0;image=data:image/png,iVBORw0KGgoAAAANSUhEUgAAAV4AAAGNCAYAAABZgRmbAAAkdUlEQVR42u2d324cyXXG9Qh6g+wj8AEcgCstDBuGY2GDxAgSIxMkuzaCIBjEQJC7JWBS8tprexA7jmFrJSJw4lxkV7zJRW6CRm4WkAhoHsAXfedLNcwZ0jsCPOnTXaT4Zzj/urrOqarfDyjEkSgue9jzzemvTn3nzh0AAIBFPDv+/MGnx7PRpy9mRb3mC1Yhfy9fx6sFkBa7j87eurc/Gd4/ODm6dzAp6zW/tsrm7+qvka/lFesiti/ndz958fleLarlLWJ726rk38m/51UEiJd3vnOy68R2vuEq5N/yCm5T4dYCuqHg3hDgZ89nA15NgMgq3A9e3d1ScG8IMBXwmnz6fHbYUXCvrvr7Uf0CRCK6B5OdWjArD6J7vqr7D6dYkMushU+PZ2Ovonu+6u+L+ALYphbJgUfBvb54+l1Y6b54fdSL6F4SX15lAJuIJ9uj6CK+i3CbaPPe1/FsxKsNYMxekK4Fv/bCrbaDWBm84mIxPJ/tBBFdt569eL3Lqw5gymIoAohuu/YnPPm2FsOtvbl9rZJXHSAriwHL4Uq1W1efgUW3rXo5aAGQX7V76cBF3tWu79axtdfrI255AF1c69hcY2XdYqYjuq7qpb0MQLvaHWkJ79v7k0NsBuwGAGwG7Ib++eTFbKgpvNLCxq0PoCq8c82VqfAG6t1dcpSYWx9AB9e7qyq8WQbpuJjHueIquP0BdFBqI0N4Ffp3EV4AhBfhRXgBMrUaFFvJEF6EFyBbtIU3y6xehBcge+EtFYW3yvJFR3gB8kYOMaidXDs4yfP0KsILkH3FO1CseAcIL8ILkKv4Vho2g8x1Q3gRXoBMhfdkj5wGhBcAAiKVZ+CqN99qF+EFgHMkohFvF+EFgOCWQ/8RkVlbDAgvACyiz/YyRBfhBYCA4ovoIrwAsNp2GHjacKvu7U+GvKIILwCsgXQedKl+5d9mmcWA8AJAZwGWwPS6aq3XeKXgNl9zsofgIrwA4LEKlijHtv1MDl6c7Mn/lj/LujcX4QUAQHgRXgAAhBcAAOEFAEB4EV4AAIQXAADhRXgBABBeAACEF+EFAEB4AQAQXgAAhBfhBQBAeAEAEF6EFyBLzhPKLi+SyRDeXnj2cn732fPZ4NPj2ci9blfX89nhJy9mw2efkUOaKiIwbRTipLi+7h+cHDU5tAeTnRSvXSZSuFD0ctm0ifZ1yHyKMMLrQXBfvN799MXro42u63g2FpHmDkugunt09pYTnE3G4JSNCCdQBboPmmqrkT+JvAYIb0jBrStXD69PKcLNnRbn47SHceeN+MRb3S+tbtf+EJLvxR2F8K4WXbEUXswqb9d5PBtxt0UkugeTHU+iczEOJ6bKzw269DzePc4PIIQ3EJ+8+Hyvr2sVn5i7LgrRrfwLz6SKwf911sK8j8WId4R3WaXLZiKiO+9pVZaHQPZT6d6o/hn1jvBeEt3jzx8EuWZsB8uebhVAeEzaDu5DZx5iZe/5IrxOdF/O73r1dFcsNtxMVntFKOGRTTtz17/O6HZ/q0R4Ed470oMb+LpLpM4O7ajyYKLTLEuWQxCLgc02VcExJ7yubSz4tdPna6raLUMLj6WNJo3rz7rq7XEHf831+kj9w6c9iRb+2o9nYyRPH9evOtdYFqrekN7u9SVPGgivwpL/vgG7pdS6fo4X6+NOpakIj4Udfg+HRGgv2/gxO9ROvtHHbS2b4c0Hz4zWmjwfs9uK7+DkyMD1F2ofPLnaDW43f55rxaf9wSMeO9Kn+JjdtpDNFVdlQHg1r3+e7c0nXqOS8Kh/2ul73ByoyNXftSI82tefaprb6qqv/9NaZh+zEV6EV114lDfYtK8/28MUoQ8PuFVZyC1AeBHe3IUH4c2o6rXQzYDwgomKV/n4MMKr7fWGOsVmqH8V4UV48XgR3hwsh8pS72o7XUJReAnMuZO58JQILyHpYjns9Ci+lXx/gx822fYxQ/BwGHMHCBBeW+Jbpi66FxaLXjvdnGB0ExXvSFF4BggvwnutEtxwwGOkkxe02uks5FRAO8xS6/CEhVxehNeiKLUe6LabbqWcDMPbJpM3gqq3yDUWEeG1LsBthOQqC6KUr4tNVBS6GwruKkNVb/iErsrKFAqENxYR/uzsLRHWGyvypK2AXm9FKlnmXq+huWMIL2h7vTshLAc6GQyLb4AOB2tRiAgvpC++9O3athwkraxP8TU46BLhhaTF18oxaVAT38LidGGEF2yJrz/Pt4qhuwOuiq/fyRR2BzsivGAO1+1QdQk655BEvLgsh7JTlWs8bxbhBZvVby2ckh28QQVcipdL50I6yFBGGdOzbquYVMuxCArCC1GIsNgGUglfX9KtYPVYNHiugvcnQ7EPrqz6z2IUEYQXAADhBQBAeBFeAACEFwAA4UV4AQAQXgAAhBfhBQBAeO3T9LDKtIbj2ciFo19dcmhAelk5OACA8CK8HQW3mUKx8RiggnwCAIQX4d1UcNuUrqLzvDVOcwEgvAjvappsAiIRARBehDcMbraa/xDw+vvy6gIgvAhvKNFFfAEQXoT3Jk3HQoBhj2JjcLsDILzZC6+0gIUY9Hhp4GO0G25NW12CU5Y34Vu/ONu9sZ6mf/0ymUKyed/EQU6KdrX/v4iIxfE+CK9Vi6F798LG3Q6RPQ3sNP3Lq8PQq2bqRGKtdCKq7398OqzXuF7zJat67/Hp0Xsfnw0SqwoHTmTXEhMJTReBRngR3ttFpenTDSq6bdVb/3cjeW22/VAqYx/l3gjuk+nhCrG9VYTf/3i6F/P1t9Vth9E/+5OxdWFBeLWq3b431G5dr48s2wnuhJ6X6j5GG0JEc0vBvb7G7z2dRGUtNZbC+qN+1lkjhBfhvW4zVDrCW1e9BgdBOtEde77WKoYKXxg8fXW3FsvCk+herFjsh97Gu9ffk/HuCK+qzXAhvMa80J5E9/Km4iAC0R37Ft1YxLcR3W5ThaMTX4RXATe+XE14LZ1o61t0Lypfwx0dfVS6N9Zju5tOvVS615ZMIEZ4Mxdejz5m9D7vFkFA86033QxaLB493ZWbbhZbz8SHDSY4+5Mhwpuz8IZvIzPZViaWR9Drrj/wLN0HsvkVSHTPV2Hp+ncPJjuBBaeyYjkgvAiv5utQBve3DXU6BLEYri05dGHl+j13MKy5TvYQXoQ3W+ENXu0ay61QqHZNVb27j87eUhKdCuGdzOX1Z3MtQ/EJ6O3e2GizcA9888npSEl45xa8XvFbtUTHwuk2beG9kyO+c3dj7GrIvZ2uFsBSS3jlGLIB4Sm0RMdCh4Pm9UsXSZbC66ZM6AmP8qEC7T5m7Q8el8GgJbpzyXXIuuIzIDwu7EfrNRjdyRWNjSUrj9raFb+2xy0bXJrCK4c1MvV3zTxqK3R0mLJa9IRXq5fXgL+r7nErC69LHNMUXlXhkR11PM4wB0cWrPJOzrgs3nmO7VQIb7BDEwivZeFtYy9DX/vgTu4Er3qNtFIhvAgvwquwyZbrptqNqldyCsJ5vZWVI7O5C6+E1iC8CO8lv7sK0rt7MNlBdc/FN9AOv6VEslBz5qxmVRjYXCsQXju44HcshtSEyFosonY7nXY7mYuB1BPeJ9NDhNcWPfu9iG5o8bWaRasaBG8gIrLP/F3r+bwI71LxrRBdnUqwzGH6gt7oo1lp4fo1W8qk4kZ4beI838LHRhqe7oYbbp03n45nI4vZsxrettUQeLXTa8o2A8K7UfW7zVSOkirXjwCvWwGX8vUxDXhUSGmrLH0gdZgkHHVADsK7QQXcnnAbLa2C24MYIypc3yJci6l0JYiwXl/i4cY4TfeStRKw2p0NLV2/22SrQomuJKJZuG6Et/vrJ8viEE+IhIA9vYXF65dZaIGEt9T2dhFeAEuWQ/8bbZVlzztANm8lweuWKjaEFyBtv9f0hOEAfq8p0UV4AVKvfI9nY+vdHVfE13+GQ2lNdBFeAIO4WWxVKm1jm+KOE5c+2saseLoIL0AM4vumla7aJoEt1i6Py7ggnXKb6RKWJgkjvACxVsBiQRzPxrf1L0voTdNWF5GtsLb98Hj6wG2+Fbd6uLXYykk4Cz26CC8AAMKL8AIAILwAAAgvAADCi/ACACC8AAAIL8ILAIDwQkpI1oD0qTaHCtpjtYX83zYacjaMIYsAAOHdnDaP92TP5fHeNhaokK8hj9eH2H529pZMktgkCL2ZPJHAqS1AeHMXXvcaFduM/GECxTaC+3J+1wnu9lkFcmw2wVNcgPAyc23tVVABryu67Ryyylsc4vHnD3hVAeGNQ3jvP5w+8DxluKL6XSW6mY13B4QX4X2DG27Z1/WiASFFF/EFhNe+8LpKt+9rRgMW2Au9zxzDdgCE157wOk+3CnHNeL7noisbaf483dWeb4QdD/IzS8ucRD8uiIaUjo+imbZcf4DlcM9I9KPk7VrP3EV417YYimDXvT8Zo7p3ggx5vNHtEJX9cnsG760tdY0IJ9TR0UwhbuexLQtFL2RsEHm8cQlvz74ulsNtlVxQ0X3j9+4YF9ydLQR30YDLaG8wGdnj5q9VW4z9KZhAEY3wlgrXXuZd7Xbt1U2w6m0tBZ/X+/ootuq3qXA9zFyTqRTMXLMrvO2JNJ1rl828fIU3nLd7oxrMynaJaNKwG/GT9Gh3hPei2h1pXfvb+5PDLEW3eZzWEd3WbjC2EdV79R+B+Dofd97DMie+CG8tvO3RXq3rz9Nu8P9IHe/oczfOPWuLpUfRNSm+CG9T8dLVEV54m9HlasJrRYQCt9OZ7GV2Y9znAVZpxfPNXXhd767q9cvvIEd/t1AV3vq/n7Svu6TdzNJ9IO1fW3YubLfqyhrh1RdeC9eP8GYqvIrtdIOMLIYby0KrGcKL8CK8qW6oLdloM1TtzoMvA1Vv9laDYitZ3sKrJTqX+lsNfPiUal0dBo5OuwMSc42l7fVa8Dhz31zb/eBVfnnd2ptr2l0NWjaDJbuhFsCxlvDKhl7WwmMgs0Dp1NpFTu+dHAmVSGZ1d1/7+uWJQ/P62yPBOqJrxW7Q7GO1cIBAfga1k2sHJ0d3ckXx5Npc+zCBejudssctG1yqwltX2wYqvpFixade8QfK4CUo54bwhm+lMuPv5i68AXt3b13a94Ciz1tZ8TdD5fBavX6dx22lY8MWjgvnLryaG2tWhNcJT5FzToEb2x5YeE/27uROE+6d4cEJhBfhFRTayiqptK28/6XyDLzJlne1e1H1trv7VW5ZvAjv6RDh1dhkslfthfzwyToOcoHlMAjTQjYbWrlmNtfYXFOo+gqrGhDCcsg2CnKp5dD3gQpjyVzZC6/WqbVLIemW7gd3kqvqs2/X+iN2n5U/ortMfPvqcjAYh5i78Dq7oVQU36G1e6I38Y1AdN9Uvv5b7BDd9W2HKkV7AeG9Sg/TJtYPyjE6FLNpMfN4sEIOCsS2meT6e318AFV4upuIb7vh1jVEp7A81BLhVbUbCuvvAed5dhGfMuZDAq3vvf1rIFUu3QvbCnBzrHbTdrPXR9bG+iC8S+2GIsdYyA3Fp9zEVhDBTUV03MbjQCr3dTYP6+sfIri+BPjl/K5kKzixKq4v+XP5+5im6SK8OlWvtU21jfzfWlScB1pcW6NGbB/ZtE98vw7SfnZ5yZ+hkoDwblz1BjtMUVn1dgEA4Q2OVKK9C+9jNloAEF6E9wIXEzlOOX8XABDewtpr0oiv/xlsFaILAAjvClyOg4/Jw+P3nrLxAgAI71o03Q7bV78lVS4AILxd7Ie2Al7V71s2Qs0GGgAgvH4R60AOQFxe2hODAQDhTVp4AQAQXgAAhBfhBQBAeAEAEF6EFwAQXoQXAGwiweaStSuidb6aOEjDgecIL3TFTaUYNpm0i6ZT1H/m5pUNUs+ileu7EQtJ/m4PYlsLqwtDr9YKQX8+GyC8CG8KuLHnxVbTFxLKqJXxPe6DpVw65qcNSx9w53SrbmX2WrmlqJTWBRjhhaUV7haCm9r4mw6jfyr5t1TCmwiun3lr7TqejeX7IbwIb0zVnedJw2Vs1a+r9Esf1y7fi7tqdZW743PCsFuVxRlsCC/crPAmA++j3V0FGIv49vManOxxd4UV3YslXjHCi/BmKLrRiK/zcXu5fvne3GWBRfei8jXU/YDwwoWnK4Ms/doLt4uvUd8zwAcPle91xIsNJDallUnECC9ciM6iFrGeluz8G/3gCXL9eL5KAiT/PYQ3LuGVKEg3ibi4ZTLFWLJ4Jfw8tojIMJWebfHxtJG2/mZj7t0OUn0GsBhu+r0GOh0Q3jUEtxbSJuB80wkUtQjHMsY9sOicryLnD57sLQc18TmejRBeu8LbVrjdJw5/88npyHIF7FrH5hpLeoUz/uCp8vZ2tz8g0dnrRXhtCq+rcn1OGTY78LLPXfyVa38yzPmDJ9sTbu6ghJrwaHc4ILw36WG0+5sR7wbFV6naM2M3aH7wWNxkDCO87ZFgNeH55MVsiPAaEt12oOW8x1VZ8n1lg0dRdE08bofs5sBusCI8z2eHCK8NZGBlz6J7YTtYuWZ3LFZTeOcGKn7V68+yu8EljmUrPAhvixvfXgYS3rm0pSG8TngUT7K5ICDV68+yp9dbEA7CG7Xwuv7cechlwXKwILyawpP79SO8CK92tVuFFl7ZxEN4dR+1EV4t4X0+O8xZeLQ3F8Xq0b4HemgdW3ujTX1zLeAxWYseL1ZDphWf9tFhiarM+fob4X18eqQkvPP3H0/V0+pUhWd/Ms76+nPdXNMWHgsTKlSv30BGsZroulNtBoSn0BIdCzGJyu1k5Z0ccTkNesJjIK9BsbND/VHbHQueK67CgPAM1Q4QPDRR8Y9y/uDJUXgKEx8+zSDP/HqYhYC9u7ct9YpH0ec0Ue1pbrBZ+ODJzm6wNAhTI6/CQrVvQHjnFn7/Osdm7aRzEZKjJzxFbgE5qlWvgWoX4b1R9Va55tESC5lJ1Wtx8GVAy6WyMoED4dXxei22UAXeZCvvQEuw1jIDObxLNhrLnD50EN6rSFpWANExef8z+iflqu94NrZ8/b1PWTbkayO8C8RH0sp6rPys7+IHshwGKO3iqq/oS3StPGKvFF//gz8ra6KL8N4uvn1UvrG0TvUpvox3X1X5+j5KXH+/GET36geQp+pfPnAMjbRHeNcVoJM9X7v3sVV5PYkvle5a4tPu9JedK736+0T7GrSbjtu+BpWVacoI75bVb9vtUHSp8GI9Ett4vn5sl1Iz+jJa68Ftum0qPqX8u5iq3JUC3D4FVOsE34itEMO1I7wbCfBorX5XEav9ydDKIEtP1e82fb4lVa4n79OJcLFAgKrmz49no5gr3HVfBxFieS3Ol1yzxRY5hLcfD7g57dW0n4kd0VgSA/mzlANf3Am30dIquP47qfKzPpEGgPBCn08BIsbNBw5WAgDCCwCA8CK8AAAILwAAwgsAgPAivAAACC8AAMKL8AIAILwAAAgvwgsAgPACACC8AAAIL8ILAIDwAkB2SL6uxD9eisa8uiQSU3J4P4snhxXh3Yw2GvFkz40GKi4viUNscnhJ6gLwILhvQtA3HfczQHjjF95LIejVZiHgJ3sp5/MC9CO4deXqYe5aaTkgHeFdIrgycbj73LVKqmDeTYlVYlJVXZ6E0ExDkMddo8MVo3lt23lzlccJyyOENx7h9Thv7HwVVL/bM3j66m57r073bqzH0wffetqzvbfZ7K/6a2S6b4QjaVRFt/7g6mW8vcxiMzaHDeG9RXQ3sxUY+tiT2L738dmgvkfGa95LpQixVxF2026LDm/8gipYU3TfiC/Ca1d4exTdC+uBync19X0xrFe17T31zSenIxHuTj+EPKb6euNbHzeubd30K7r2bAeE97qn26voXgyE5N12y/1YV6sbVLirViX39+ZCUD+Wyu54D2/+IqaWpyCiK6+1T093xbJi/yC8b3BtYfNAa8S77irOVqh831/yfS2I7oX/m/oYdq2ninW7HRBeO8Ir48gDim6zpE2Nd17r5b7/ZHrY5z22tvh29HOj320PWu02bWNBRbeteg30+SK8rtr128Gw1pIDF9lXuU8nOx6theXr8XR5oelORoUTAWn2z9h6CP56X3rdEV594W1Po4UVXare/qyFZZ7vrRturvqqFIQgW+tBHvtVhFeqXuUPPIS38XZHWsKb4+GKpk3s8emRyv32ZLr4KWPjo6m+l/T9Gus1TdFmeNNlMhsivOrCW2oJr2Q+ZGgtlJr3240+X7ezPldfbc5AFj2/7oSa6gcdwquHayGbK64qF9F1vblz9XW96pXqx4TwnlsPEYS8ROvvXmrtQ3jz9HfPF9ZC8FVd8xo7B7JkccwV4UV4UxLelDfY3P1VGRLd1m64fLBCaVNtvYStRK0HhBfh1RZe+RnStBYkxMaW4L5Z073Lwju3vLQ3ghBehDfJijex7IbmQMTHp4Vd0T2di/XRbvKEygnAekB4bQlvlbvwYi2orCIy4bUf7r1RV4P26658ctCA8Bba94Cy8JapiK4kgkUguFELbzJJZ9otfBY6R0y19mgIr8Jx4ZSODXtOFAssvFZ6eLdJOovceug5jGi58Bp47TTfNBslR/VX8Y4UK95BzO8dyT+IxFpY7PHGsLm2tOc3YutBr3/aRii65iNi7yNb1sANs1Q5PBHrxppsoEVmLSztaigiFt9ok85CZ/Gay+RtHxV1qw79qrcIL7wnUVp1QRPFQiSVGTu5llXSmUJ3Q2Hp+vvOQ13ZxK5d9bYjf6h2V4lu+ESxXtaVlDLtwJbck85Cer3WDqQoVL2Ftd9/UK83slSyEGHlqk9aNo8N52E9iBiGsBysZmAEPGlUWfB2b1S9EpgToMMhtkSyJKyFVU9a7s0/T0h8o0o6672tTzmNbOWbLESYyapJACmLb/29Y7IYzCSKhXjSUpj/RdLZZfFtoyKrHJ8A3HHPccrtY4riW8QiugYTxfzcf3X1vnyXXbG3lJB19+Th73cQ1QdPX2+6GET3sviKJZDjVGELYeU9rdW+uuIIIKyHm90OVacPm0jn2Xn0fMdLKw3DuOnDXSZUFDGljyVoLWx+QtL5vWVy4htZ0plU6U2r3/oVcCm2QgoDRJtuh+13s6srjeoRIyfMNqmA5WtjEtwYEsWCHkt3zf1FiuIbY9KZiKl4wFIJX19iJ6SaW+zazYZr+L+V2BQx2QqbWhBtotnJ3o21PxnGmK0bUaJYP/bCGo+8CYpvuiHrKSNv1hvrab6jymPFdlh5p1V6s7dcq1Oi1kP8SWcAkT3BJGstXDmZ5stvTOqQRWJJZwDmq9xIE8XW2VPo3eJKItchwaQzAMvEnShmpHMm7a4HrAcAz9bCGGsB62E96+EzNmwAsBZuaVfUPn4urUxJHriINOkMQJuUEsUWWQtmumg8H3Ml6QwgUlJLFLu8xKc294I31sPz2WGi4jvGegBYIbqJhJWbtBZWCnBfCVsknQFgLSjEOQbfQNtafCVoJ1XrIaKkM4BA1kKZpuhGmveRYL5vlElnAH2QbKKYTCoxNJcP6wHrASDZsPLorIW1rAeSzgCixyWKlSSKRQRJZwAxWwskisVb/bZJZxUh67AJbhNn6M78F1dXLQiPpw+SeUQ0aC2kmigmlkk29w0h67DWY21zzr+psjZ5tC1SDUNXtBYIK0/LeiDpDG6rsDo/1pbR70xjLcSfKGa2+iXpDG5aCmXSxzyjeNIgUSwT64GQ9ewrrP7SrMa82dR/B+mHlWM9kHQWaaXb6+Ml4rscwspztx5IOsvx0bYK8ZjJq52XtYDVtKn1QNJZRps4Ad/01lOmQj9pkCgGC6pfQtbzeOMHfUNiORBWDplbD7lvvOkcP400dcqvn461AKsh6Yxq1+cR0Yw/6IapWgv0bfdV/ZJ0lpbwaiZcZeb/kSgG3cSXkPWUqi8eScNZC4SVQ3dIOktCDFSrpIysBcLKwWP1S9JZvILQnpBSfeNiLZAoBtuKL0lnkVZi+gEsqb4nSBQDrAesB4Q3s9eVsPI8rQeSzhCI7ISXsHIwYD2QdBbJ4zAeL9YCiWJpWQ+ErFuGrgY/kCgG9qpfQtaN2w2aVVrc/Z+ElYN964GkM5tVr2K7U8zVFGHlEFP1S9KZNeElq2HjDbSUrQUSxVK2HghZt2Y3kE62vidOohhgPWA9RFn1lrH5h4SVQzoCTNKZpao3XP9pRG/0xMPKC6yFXMWXpDMTMHMtL2uBRDFoIGTdjND0Kb7jiJ4ASBQDrIfYrYdYks76Et9YjpwSVg55ii9JZ8k9YseyY05YOWQPSWcWHrebEJ2q0+ZNJI+1CVsLJIrBhtUvIesmHr2dAJeb2AqxdC6QKAaQnfUQV9KZVE5tP2sjxMXFatqt6j+rxTamNzph5QArrQeSzsC7jYK1ALCy+iXpDLpWuW2/ckGiGMDG1gMh67BFlUuiGIAX64GkM1gLwsoBfFoPJJ3Bamsh2UQxrAXQsx5IOoPMrAUSxcBK9UvIOjQknihGWDkYE1+SzrKHsHIAJUg6y1R0CSsHUK5+CVnHWiBRDADrAeuhN2uBRDEAa5B0liaElQNYr35JOkvKWiCsHCAW8SVkPXpcolhJohgA1oMd6yHhpDMSxQBir35JOovKWiCsHCAp64GkswishTR7c7EWIG/rgZB1rAUSxQCwHjJOOks5UYywcoBF1gNJZ7pVLmHlANlWvySdKUBYOQDiS8g61gKJYgAq1gNJZ71CohgALBZgks4adj94dfed75zs3rZ2D9Z/nCasHABWi2+GSWcipvcOTvbuHUyKelX1mq+5yvsHJ0f39ifDRWJMWDkAbETq1sP9h9MHb+9PDjcU2pVCXK/R7qPGyx2mai2QKAaA9bD2+tVns/kH/3U2/9oPp3OPYrtwfeX7k/k3/nVKohgAbCG+iSSdieB+6cNJ74KbrgATVg4QnFiTzn78P7+b/+k/T4ML7vX17o+m87/5RZyJYlgLAJrVb2Qh6//0n2fqgnt5ffG7cVW/JIoBmLIebCediZdrocq9bcnPRlg5AGxhPdhMOvv5/34eZPOs65KfkbByANi8+jWWdCaiq7GBlor4Yi0AYD0kLbrGxJdEMYBIq1+1pDPxdGMUXSPiS6IYQPTWQ+DjxtY30kxvuBFWDpCQ9RAwZP1vn55GL7rn6y9/hrUAAMath4/++3fJiO55n2+AQxYkigEkLb49Jp3F7usuO+FGohgAdKaPpDNrp9J8rr/6OWHlAOCj+vWYdHb4f5/3Jnpf/Wj6+q9/fvry7//t9NG3/+P0C9ev493R6de/9oPps698f/KbPoN1fCaKYS0A5G49eEg662NDTQT37w6njze5nj8ZnX7hj34wKd55OPm9zY02EsUAwNEl6Uy8Xd8i9/4vTosu1yMC/OXvTV4Z6u0lrBwAFlS/WyadSa6uL3H70oeT3//DL0+/7uuapPr1Kb5bdjgQVg4AS8R3i5B1XwE4vkX3nAc/nD7WO1SBtQAAnq0HyWOwLLoXle9H05c+fs4vfzghUQwAeqx+10g689VCtukm2jb48nxX2Q0kigGAB+vh9qSzb/y0u83w9R9PX4W4Ftlw8yG8f/4vU8LKASCE9bA4ZN2HkA1/GU6svvrR9Nc9nWTDWgCAnqyHS8eNffi7oapdn1XvjcMUJIoBQO/Wg0s68xGIE8Lbvc6XPpycdvmZ33k4IVEMAFSq38E//ursd12F99v/fvYHoX92H729hJUDgArvjqY/63okWOXn/tHpsLPd8L3f/iF3AAAEpxagUUz+7jk+fN53vnOyyx0AABrCW8QovO5nR3gBAOFFeAEAVvD2/uQQqwEAIGjVeLLXRbz+eDQ91fi5fWyuIbwAEKXwarWTybSKrj83v30AUOH+w+mDrgIm43xC/9w+RgTx2wcAFeRxu6uADX52+uuQP7OnoJyC3z4AKNoN3UNyFg2w7Asfp9ZkU5HfPADoCe/+ZBxL1fvuT87+wNMQzAG/eQDQrHhHsURD+hr/vvuI0ewAoMjuwWTH1+ifPjscvM1dqyt8fusAYKHqLX2ImvT19iG+PoddSgsdv3EASMZu6EN8/YouNgMAWLEbajHyKW5iO3T1fGUjzddkYdrIAMAk9w9OjjyL3Pwvfjr9zTatZlLlfvG7k9e+fx6OCQOAKXwcplgWpiMjgpaJsOQvSIXbh+BS7QKAWbqmlW0ixH/2k9Pffvl7k1c9Ci3VLgDYx3m9VQghDLnERuG3CwBmubc/GSYmvNXuB4xuBwDr4nvQPQ/BTLX7cPqA3ygA2Lcc6goxEcthxG8TAOIR3/YoccziW/BbBIDo8BGUrrL2J2N8XQCIFolQRHQBAHQq3wrRBQAIiPN8S6uiK4c/EF0ASE98a2HrI9Oha5+u9B7z2wGApHGHLCxYD4VU4vxGACCb6jdUtsOCVTI3DQDyFeBHZ28FFGAEFwDgcgXcWBAephYvCrnh6C8AwIoqWETYbcRV27SFSRUtYkunAgDAltWwC1ofyLDJRUv+nsxciIH/B9tcEEv8ObYdAAAAAElFTkSuQmCCrYeP/vt3yYjueZ9vgEMWJIoBJC2+PSadxe7rLjvhRqIYAHSmj6Qza6fSfK6/+jlh5QDgo/r1mHR2+H+f9yZ6X/1o+vqvf3768u//7fTRt//j9AvXr+Pd0enXv/aD6bOvfH/ymz6DdXwmimEtAORuPXhIOutjQ00E9+8Op483uZ4/GZ1+4Y9+MCneeTj5vc2NNhLFAMDRJelMvF3fIvf+L06LLtcjAvzl701eGertJawcABZUv1smnUmuri9x+9KHk9//wy9Pv+7rmqT69Sm+W3Y4EFYOAEvEd4uQdV8BOL5F95wHP5w+1jtUgbUAAJ6tB8ljsCy6F5XvR9OXPn7OL384IVEMAHqsftdIOvPVQrbpJto2+PJ8V9kNJIoBgAfr4faks2/8tLvN8PUfT1+FuBbZcPMhvH/+L1PCygEghPWwOGTdh5ANfxlOrL760fTXPZ1kw1oAgJ6sh0vHjX34u6GqXZ9V743DFCSKAUDv1oNLOvMRiBPC273Olz6cnHb5md95OCFRDABUqt/BP/7q7Hddhffb/372B6F/dh+9vYSVA4AK746mP+t6JFjl5/7R6bCz3fC93/4hdwAABKcWoFFM/u45Pnzed75zsssdAAAawlvEKLzuZ0d4AQDhRXgBAFbw9v7kEKsBACBo1Xiy10W8/ng0PdX4uX1sriG8ABCl8Gq1k8m0iq4/N799AFDh/sPpg64CJuN8Qv/cPkYE8dsHABXkcburgA1+dvrrkD+zp6Ccgt8+ACjaDd1DchYNsOwLH6fWZFOR3zwA6Anv/mQcS9X77k/O/sDTEMwBv3kA0Kx4R7FEQ/oa/777iNHsAKDI7sFkx9fonz47HLzNXasrfH7rAGCh6i19iJr09fYhvj6HXUoLHb9xAEjGbuhDfP2KLjYDAFixG2ox8iluYjt09XxlI83XZGHayADAJPcPTo48i9z8L346/c02rWZS5X7xu5PXvn8ejgkDgCl8HKZYFqYjI4KWibDkL0iF24fgUu0CgFm6ppVtIsR/9pPT3375e5NXPQot1S4A2Md5vVUIIQy5xEbhtwsAZrm3PxkmJrzV7geMbgcA6+J70D0PwUy1+3D6gN8oANi3HOoKMRHLYcRvEwDiEd/2KHHM4lvwWw==;" vertex="1" parent="1">
          <mxGeometry x="4907.67" y="6241.29" width="60" height="68.06" as="geometry" />
        </mxCell>
        <mxCell id="rqtoLYsZP0avv1NgUhm5-145" value="Tuning" style="text;html=1;strokeColor=none;fillColor=none;align=left;verticalAlign=middle;whiteSpace=wrap;rounded=0;fontColor=#707070;" vertex="1" parent="1">
          <mxGeometry x="4982.67" y="6261.35" width="125" height="37.78" as="geometry" />
        </mxCell>
        <mxCell id="rqtoLYsZP0avv1NgUhm5-146" value="" style="rounded=0;whiteSpace=wrap;html=1;fillColor=#FFFFFF;fontColor=#333333;strokeColor=none;shadow=1;" vertex="1" parent="1">
          <mxGeometry x="4892.67" y="6337" width="240" height="90.35" as="geometry" />
        </mxCell>
        <mxCell id="rqtoLYsZP0avv1NgUhm5-147" value="" style="shape=image;verticalLabelPosition=bottom;labelBackgroundColor=default;verticalAlign=top;aspect=fixed;imageAspect=0;image=data:image/png,iVBORw0KGgoAAAANSUhEUgAAAV4AAAGNCAYAAABZgRmbAAAkdUlEQVR42u2d324cyXXG9Qh6g+wj8AEcgCstDBuGY2GDxAgSIxMkuzaCIBjEQJC7JWBS8tprexA7jmFrJSJw4lxkV7zJRW6CRm4WkAhoHsAXfedLNcwZ0jsCPOnTXaT4Zzj/urrOqarfDyjEkSgue9jzzemvTn3nzh0AAIBFPDv+/MGnx7PRpy9mRb3mC1Yhfy9fx6sFkBa7j87eurc/Gd4/ODm6dzAp6zW/tsrm7+qvka/lFesiti/ndz958fleLarlLWJ726rk38m/51UEiJd3vnOy68R2vuEq5N/yCm5T4dYCuqHg3hDgZ89nA15NgMgq3A9e3d1ScG8IMBXwmnz6fHbYUXCvrvr7Uf0CRCK6B5OdWjArD6J7vqr7D6dYkMushU+PZ2Ovonu+6u+L+ALYphbJgUfBvb54+l1Y6b54fdSL6F4SX15lAJuIJ9uj6CK+i3CbaPPe1/FsxKsNYMxekK4Fv/bCrbaDWBm84mIxPJ/tBBFdt569eL3Lqw5gymIoAohuu/YnPPm2FsOtvbl9rZJXHSAriwHL4Uq1W1efgUW3rXo5aAGQX7V76cBF3tWu79axtdfrI255AF1c69hcY2XdYqYjuq7qpb0MQLvaHWkJ79v7k0NsBuwGAGwG7Ib++eTFbKgpvNLCxq0PoCq8c82VqfAG6t1dcpSYWx9AB9e7qyq8WQbpuJjHueIquP0BdFBqI0N4Ffp3EV4AhBfhRXgBMrUaFFvJEF6EFyBbtIU3y6xehBcge+EtFYW3yvJFR3gB8kYOMaidXDs4yfP0KsILkH3FO1CseAcIL8ILkKv4Vho2g8x1Q3gRXoBMhfdkj5wGhBcAAiKVZ+CqN99qF+EFgHMkohFvF+EFgOCWQ/8RkVlbDAgvACyiz/YyRBfhBYCA4ovoIrwAsNp2GHjacKvu7U+GvKIILwCsgXQedKl+5d9mmcWA8AJAZwGWwPS6aq3XeKXgNl9zsofgIrwA4LEKlijHtv1MDl6c7Mn/lj/LujcX4QUAQHgRXgAAhBcAAOEFAEB4EV4AAIQXAADhRXgBABBeAACEF+EFAEB4AQAQXgAAhBfhBQBAeAEAEF6EFyBLzhPKLi+SyRDeXnj2cn732fPZ4NPj2ci9blfX89nhJy9mw2efkUOaKiIwbRTipLi+7h+cHDU5tAeTnRSvXSZSuFD0ctm0ifZ1yHyKMMLrQXBfvN799MXro42u63g2FpHmDkugunt09pYTnE3G4JSNCCdQBboPmmqrkT+JvAYIb0jBrStXD69PKcLNnRbn47SHceeN+MRb3S+tbtf+EJLvxR2F8K4WXbEUXswqb9d5PBtxt0UkugeTHU+iczEOJ6bKzw269DzePc4PIIQ3EJ+8+Hyvr2sVn5i7LgrRrfwLz6SKwf911sK8j8WId4R3WaXLZiKiO+9pVZaHQPZT6d6o/hn1jvBeEt3jzx8EuWZsB8uebhVAeEzaDu5DZx5iZe/5IrxOdF/O73r1dFcsNtxMVntFKOGRTTtz17/O6HZ/q0R4Ed470oMb+LpLpM4O7ajyYKLTLEuWQxCLgc02VcExJ7yubSz4tdPna6raLUMLj6WNJo3rz7rq7XEHf831+kj9w6c9iRb+2o9nYyRPH9evOtdYFqrekN7u9SVPGgivwpL/vgG7pdS6fo4X6+NOpakIj4Udfg+HRGgv2/gxO9ROvtHHbS2b4c0Hz4zWmjwfs9uK7+DkyMD1F2ofPLnaDW43f55rxaf9wSMeO9Kn+JjdtpDNFVdlQHg1r3+e7c0nXqOS8Kh/2ul73ByoyNXftSI82tefaprb6qqv/9NaZh+zEV6EV114lDfYtK8/28MUoQ8PuFVZyC1AeBHe3IUH4c2o6rXQzYDwgomKV/n4MMKr7fWGOsVmqH8V4UV48XgR3hwsh8pS72o7XUJReAnMuZO58JQILyHpYjns9Ci+lXx/gx822fYxQ/BwGHMHCBBeW+Jbpi66FxaLXjvdnGB0ExXvSFF4BggvwnutEtxwwGOkkxe02uks5FRAO8xS6/CEhVxehNeiKLUe6LabbqWcDMPbJpM3gqq3yDUWEeG1LsBthOQqC6KUr4tNVBS6GwruKkNVb/iErsrKFAqENxYR/uzsLRHWGyvypK2AXm9FKlnmXq+huWMIL2h7vTshLAc6GQyLb4AOB2tRiAgvpC++9O3athwkraxP8TU46BLhhaTF18oxaVAT38LidGGEF2yJrz/Pt4qhuwOuiq/fyRR2BzsivGAO1+1QdQk655BEvLgsh7JTlWs8bxbhBZvVby2ckh28QQVcipdL50I6yFBGGdOzbquYVMuxCArCC1GIsNgGUglfX9KtYPVYNHiugvcnQ7EPrqz6z2IUEYQXAADhBQBAeBFeAACEFwAA4UV4AQAQXgAAhBfhBQBAeO3T9LDKtIbj2ciFo19dcmhAelk5OACA8CK8HQW3mUKx8RiggnwCAIQX4d1UcNuUrqLzvDVOcwEgvAjvappsAiIRARBehDcMbraa/xDw+vvy6gIgvAhvKNFFfAEQXoT3Jk3HQoBhj2JjcLsDILzZC6+0gIUY9Hhp4GO0G25NW12CU5Y34Vu/ONu9sZ6mf/0ymUKyed/EQU6KdrX/v4iIxfE+CK9Vi6F798LG3Q6RPQ3sNP3Lq8PQq2bqRGKtdCKq7398OqzXuF7zJat67/Hp0Xsfnw0SqwoHTmTXEhMJTReBRngR3ttFpenTDSq6bdVb/3cjeW22/VAqYx/l3gjuk+nhCrG9VYTf/3i6F/P1t9Vth9E/+5OxdWFBeLWq3b431G5dr48s2wnuhJ6X6j5GG0JEc0vBvb7G7z2dRGUtNZbC+qN+1lkjhBfhvW4zVDrCW1e9BgdBOtEde77WKoYKXxg8fXW3FsvCk+herFjsh97Gu9ffk/HuCK+qzXAhvMa80J5E9/Km4iAC0R37Ft1YxLcR3W5ThaMTX4RXATe+XE14LZ1o61t0Lypfwx0dfVS6N9Zju5tOvVS615ZMIEZ4Mxdejz5m9D7vFkFA86033QxaLB493ZWbbhZbz8SHDSY4+5Mhwpuz8IZvIzPZViaWR9Drrj/wLN0HsvkVSHTPV2Hp+ncPJjuBBaeyYjkgvAiv5utQBve3DXU6BLEYri05dGHl+j13MKy5TvYQXoQ3W+ENXu0ay61QqHZNVb27j87eUhKdCuGdzOX1Z3MtQ/EJ6O3e2GizcA9888npSEl45xa8XvFbtUTHwuk2beG9kyO+c3dj7GrIvZ2uFsBSS3jlGLIB4Sm0RMdCh4Pm9UsXSZbC66ZM6AmP8qEC7T5m7Q8el8GgJbpzyXXIuuIzIDwu7EfrNRjdyRWNjSUrj9raFb+2xy0bXJrCK4c1MvV3zTxqK3R0mLJa9IRXq5fXgL+r7nErC69LHNMUXlXhkR11PM4wB0cWrPJOzrgs3nmO7VQIb7BDEwivZeFtYy9DX/vgTu4Er3qNtFIhvAgvwquwyZbrptqNqldyCsJ5vZWVI7O5C6+E1iC8CO8lv7sK0rt7MNlBdc/FN9AOv6VEslBz5qxmVRjYXCsQXju44HcshtSEyFosonY7nXY7mYuB1BPeJ9NDhNcWPfu9iG5o8bWaRasaBG8gIrLP/F3r+bwI71LxrRBdnUqwzGH6gt7oo1lp4fo1W8qk4kZ4beI838LHRhqe7oYbbp03n45nI4vZsxrettUQeLXTa8o2A8K7UfW7zVSOkirXjwCvWwGX8vUxDXhUSGmrLH0gdZgkHHVADsK7QQXcnnAbLa2C24MYIypc3yJci6l0JYiwXl/i4cY4TfeStRKw2p0NLV2/22SrQomuJKJZuG6Et/vrJ8viEE+IhIA9vYXF65dZaIGEt9T2dhFeAEuWQ/8bbZVlzztANm8lweuWKjaEFyBtv9f0hOEAfq8p0UV4AVKvfI9nY+vdHVfE13+GQ2lNdBFeAIO4WWxVKm1jm+KOE5c+2saseLoIL0AM4vumla7aJoEt1i6Py7ggnXKb6RKWJgkjvACxVsBiQRzPxrf1L0voTdNWF5GtsLb98Hj6wG2+Fbd6uLXYykk4Cz26CC8AAMKL8AIAILwAAAgvAADCi/ACACC8AAAIL8ILAIDwQkpI1oD0qTaHCtpjtYX83zYacjaMIYsAAOHdnDaP92TP5fHeNhaokK8hj9eH2H529pZMktgkCL2ZPJHAqS1AeHMXXvcaFduM/GECxTaC+3J+1wnu9lkFcmw2wVNcgPAyc23tVVABryu67Ryyylsc4vHnD3hVAeGNQ3jvP5w+8DxluKL6XSW6mY13B4QX4X2DG27Z1/WiASFFF/EFhNe+8LpKt+9rRgMW2Au9zxzDdgCE157wOk+3CnHNeL7noisbaf483dWeb4QdD/IzS8ucRD8uiIaUjo+imbZcf4DlcM9I9KPk7VrP3EV417YYimDXvT8Zo7p3ggx5vNHtEJX9cnsG760tdY0IJ9TR0UwhbuexLQtFL2RsEHm8cQlvz74ulsNtlVxQ0X3j9+4YF9ydLQR30YDLaG8wGdnj5q9VW4z9KZhAEY3wlgrXXuZd7Xbt1U2w6m0tBZ/X+/ootuq3qXA9zFyTqRTMXLMrvO2JNJ1rl828fIU3nLd7oxrMynaJaNKwG/GT9Gh3hPei2h1pXfvb+5PDLEW3eZzWEd3WbjC2EdV79R+B+Dofd97DMie+CG8tvO3RXq3rz9Nu8P9IHe/oczfOPWuLpUfRNSm+CG9T8dLVEV54m9HlasJrRYQCt9OZ7GV2Y9znAVZpxfPNXXhd767q9cvvIEd/t1AV3vq/n7Svu6TdzNJ9IO1fW3YubLfqyhrh1RdeC9eP8GYqvIrtdIOMLIYby0KrGcKL8CK8qW6oLdloM1TtzoMvA1Vv9laDYitZ3sKrJTqX+lsNfPiUal0dBo5OuwMSc42l7fVa8Dhz31zb/eBVfnnd2ptr2l0NWjaDJbuhFsCxlvDKhl7WwmMgs0Dp1NpFTu+dHAmVSGZ1d1/7+uWJQ/P62yPBOqJrxW7Q7GO1cIBAfga1k2sHJ0d3ckXx5Npc+zCBejudssctG1yqwltX2wYqvpFixade8QfK4CUo54bwhm+lMuPv5i68AXt3b13a94Ciz1tZ8TdD5fBavX6dx22lY8MWjgvnLryaG2tWhNcJT5FzToEb2x5YeE/27uROE+6d4cEJhBfhFRTayiqptK28/6XyDLzJlne1e1H1trv7VW5ZvAjv6RDh1dhkslfthfzwyToOcoHlMAjTQjYbWrlmNtfYXFOo+gqrGhDCcsg2CnKp5dD3gQpjyVzZC6/WqbVLIemW7gd3kqvqs2/X+iN2n5U/ortMfPvqcjAYh5i78Dq7oVQU36G1e6I38Y1AdN9Uvv5b7BDd9W2HKkV7AeG9Sg/TJtYPyjE6FLNpMfN4sEIOCsS2meT6e318AFV4upuIb7vh1jVEp7A81BLhVbUbCuvvAed5dhGfMuZDAq3vvf1rIFUu3QvbCnBzrHbTdrPXR9bG+iC8S+2GIsdYyA3Fp9zEVhDBTUV03MbjQCr3dTYP6+sfIri+BPjl/K5kKzixKq4v+XP5+5im6SK8OlWvtU21jfzfWlScB1pcW6NGbB/ZtE98vw7SfnZ5yZ+hkoDwblz1BjtMUVn1dgEA4Q2OVKK9C+9jNloAEF6E9wIXEzlOOX8XABDewtpr0oiv/xlsFaILAAjvClyOg4/Jw+P3nrLxAgAI71o03Q7bV78lVS4AILxd7Ie2Al7V71s2Qs0GGgAgvH4R60AOQFxe2hODAQDhTVp4AQAQXgAAhBfhBQBAeAEAEF6EFwAQXoQXAGwiweaStSuidb6aOEjDgecIL3TFTaUYNpm0i6ZT1H/m5pUNUs+ileu7EQtJ/m4PYlsLqwtDr9YKQX8+GyC8CG8KuLHnxVbTFxLKqJXxPe6DpVw65qcNSx9w53SrbmX2WrmlqJTWBRjhhaUV7haCm9r4mw6jfyr5t1TCmwiun3lr7TqejeX7IbwIb0zVnedJw2Vs1a+r9Esf1y7fi7tqdZW743PCsFuVxRlsCC/crPAmA++j3V0FGIv49vManOxxd4UV3YslXjHCi/BmKLrRiK/zcXu5fvne3GWBRfei8jXU/YDwwoWnK4Ms/doLt4uvUd8zwAcPle91xIsNJDallUnECC9ciM6iFrGeluz8G/3gCXL9eL5KAiT/PYQ3LuGVKEg3ibi4ZTLFWLJ4Jfw8tojIMJWebfHxtJG2/mZj7t0OUn0GsBhu+r0GOh0Q3jUEtxbSJuB80wkUtQjHMsY9sOicryLnD57sLQc18TmejRBeu8LbVrjdJw5/88npyHIF7FrH5hpLeoUz/uCp8vZ2tz8g0dnrRXhtCq+rcn1OGTY78LLPXfyVa38yzPmDJ9sTbu6ghJrwaHc4ILw36WG0+5sR7wbFV6naM2M3aH7wWNxkDCO87ZFgNeH55MVsiPAaEt12oOW8x1VZ8n1lg0dRdE08bofs5sBusCI8z2eHCK8NZGBlz6J7YTtYuWZ3LFZTeOcGKn7V68+yu8EljmUrPAhvixvfXgYS3rm0pSG8TngUT7K5ICDV68+yp9dbEA7CG7Xwuv7cechlwXKwILyawpP79SO8CK92tVuFFl7ZxEN4dR+1EV4t4X0+O8xZeLQ3F8Xq0b4HemgdW3ujTX1zLeAxWYseL1ZDphWf9tFhiarM+fob4X18eqQkvPP3H0/V0+pUhWd/Ms76+nPdXNMWHgsTKlSv30BGsZroulNtBoSn0BIdCzGJyu1k5Z0ccTkNesJjIK9BsbND/VHbHQueK67CgPAM1Q4QPDRR8Y9y/uDJUXgKEx8+zSDP/HqYhYC9u7ct9YpH0ec0Ue1pbrBZ+ODJzm6wNAhTI6/CQrVvQHjnFn7/Osdm7aRzEZKjJzxFbgE5qlWvgWoX4b1R9Va55tESC5lJ1Wtx8GVAy6WyMoED4dXxei22UAXeZCvvQEuw1jIDObxLNhrLnD50EN6rSFpWANExef8z+iflqu94NrZ8/b1PWTbkayO8C8RH0sp6rPys7+IHshwGKO3iqq/oS3StPGKvFF//gz8ra6KL8N4uvn1UvrG0TvUpvox3X1X5+j5KXH+/GET36geQp+pfPnAMjbRHeNcVoJM9X7v3sVV5PYkvle5a4tPu9JedK736+0T7GrSbjtu+BpWVacoI75bVb9vtUHSp8GI9Ett4vn5sl1Iz+jJa68Ftum0qPqX8u5iq3JUC3D4FVOsE34itEMO1I7wbCfBorX5XEav9ydDKIEtP1e82fb4lVa4n79OJcLFAgKrmz49no5gr3HVfBxFieS3Ol1yzxRY5hLcfD7g57dW0n4kd0VgSA/mzlANf3Am30dIquP47qfKzPpEGgPBCn08BIsbNBw5WAgDCCwCA8CK8AAAILwAAwgsAgPAivAAACC8AAMKL8AIAILwAAAgvwgsAgPACACC8AAAIL8ILAIDwAkB2SL6uxD9eisa8uiQSU3J4P4snhxXh3Yw2GvFkz40GKi4viUNscnhJ6gLwILhvQtA3HfczQHjjF95LIejVZiHgJ3sp5/MC9CO4deXqYe5aaTkgHeFdIrgycbj73LVKqmDeTYlVYlJVXZ6E0ExDkMddo8MVo3lt23lzlccJyyOENx7h9Thv7HwVVL/bM3j66m57r073bqzH0wffetqzvbfZ7K/6a2S6b4QjaVRFt/7g6mW8vcxiMzaHDeG9RXQ3sxUY+tiT2L738dmgvkfGa95LpQixVxF2026LDm/8gipYU3TfiC/Ca1d4exTdC+uBync19X0xrFe17T31zSenIxHuTj+EPKb6euNbHzeubd30K7r2bAeE97qn26voXgyE5N12y/1YV6sbVLirViX39+ZCUD+Wyu54D2/+IqaWpyCiK6+1T093xbJi/yC8b3BtYfNAa8S77irOVqh831/yfS2I7oX/m/oYdq2ninW7HRBeO8Ir48gDim6zpE2Nd17r5b7/ZHrY5z22tvh29HOj320PWu02bWNBRbeteg30+SK8rtr128Gw1pIDF9lXuU8nOx6theXr8XR5oelORoUTAWn2z9h6CP56X3rdEV594W1Po4UVXare/qyFZZ7vrRturvqqFIQgW+tBHvtVhFeqXuUPPIS38XZHWsKb4+GKpk3s8emRyv32ZLr4KWPjo6m+l/T9Gus1TdFmeNNlMhsivOrCW2oJr2Q+ZGgtlJr3240+X7ezPldfbc5AFj2/7oSa6gcdwquHayGbK64qF9F1vblz9XW96pXqx4TwnlsPEYS8ROvvXmrtQ3jz9HfPF9ZC8FVd8xo7B7JkccwV4UV4UxLelDfY3P1VGRLd1m64fLBCaVNtvYStRK0HhBfh1RZe+RnStBYkxMaW4L5Z073Lwju3vLQ3ghBehDfJijex7IbmQMTHp4Vd0T2di/XRbvKEygnAekB4bQlvlbvwYi2orCIy4bUf7r1RV4P26658ctCA8Bba94Cy8JapiK4kgkUguFELbzJJZ9otfBY6R0y19mgIr8Jx4ZSODXtOFAssvFZ6eLdJOovceug5jGi58Bp47TTfNBslR/VX8Y4UK95BzO8dyT+IxFpY7PHGsLm2tOc3YutBr3/aRii65iNi7yNb1sANs1Q5PBHrxppsoEVmLSztaigiFt9ok85CZ/Gay+RtHxV1qw79qrcIL7wnUVp1QRPFQiSVGTu5llXSmUJ3Q2Hp+vvOQ13ZxK5d9bYjf6h2V4lu+ESxXtaVlDLtwJbck85Cer3WDqQoVL2Ftd9/UK83slSyEGHlqk9aNo8N52E9iBiGsBysZmAEPGlUWfB2b1S9EpgToMMhtkSyJKyFVU9a7s0/T0h8o0o6672tTzmNbOWbLESYyapJACmLb/29Y7IYzCSKhXjSUpj/RdLZZfFtoyKrHJ8A3HHPccrtY4riW8QiugYTxfzcf3X1vnyXXbG3lJB19+Th73cQ1QdPX2+6GET3sviKJZDjVGELYeU9rdW+uuIIIKyHm90OVacPm0jn2Xn0fMdLKw3DuOnDXSZUFDGljyVoLWx+QtL5vWVy4htZ0plU6U2r3/oVcCm2QgoDRJtuh+13s6srjeoRIyfMNqmA5WtjEtwYEsWCHkt3zf1FiuIbY9KZiKl4wFIJX19iJ6SaW+zazYZr+L+V2BQx2QqbWhBtotnJ3o21PxnGmK0bUaJYP/bCGo+8CYpvuiHrKSNv1hvrab6jymPFdlh5p1V6s7dcq1Oi1kP8SWcAkT3BJGstXDmZ5stvTOqQRWJJZwDmq9xIE8XW2VPo3eJKItchwaQzAMvEnShmpHMm7a4HrAcAz9bCGGsB62E96+EzNmwAsBZuaVfUPn4urUxJHriINOkMQJuUEsUWWQtmumg8H3Ml6QwgUlJLFLu8xKc294I31sPz2WGi4jvGegBYIbqJhJWbtBZWCnBfCVsknQFgLSjEOQbfQNtafCVoJ1XrIaKkM4BA1kKZpuhGmveRYL5vlElnAH2QbKKYTCoxNJcP6wHrASDZsPLorIW1rAeSzgCixyWKlSSKRQRJZwAxWwskisVb/bZJZxUh67AJbhNn6M78F1dXLQiPpw+SeUQ0aC2kmigmlkk29w0h67DWY21zzr+psjZ5tC1SDUNXtBYIK0/LeiDpDG6rsDo/1pbR70xjLcSfKGa2+iXpDG5aCmXSxzyjeNIgUSwT64GQ9ewrrP7SrMa82dR/B+mHlWM9kHQWaaXb6+Ml4rscwspztx5IOsvx0bYK8ZjJq52XtYDVtKn1QNJZRps4Ad/01lOmQj9pkCgGC6pfQtbzeOMHfUNiORBWDplbD7lvvOkcP400dcqvn461AKsh6Yxq1+cR0Yw/6IapWgv0bfdV/ZJ0lpbwaiZcZeb/kSgG3cSXkPWUqi8eScNZC4SVQ3dIOktCDFSrpIysBcLKwWP1S9JZvILQnpBSfeNiLZAoBtuKL0lnkVZi+gEsqb4nSBQDrAesB4Q3s9eVsPI8rQeSzhCI7ISXsHIwYD2QdBbJ4zAeL9YCiWJpWQ+ErFuGrgY/kCgG9qpfQtaN2w2aVVrc/Z+ElYN964GkM5tVr2K7U8zVFGHlEFP1S9KZNeElq2HjDbSUrQUSxVK2HghZt2Y3kE62vidOohhgPWA9RFn1lrH5h4SVQzoCTNKZpao3XP9pRG/0xMPKC6yFXMWXpDMTMHMtL2uBRDFoIGTdjND0Kb7jiJ4ASBQDrIfYrYdYks76Et9YjpwSVg55ii9JZ8k9YseyY05YOWQPSWcWHrebEJ2q0+ZNJI+1CVsLJIrBhtUvIesmHr2dAJeb2AqxdC6QKAaQnfUQV9KZVE5tP2sjxMXFatqt6j+rxTamNzph5QArrQeSzsC7jYK1ALCy+iXpDLpWuW2/ckGiGMDG1gMh67BFlUuiGIAX64GkM1gLwsoBfFoPJJ3Bamsh2UQxrAXQsx5IOoPMrAUSxcBK9UvIOjQknihGWDkYE1+SzrKHsHIAJUg6y1R0CSsHUK5+CVnHWiBRDADrAeuhN2uBRDEAa5B0liaElQNYr35JOkvKWiCsHCAW8SVkPXpcolhJohgA1oMd6yHhpDMSxQBir35JOovKWiCsHCAp64GkswishTR7c7EWIG/rgZB1rAUSxQCwHjJOOks5UYywcoBF1gNJZ7pVLmHlANlWvySdKUBYOQDiS8g61gKJYgAq1gNJZ71CohgALBZgks4adj94dfed75zs3rZ2D9Z/nCasHABWi2+GSWcipvcOTvbuHUyKelX1mq+5yvsHJ0f39ifDRWJMWDkAbETq1sP9h9MHb+9PDjcU2pVCXK/R7qPGyx2mai2QKAaA9bD2+tVns/kH/3U2/9oPp3OPYrtwfeX7k/k3/nVKohgAbCG+iSSdieB+6cNJ74KbrgATVg4QnFiTzn78P7+b/+k/T4ML7vX17o+m87/5RZyJYlgLAJrVb2Qh6//0n2fqgnt5ffG7cVW/JIoBmLIebCediZdrocq9bcnPRlg5AGxhPdhMOvv5/34eZPOs65KfkbByANi8+jWWdCaiq7GBlor4Yi0AYD0kLbrGxJdEMYBIq1+1pDPxdGMUXSPiS6IYQPTWQ+DjxtY30kxvuBFWDpCQ9RAwZP1vn55GL7rn6y9/hrUAAMath4/++3fJiO55n2+AQxYkigEkLb49Jp3F7usuO+FGohgAdKaPpDNrp9J8rr/6OWHlAOCj+vWYdHb4f5/3Jnpf/Wj6+q9/fvry7//t9NG3/+P0C9ev493R6de/9oPps698f/KbPoN1fCaKYS0A5G49eEg662NDTQT37w6njze5nj8ZnX7hj34wKd55OPm9zY02EsUAwNEl6Uy8Xd8i9/4vTosu1yMC/OXvTV4Z6u0lrBwAFlS/WyadSa6uL3H70oeT3//DL0+/7uuapPr1Kb5bdjgQVg4AS8R3i5B1XwE4vkX3nAc/nD7WO1SBtQAAnq0HyWOwLLoXle9H05c+fs4vfzghUQwAeqx+10g689VCtukm2jb48nxX2Q0kigGAB+vh9qSzb/y0u83w9R9PX4W4Ftlw8yG8f/4vU8LKASCE9bA4ZN2HkA1/GU6svvrR9Nc9nWTDWgCAnqyHS8eNffi7oapdn1XvjcMUJIoBQO/Wg0s68xGIE8Lbvc6XPpycdvmZ33k4IVEMAFSq38E//ursd12F99v/fvYHoX92H729hJUDgArvjqY/63okWOXn/tHpsLPd8L3f/iF3AAAEpxagUUz+7jk+fN53vnOyyx0AABrCW8QovO5nR3gBAOFFeAEAVvD2/uQQqwEAIGjVeLLXRbz+eDQ91fi5fWyuIbwAEKXwarWTybSKrj83v30AUOH+w+mDrgIm43xC/9w+RgTx2wcAFeRxu6uADX52+uuQP7OnoJyC3z4AKNoN3UNyFg2w7Asfp9ZkU5HfPADoCe/+ZBxL1fvuT87+wNMQzAG/eQDQrHhHsURD+hr/vvuI0ewAoMjuwWTH1+ifPjscvM1dqyt8fusAYKHqLX2ImvT19iG+PoddSgsdv3EASMZu6EN8/YouNgMAWLEbajHyKW5iO3T1fGUjzddkYdrIAMAk9w9OjjyL3Pwvfjr9zTatZlLlfvG7k9e+fx6OCQOAKXwcplgWpiMjgpaJsOQvSIXbh+BS7QKAWbqmlW0ixH/2k9Pffvl7k1c9Ci3VLgDYx3m9VQghDLnERuG3CwBmubc/GSYmvNXuB4xuBwDr4nvQPQ/BTLX7cPqA3ygA2Lcc6goxEcthxG8TAOIR3/YoccziW/BbBIDo8BGUrrL2J2N8XQCIFolQRHQBAHQq3wrRBQAIiPN8S6uiK4c/EF0ASE98a2HrI9Oha5+u9B7z2wGApHGHLCxYD4VU4vxGACCb6jdUtsOCVTI3DQDyFeBHZ28FFGAEFwDgcgXcWBAephYvCrnh6C8AwIoqWETYbcRV27SFSRUtYkunAgDAltWwC1ofyLDJRUv+nsxciIH/B9tcEEv8ObYdAAAAAElFTkSuQmCCrYeP/vt3yYjueZ9vgEMWJIoBJC2+PSadxe7rLjvhRqIYAHSmj6Qza6fSfK6/+jlh5QDgo/r1mHR2+H+f9yZ6X/1o+vqvf3768u//7fTRt//j9AvXr+Pd0enXv/aD6bOvfH/ymz6DdXwmimEtAORuPXhIOutjQ00E9+8Op483uZ4/GZ1+4Y9+MCneeTj5vc2NNhLFAMDRJelMvF3fIvf+L06LLtcjAvzl701eGertJawcABZUv1smnUmuri9x+9KHk9//wy9Pv+7rmqT69Sm+W3Y4EFYOAEvEd4uQdV8BOL5F95wHP5w+1jtUgbUAAJ6tB8ljsCy6F5XvR9OXPn7OL384IVEMAHqsftdIOvPVQrbpJto2+PJ8V9kNJIoBgAfr4faks2/8tLvN8PUfT1+FuBbZcPMhvH/+L1PCygEghPWwOGTdh5ANfxlOrL760fTXPZ1kw1oAgJ6sh0vHjX34u6GqXZ9V743DFCSKAUDv1oNLOvMRiBPC273Olz6cnHb5md95OCFRDABUqt/BP/7q7Hddhffb/372B6F/dh+9vYSVA4AK746mP+t6JFjl5/7R6bCz3fC93/4hdwAABKcWoFFM/u45Pnzed75zsssdAAAawlvEKLzuZ0d4AQDhRXgBAFbw9v7kEKsBACBo1Xiy10W8/ng0PdX4uX1sriG8ABCl8Gq1k8m0iq4/N799AFDh/sPpg64CJuN8Qv/cPkYE8dsHABXkcburgA1+dvrrkD+zp6Ccgt8+ACjaDd1DchYNsOwLH6fWZFOR3zwA6Anv/mQcS9X77k/O/sDTEMwBv3kA0Kx4R7FEQ/oa/777iNHsAKDI7sFkx9fonz47HLzNXasrfH7rAGCh6i19iJr09fYhvj6HXUoLHb9xAEjGbuhDfP2KLjYDAFixG2ox8iluYjt09XxlI83XZGHayADAJPcPTo48i9z8L346/c02rWZS5X7xu5PXvn8ejgkDgCl8HKZYFqYjI4KWibDkL0iF24fgUu0CgFm6ppVtIsR/9pPT3375e5NXPQot1S4A2Md5vVUIIQy5xEbhtwsAZrm3PxkmJrzV7geMbgcA6+J70D0PwUy1+3D6gN8oANi3HOoKMRHLYcRvEwDiEd/2KHHM4lvwWw==;" vertex="1" parent="1">
          <mxGeometry x="4907.67" y="6351.29" width="60" height="68.06" as="geometry" />
        </mxCell>
        <mxCell id="rqtoLYsZP0avv1NgUhm5-148" value="Vertex AI&amp;nbsp;&lt;div&gt;Gemini / PaLM 2&lt;/div&gt;" style="text;html=1;strokeColor=none;fillColor=none;align=center;verticalAlign=middle;whiteSpace=wrap;rounded=0;fontStyle=1;fontSize=15;fontColor=#999999;" vertex="1" parent="1">
          <mxGeometry x="4977.67" y="6342.24" width="130" height="50" as="geometry" />
        </mxCell>
        <mxCell id="rqtoLYsZP0avv1NgUhm5-149" value="Adapter Model" style="text;html=1;strokeColor=none;fillColor=none;align=left;verticalAlign=middle;whiteSpace=wrap;rounded=0;fontColor=#707070;" vertex="1" parent="1">
          <mxGeometry x="4982.67" y="6376.35" width="125" height="37.78" as="geometry" />
        </mxCell>
        <mxCell id="rqtoLYsZP0avv1NgUhm5-150" value="&lt;div&gt;&lt;div&gt;&lt;b style=&quot;background-color: initial;&quot;&gt;&lt;u&gt;R10 VPC&lt;/u&gt;&lt;/b&gt;&lt;/div&gt;&lt;ul style=&quot;border-color: var(--border-color);&quot;&gt;&lt;li style=&quot;border-color: var(--border-color);&quot;&gt;&lt;b style=&quot;border-color: var(--border-color);&quot;&gt;R10 Genesis:&amp;nbsp;&lt;/b&gt;Central hub for managing queries, orchestrating data sequences, and decision-making to optimize Gemini / PaLM 2 model inferences.&lt;/li&gt;&lt;/ul&gt;&lt;ul style=&quot;border-color: var(--border-color);&quot;&gt;&lt;li style=&quot;border-color: var(--border-color);&quot;&gt;&lt;b&gt;R10 Einstein: &lt;/b&gt;Optimised Data retrieval system from the knowledge base.&lt;br&gt;&lt;br&gt;&lt;/li&gt;&lt;li style=&quot;border-color: var(--border-color);&quot;&gt;&lt;b&gt;R10 WAM: &lt;/b&gt;Web Action Models to extract data from online whitelisted client-approved sources.&amp;nbsp;&lt;br&gt;&lt;/li&gt;&lt;/ul&gt;&lt;div&gt;&lt;br&gt;&lt;/div&gt;&lt;div style=&quot;border-color: var(--border-color);&quot;&gt;&lt;b&gt;&lt;u&gt;Client VPC&lt;/u&gt;&lt;/b&gt;&lt;/div&gt;&lt;div style=&quot;border-color: var(--border-color);&quot;&gt;&lt;b&gt;&lt;br&gt;&lt;/b&gt;&lt;/div&gt;&lt;ul style=&quot;border-color: var(--border-color);&quot;&gt;&lt;li style=&quot;border-color: var(--border-color);&quot;&gt;&lt;b style=&quot;border-color: var(--border-color);&quot;&gt;R10 Satellite:&lt;/b&gt;&amp;nbsp;Intelligent data conduit between Client WhatsApp/Web bot and R10 system.&lt;/li&gt;&lt;li style=&quot;border-color: var(--border-color);&quot;&gt;&lt;span style=&quot;font-size: 12px;&quot;&gt;&lt;b&gt;R10 Satellite Admin Dashboard&lt;/b&gt;: Centralized interface for managing and monitoring all R10 system interactions and configurations&lt;/span&gt;&lt;/li&gt;&lt;/ul&gt;&lt;ul style=&quot;border-color: var(--border-color);&quot;&gt;&lt;li style=&quot;border-color: var(--border-color);&quot;&gt;&lt;b style=&quot;border-color: var(--border-color);&quot;&gt;Cloud SQL for Chat Logs:&lt;/b&gt;&amp;nbsp;Secure repository for all R10 system chat interactions within Clients VPC.&lt;/li&gt;&lt;li style=&quot;border-color: var(--border-color);&quot;&gt;&lt;span style=&quot;font-size: 12px;&quot;&gt;&lt;b&gt;Cloud Storage for Images and Voice Data:&amp;nbsp;T&lt;/b&gt;his storage service ensures that all data is stored privately and encrypted, providing robust security for sensitive information.&lt;/span&gt;&lt;/li&gt;&lt;li style=&quot;border-color: var(--border-color);&quot;&gt;&lt;span style=&quot;font-size: 12px;&quot;&gt;&lt;b&gt;Cloud KMS&lt;/b&gt;:&amp;nbsp;Used to encrypt cloud storage objects in CSEK (Customer-Supplied Encryption Keys), ensuring that all stored data remains secure and protected from unauthorized access.&lt;/span&gt;&lt;/li&gt;&lt;li style=&quot;border-color: var(--border-color);&quot;&gt;&lt;b&gt;Client Core API&#39;s&lt;/b&gt;: API&#39;s for retrieving client specific data store in client systems.&amp;nbsp;&amp;nbsp;&lt;/li&gt;&lt;/ul&gt;&lt;/div&gt;&lt;p&gt;&lt;/p&gt;" style="text;html=1;spacing=5;spacingTop=0;whiteSpace=wrap;overflow=hidden;rounded=0;labelBackgroundColor=none;strokeColor=none;fillColor=#E6E6E6;" vertex="1" parent="1">
          <mxGeometry x="5825" y="6226" width="280" height="770" as="geometry" />
        </mxCell>
        <mxCell id="rqtoLYsZP0avv1NgUhm5-151" value="" style="sketch=0;html=1;aspect=fixed;strokeColor=none;shadow=0;fillColor=#3B8DF1;verticalAlign=top;labelPosition=center;verticalLabelPosition=bottom;shape=mxgraph.gcp2.lock" vertex="1" parent="1">
          <mxGeometry x="4248" y="6458.18" width="20" height="25.64" as="geometry" />
        </mxCell>
        <mxCell id="rqtoLYsZP0avv1NgUhm5-152" value="" style="group" connectable="0" vertex="1" parent="1">
          <mxGeometry x="4825" y="6906" width="873.3489473684208" height="42" as="geometry" />
        </mxCell>
        <mxCell id="rqtoLYsZP0avv1NgUhm5-153" value="Cloud&#xa;Build" style="sketch=0;html=1;verticalAlign=top;labelPosition=center;verticalLabelPosition=bottom;align=center;spacingTop=-6;fontSize=11;fontStyle=1;fontColor=#999999;shape=image;aspect=fixed;imageAspect=0;image=data:image/svg+xml,PHN2ZyB4bWxucz0iaHR0cDovL3d3dy53My5vcmcvMjAwMC9zdmciIHhtbG5zOnY9Imh0dHBzOi8vdmVjdGEuaW8vbmFubyIgd2lkdGg9IjE3LjMyOTk5OTkyMzcwNjA1NSIgaGVpZ2h0PSIxOS42MTAwMDA2MTAzNTE1NjIiIHZpZXdCb3g9IjAgMCAxNy4zMjk5OTk5MjM3MDYwNTUgMTkuNjEwMDAwNjEwMzUxNTYyIj4mI3hhOwk8c3R5bGUgdHlwZT0idGV4dC9jc3MiPiYjeGE7CS5zdDB7ZmlsbDojNDI4NWY0O30mI3hhOwkuc3Qxe2ZpbGw6IzY2OWRmNjt9JiN4YTsJLnN0MntmaWxsOiNhZWNiZmE7fSYjeGE7CTwvc3R5bGU+JiN4YTsJPHBhdGggY2xhc3M9InN0MCIgZD0iTTEyLjE4IDcuOThMMTEgNy4yOWwtMy41MiA2LjEgMS4xOC42OCAzLjUyLTIuMDN6IiBmaWxsPSIjNDI4NWY0Ii8+JiN4YTsJPHBhdGggY2xhc3M9InN0MSIgZD0iTTYuMzIgMTIuNzJsMy41My02LjA5LTEuMTktLjY5LTMuNTIgMi4wNHY0LjA2eiIgZmlsbD0iIzY2OWRmNiIvPiYjeGE7CTxwYXRoIGNsYXNzPSJzdDIiIGQ9Ik0zLjc1IDcuOThMMCA1LjgxdjkuMmw3Ljk3IDQuNnYtNC4zM2wtNC4yMi0yLjQ0em05LjEzLTEuMmwzLjc2LTIuMTdMOC42NiAwIC42OCA0LjYxbDMuNzYgMi4xNyA0LjIyLTIuNDR6TTkuMzUgMTkuNjFsNy45OC00LjZ2LTkuMmwtMy43NiAyLjE3djQuODZsLTQuMjIgMi40NHoiIGZpbGw9IiNhZWNiZmEiLz4mI3hhOzwvc3ZnPg==;container=0;movable=1;resizable=1;rotatable=1;deletable=1;editable=1;locked=0;connectable=1;" vertex="1" parent="rqtoLYsZP0avv1NgUhm5-152">
          <mxGeometry x="230" width="36" height="42" as="geometry" />
        </mxCell>
        <mxCell id="rqtoLYsZP0avv1NgUhm5-154" value="Cloud Source&#xa;Repositories" style="sketch=0;html=1;verticalAlign=top;labelPosition=center;verticalLabelPosition=bottom;align=center;spacingTop=-6;fontSize=11;fontStyle=1;fontColor=#999999;shape=image;aspect=fixed;imageAspect=0;image=data:image/svg+xml,PHN2ZyB4bWxucz0iaHR0cDovL3d3dy53My5vcmcvMjAwMC9zdmciIHhtbG5zOnY9Imh0dHBzOi8vdmVjdGEuaW8vbmFubyIgd2lkdGg9IjQyNCIgaGVpZ2h0PSI0MjQiIHZpZXdCb3g9IjAgMCA0MjQgNDI0Ij4mI3hhOwk8c3R5bGUgdHlwZT0idGV4dC9jc3MiPiYjeGE7CS5zdDB7ZmlsbDojNDI4NWY0O30mI3hhOwk8L3N0eWxlPiYjeGE7CTxwYXRoIGNsYXNzPSJzdDAiIGQ9Ik00MjQgMHY0MjRIMFYwek0yMTIgOTcuODQ2Yy0zNy44ODQgMC03MC4xNjQgMjMuOTktODIuNDc4IDU3LjYwOGgwbC0zLjQwMy4wMDFjLTQyLjYzNCAwLTc3LjE5NiAzNC41NjItNzcuMTk2IDc3LjE5NnMzNC41NjIgNzcuMTk2IDc3LjE5NiA3Ny4xOTZoMCAxNzEuNzYzYzQyLjYzNCAwIDc3LjE5Ni0zNC41NjIgNzcuMTk2LTc3LjE5NnMtMzQuNTYyLTc3LjE5Ni03Ny4xOTYtNzcuMTk2aDBsLTMuNDAzLS4wMDFDMjgyLjE2NCAxMjEuODM3IDI0OS44ODQgOTcuODQ2IDIxMiA5Ny44NDZ6IiBmaWxsLXJ1bGU9ImV2ZW5vZGQiLz4mI3hhOzwvc3ZnPg==;container=0;movable=1;resizable=1;rotatable=1;deletable=1;editable=1;locked=0;connectable=1;" vertex="1" parent="rqtoLYsZP0avv1NgUhm5-152">
          <mxGeometry x="114" width="42" height="42" as="geometry" />
        </mxCell>
        <mxCell id="rqtoLYsZP0avv1NgUhm5-155" value="Cloud&#xa;Storage" style="sketch=0;html=1;verticalAlign=top;labelPosition=center;verticalLabelPosition=bottom;align=center;spacingTop=-6;fontSize=11;fontStyle=1;fontColor=#999999;shape=image;aspect=fixed;imageAspect=0;image=data:image/svg+xml,PHN2ZyB4bWxucz0iaHR0cDovL3d3dy53My5vcmcvMjAwMC9zdmciIHhtbG5zOnY9Imh0dHBzOi8vdmVjdGEuaW8vbmFubyIgd2lkdGg9IjIwIiBoZWlnaHQ9IjE2IiB2aWV3Qm94PSIwIDAgMjAgMTYiPiYjeGE7CTxzdHlsZSB0eXBlPSJ0ZXh0L2NzcyI+JiN4YTsJLnN0MHtmaWxsOiM0Mjg1ZjQ7fSYjeGE7CS5zdDF7ZmlsbDojNjY5ZGY2O30mI3hhOwkuc3Qye2ZpbGw6I2FlY2JmYTt9JiN4YTsJLnN0M3tmaWxsOiNmZmY7fSYjeGE7CTwvc3R5bGU+JiN4YTsJPHBhdGggY2xhc3M9InN0MiIgZD0iTTAgMGgyMHY3SDB6Ii8+JiN4YTsJPHBhdGggY2xhc3M9InN0MSIgZD0iTTE4IDBoMnY3aC0yeiIvPiYjeGE7CTxwYXRoIGNsYXNzPSJzdDAiIGQ9Ik0xOCA3bDItN2gtMnoiLz4mI3hhOwk8cGF0aCBjbGFzcz0ic3QxIiBkPSJNMCAwaDJ2N0gweiIvPiYjeGE7CTxnIGNsYXNzPSJzdDMiPiYjeGE7CQk8cGF0aCBkPSJNNCAzaDZ2MUg0eiIvPiYjeGE7CQk8cmVjdCB4PSIxMyIgeT0iMiIgd2lkdGg9IjMiIGhlaWdodD0iMyIgcng9IjEuNSIvPiYjeGE7CTwvZz4mI3hhOwk8cGF0aCBjbGFzcz0ic3QyIiBkPSJNMCA5aDIwdjdIMHoiLz4mI3hhOwk8cGF0aCBjbGFzcz0ic3QxIiBkPSJNMTggOWgydjdoLTJ6Ii8+JiN4YTsJPHBhdGggY2xhc3M9InN0MCIgZD0iTTE4IDE2bDItN2gtMnoiLz4mI3hhOwk8cGF0aCBjbGFzcz0ic3QxIiBkPSJNMCA5aDJ2N0gweiIvPiYjeGE7CTxnIGNsYXNzPSJzdDMiPiYjeGE7CQk8cGF0aCBkPSJNNCAxMmg2djFINHoiLz4mI3hhOwkJPHJlY3QgeD0iMTMiIHk9IjExIiB3aWR0aD0iMyIgaGVpZ2h0PSIzIiByeD0iMS41Ii8+JiN4YTsJPC9nPiYjeGE7PC9zdmc+;container=0;movable=1;resizable=1;rotatable=1;deletable=1;editable=1;locked=0;connectable=1;" vertex="1" parent="rqtoLYsZP0avv1NgUhm5-152">
          <mxGeometry x="341" y="4" width="42" height="34" as="geometry" />
        </mxCell>
        <mxCell id="rqtoLYsZP0avv1NgUhm5-156" value="Cloud&#xa;Monitoring" style="sketch=0;html=1;verticalAlign=top;labelPosition=center;verticalLabelPosition=bottom;align=center;spacingTop=-6;fontSize=11;fontStyle=1;fontColor=#999999;shape=image;aspect=fixed;imageAspect=0;image=data:image/svg+xml,PHN2ZyB4bWxucz0iaHR0cDovL3d3dy53My5vcmcvMjAwMC9zdmciIHhtbG5zOnY9Imh0dHBzOi8vdmVjdGEuaW8vbmFubyIgd2lkdGg9IjIwIiBoZWlnaHQ9IjEzLjUyOTk5OTczMjk3MTE5MSIgdmlld0JveD0iLTIuOTMyMDk3ODk3ODEyMDE0ZS05IC01LjI1ODAxNTA0MTgzNzk1NmUtMTUgMjAgMTMuNTI5OTk5NzMyOTcxMTkxIj4mI3hhOwk8c3R5bGUgdHlwZT0idGV4dC9jc3MiPiYjeGE7CS5zdDB7ZmlsbDojNDI4NWY0O30mI3hhOwkuc3Qxe2ZpbGw6IzY2OWRmNjt9JiN4YTsJPC9zdHlsZT4mI3hhOwk8cGF0aCBjbGFzcz0ic3QxIiBkPSJNOC44MyAxMC41OGgyLjMzdjIuNjRIOC44M3oiLz4mI3hhOwk8cGF0aCBjbGFzcz0ic3QwIiBkPSJNMTYuNDggOC42MWEuNTYuNTYgMCAwIDEtLjQtLjE3TDEyIDQuMjEgOS4yNiA3LjFhLjU3LjU3IDAgMCAxLS43Ni4wNUw2LjQyIDUuNDdsLTIuMiAyLjkyYS41Ni41NiAwIDAgMS0uNDUuMjJIMHYxLjcxYS43NS43NSAwIDAgMCAuNzQuNzVoMTguNTJhLjc1Ljc1IDAgMCAwIC43NC0uNzVWOC42MXoiLz4mI3hhOwk8cGF0aCBjbGFzcz0ic3QxIiBkPSJNMy41IDcuNWwyLjM4LTMuMTZhLjU1LjU1IDAgMCAxIC4zNy0uMjIuNjMuNjMgMCAwIDEgLjQyLjEybDIuMTIgMS43MiAyLjgtMi45NGEuNTQuNTQgMCAwIDEgLjQtLjE3aDBhLjU0LjU0IDAgMCAxIC40LjE3bDQuMzMgNC40OEgyMFYuNzRhLjc0Ljc0IDAgMCAwLS43NC0uNzRILjc0QS43NC43NCAwIDAgMCAwIC43NHY2LjgxeiIvPiYjeGE7CTxyZWN0IGNsYXNzPSJzdDAiIHg9IjYuNjciIHk9IjEyLjkyIiB3aWR0aD0iNi42NyIgaGVpZ2h0PSIuNjEiIHJ4PSIuMyIvPiYjeGE7PC9zdmc+;container=0;movable=1;resizable=1;rotatable=1;deletable=1;editable=1;locked=0;connectable=1;" vertex="1" parent="rqtoLYsZP0avv1NgUhm5-152">
          <mxGeometry x="455" y="6.5" width="42" height="29" as="geometry" />
        </mxCell>
        <mxCell id="rqtoLYsZP0avv1NgUhm5-157" value="Cloud Firewall&#xa;Rules" style="sketch=0;html=1;verticalAlign=top;labelPosition=center;verticalLabelPosition=bottom;align=center;spacingTop=-6;fontSize=11;fontStyle=1;fontColor=#999999;shape=image;aspect=fixed;imageAspect=0;image=data:image/svg+xml,PHN2ZyB4bWxucz0iaHR0cDovL3d3dy53My5vcmcvMjAwMC9zdmciIHhtbG5zOnY9Imh0dHBzOi8vdmVjdGEuaW8vbmFubyIgd2lkdGg9IjIwIiBoZWlnaHQ9IjIwIiBmaWxsPSIjNDI4NWY0IiB2aWV3Qm94PSIwIDAgMjAgMjAiPiYjeGE7CTxzdHlsZSB0eXBlPSJ0ZXh0L2NzcyI+JiN4YTsJLnN0MHtmaWxsOiM0Mjg1ZjQ7fSYjeGE7CTwvc3R5bGU+JiN4YTsJPHBhdGggY2xhc3M9InN0MCIgZD0iTTAgMGg4Ljg5djIuMjJIMHptMCAxNy43OGg4Ljg5VjIwSDB6bTAtOC44OWg4Ljg5djIuMjJIMHpNMTEuMTEgMEgyMHYyLjIyaC04Ljg5em0wIDE3Ljc4SDIwVjIwaC04Ljg5em0wLTguODlIMjB2Mi4yMmgtOC44OXpNNS41NSA0LjQ0aDguODl2Mi4yMkg1LjU1em0wIDguODloOC44OXYyLjIySDUuNTV6TTAgNC40NGgzLjMzdjIuMjJIMHptMCA4Ljg5aDMuMzN2Mi4yMkgwem0xNi42Ny04Ljg5SDIwdjIuMjJoLTMuMzN6bTAgOC44OUgyMHYyLjIyaC0zLjMzeiIvPiYjeGE7PC9zdmc+;container=0;movable=1;resizable=1;rotatable=1;deletable=1;editable=1;locked=0;connectable=1;" vertex="1" parent="rqtoLYsZP0avv1NgUhm5-152">
          <mxGeometry x="568" width="42" height="42" as="geometry" />
        </mxCell>
        <mxCell id="rqtoLYsZP0avv1NgUhm5-158" value="Cloud&#xa;Logging" style="sketch=0;html=1;verticalAlign=top;labelPosition=center;verticalLabelPosition=bottom;align=center;spacingTop=-6;fontSize=11;fontStyle=1;fontColor=#999999;shape=image;aspect=fixed;imageAspect=0;image=data:image/svg+xml,PHN2ZyB4bWxucz0iaHR0cDovL3d3dy53My5vcmcvMjAwMC9zdmciIHhtbG5zOnY9Imh0dHBzOi8vdmVjdGEuaW8vbmFubyIgd2lkdGg9IjIwIiBoZWlnaHQ9IjE5IiB2aWV3Qm94PSIwIDAgMjAgMTkiPiYjeGE7CTxzdHlsZSB0eXBlPSJ0ZXh0L2NzcyI+JiN4YTsJLnN0MHtmaWxsOiM0Mjg1ZjQ7fSYjeGE7CS5zdDF7ZmlsbDojNjY5ZGY2O30mI3hhOwkuc3Qye2ZpbGw6I2FlY2JmYTt9JiN4YTsJPC9zdHlsZT4mI3hhOwk8ZyBjbGFzcz0ic3QwIj4mI3hhOwkJPHBhdGggZD0iTTQgOWg0djJINHptLTIgN2g2djJIMnoiLz4mI3hhOwkJPHBhdGggZD0iTTQgNEgydjEyaDJ6Ii8+JiN4YTsJPC9nPiYjeGE7CTxwYXRoIGNsYXNzPSJzdDEiIGQ9Ik0yMCAxSDd2NGgxM3ptMCA3SDd2NGgxM3ptMCA3SDd2NGgxM3oiLz4mI3hhOwk8cGF0aCBjbGFzcz0ic3QyIiBkPSJNNiAwSDB2Nmg2eiIvPiYjeGE7PC9zdmc+;container=0;movable=1;resizable=1;rotatable=1;deletable=1;editable=1;locked=0;connectable=1;" vertex="1" parent="rqtoLYsZP0avv1NgUhm5-152">
          <mxGeometry x="684" y="2.473684210526244" width="38.90526315789474" height="37.05263157894737" as="geometry" />
        </mxCell>
        <mxCell id="rqtoLYsZP0avv1NgUhm5-159" value="Cloud&#xa;Armor" style="sketch=0;html=1;verticalAlign=top;labelPosition=center;verticalLabelPosition=bottom;align=center;spacingTop=-6;fontSize=11;fontStyle=1;fontColor=#999999;shape=image;aspect=fixed;imageAspect=0;image=data:image/svg+xml,PHN2ZyB4bWxucz0iaHR0cDovL3d3dy53My5vcmcvMjAwMC9zdmciIHhtbG5zOnY9Imh0dHBzOi8vdmVjdGEuaW8vbmFubyIgd2lkdGg9IjE2LjUwMDQzNDg3NTQ4ODI4IiBoZWlnaHQ9IjIwIiB2aWV3Qm94PSItMC4wMDAzNjMwODkyNjA2NDUyMTA3NCAxLjE5MjA5Mjg5NTUwNzgxMjVlLTcgMTYuNTAwNDM0ODc1NDg4MjggMjAiPiYjeGE7CTxzdHlsZSB0eXBlPSJ0ZXh0L2NzcyI+JiN4YTsJLnN0MHtmaWxsOiM2NjlkZjY7fSYjeGE7CS5zdDF7ZmlsbDojYWVjYmZhO30mI3hhOwk8L3N0eWxlPiYjeGE7CTxwYXRoIGNsYXNzPSJzdDEiIGQ9Ik0xMC40MiAxMi4wN2wxLjA0IDEuMDUtNS40NSA1LjQ4LTEuMDQtMS4wNXptLS44My00LjE5bDEuMDQgMS4wNS03LjM1IDcuMzktMS4wNC0xLjA1em0tNC4xNi0uODVsMS4wNCAxLjA1LTQuODggNC45LTEuMDQtMS4wNXoiLz4mI3hhOwk8ZyBjbGFzcz0ic3QwIj4mI3hhOwkJPHBhdGggZD0iTTguMjUgMS42MWw2Ljc4IDN2NC41NWE5LjcxIDkuNzEgMCAwIDEtNi43OCA5LjMyIDkuNyA5LjcgMCAwIDEtNi43OC05LjMxVjQuNjNsNi43OC0zbTAtMS42M0wwIDMuNjh2NS40OUExMS4xNyAxMS4xNyAwIDAgMCA4LjEgMjBoLjE1LjE1YTExLjE3IDExLjE3IDAgMCAwIDguMS0xMC43OFYzLjY4eiIvPiYjeGE7CQk8Y2lyY2xlIGN4PSIxMC45NCIgY3k9IjEyLjYyIiByPSIxLjQyIi8+JiN4YTsJCTxjaXJjbGUgY3g9IjEwLjEiIGN5PSI4LjQ1IiByPSIxLjQyIi8+JiN4YTsJCTxjaXJjbGUgY3g9IjUuOTQiIGN5PSI3LjYiIHI9IjEuNDIiLz4mI3hhOwk8L2c+JiN4YTs8L3N2Zz4=;container=0;movable=1;resizable=1;rotatable=1;deletable=1;editable=1;locked=0;connectable=1;" vertex="1" parent="rqtoLYsZP0avv1NgUhm5-152">
          <mxGeometry x="800.0015789473682" y="1.5473684210528518" width="33.34736842105263" height="38.90526315789474" as="geometry" />
        </mxCell>
        <mxCell id="rqtoLYsZP0avv1NgUhm5-160" value="Vertex AI&amp;nbsp;&lt;div&gt;Gemini / PaLM 2&lt;/div&gt;" style="text;html=1;strokeColor=none;fillColor=none;align=center;verticalAlign=middle;whiteSpace=wrap;rounded=0;fontStyle=1;fontSize=15;fontColor=#999999;" vertex="1" parent="1">
          <mxGeometry x="4977.67" y="6227" width="130" height="50" as="geometry" />
        </mxCell>
        <mxCell id="rqtoLYsZP0avv1NgUhm5-161" value="Vertex AI&amp;nbsp;&lt;div&gt;Gemini / PaLM 2&lt;/div&gt;" style="text;html=1;strokeColor=none;fillColor=none;align=center;verticalAlign=middle;whiteSpace=wrap;rounded=0;fontStyle=1;fontSize=15;fontColor=#999999;" vertex="1" parent="1">
          <mxGeometry x="4977.67" y="6121.65" width="130" height="50" as="geometry" />
        </mxCell>
        <mxCell id="rqtoLYsZP0avv1NgUhm5-162" style="edgeStyle=orthogonalEdgeStyle;rounded=0;orthogonalLoop=1;jettySize=auto;html=1;entryX=0.5;entryY=0;entryDx=0;entryDy=0;startArrow=classic;startFill=1;exitX=0.5;exitY=1;exitDx=0;exitDy=0;" edge="1" parent="1" source="rqtoLYsZP0avv1NgUhm5-172" target="rqtoLYsZP0avv1NgUhm5-168">
          <mxGeometry relative="1" as="geometry">
            <mxPoint x="5403.1612903225805" y="6547.63" as="sourcePoint" />
            <mxPoint x="5403.165" y="6586" as="targetPoint" />
          </mxGeometry>
        </mxCell>
        <mxCell id="rqtoLYsZP0avv1NgUhm5-163" style="edgeStyle=orthogonalEdgeStyle;rounded=0;orthogonalLoop=1;jettySize=auto;html=1;entryX=1;entryY=0.5;entryDx=0;entryDy=0;startArrow=classic;startFill=1;exitX=0.75;exitY=0;exitDx=0;exitDy=0;" edge="1" parent="1" source="rqtoLYsZP0avv1NgUhm5-172" target="rqtoLYsZP0avv1NgUhm5-124">
          <mxGeometry relative="1" as="geometry">
            <mxPoint x="5462.2474999999995" y="6451.97" as="sourcePoint" />
            <Array as="points">
              <mxPoint x="5458" y="6279" />
            </Array>
          </mxGeometry>
        </mxCell>
        <mxCell id="rqtoLYsZP0avv1NgUhm5-164" value="Redis Datastore" style="outlineConnect=0;dashed=0;verticalLabelPosition=bottom;verticalAlign=top;align=center;html=1;shape=mxgraph.aws3.redis;fillColor=#2E73B8;gradientColor=none;" vertex="1" parent="1">
          <mxGeometry x="5575" y="6464.3" width="60" height="63" as="geometry" />
        </mxCell>
        <mxCell id="rqtoLYsZP0avv1NgUhm5-165" style="edgeStyle=orthogonalEdgeStyle;rounded=0;orthogonalLoop=1;jettySize=auto;html=1;exitX=1;exitY=0.5;exitDx=0;exitDy=0;entryX=0;entryY=0.5;entryDx=0;entryDy=0;entryPerimeter=0;startArrow=classic;startFill=1;" edge="1" parent="1" source="rqtoLYsZP0avv1NgUhm5-172" target="rqtoLYsZP0avv1NgUhm5-164">
          <mxGeometry relative="1" as="geometry">
            <mxPoint x="5521.33" y="6499.8" as="sourcePoint" />
          </mxGeometry>
        </mxCell>
        <mxCell id="rqtoLYsZP0avv1NgUhm5-166" style="edgeStyle=orthogonalEdgeStyle;rounded=0;orthogonalLoop=1;jettySize=auto;html=1;entryX=0;entryY=0.5;entryDx=0;entryDy=0;" edge="1" parent="1">
          <mxGeometry relative="1" as="geometry">
            <mxPoint x="5285" y="6763.83" as="targetPoint" />
            <mxPoint x="5025" y="6496" as="sourcePoint" />
            <Array as="points">
              <mxPoint x="5025" y="6496" />
              <mxPoint x="5025" y="6764" />
            </Array>
          </mxGeometry>
        </mxCell>
        <mxCell id="rqtoLYsZP0avv1NgUhm5-167" style="edgeStyle=orthogonalEdgeStyle;rounded=0;orthogonalLoop=1;jettySize=auto;html=1;exitX=1;exitY=0.5;exitDx=0;exitDy=0;" edge="1" parent="1" source="rqtoLYsZP0avv1NgUhm5-170" target="rqtoLYsZP0avv1NgUhm5-124">
          <mxGeometry relative="1" as="geometry">
            <mxPoint x="5521.33" y="6763.83" as="sourcePoint" />
            <Array as="points">
              <mxPoint x="5515" y="6764" />
              <mxPoint x="5695" y="6764" />
              <mxPoint x="5695" y="6279" />
            </Array>
          </mxGeometry>
        </mxCell>
        <mxCell id="rqtoLYsZP0avv1NgUhm5-168" value="" style="shape=mxgraph.gcp2.doubleRect;strokeColor=#dddddd;shadow=1;strokeWidth=1;rounded=1;absoluteArcSize=1;arcSize=2;" vertex="1" parent="1">
          <mxGeometry x="5285" y="6586.24" width="230" height="89.76" as="geometry" />
        </mxCell>
        <mxCell id="rqtoLYsZP0avv1NgUhm5-169" value="&lt;span style=&quot;font-size: 15px; font-weight: 700; text-align: center; text-wrap: wrap;&quot;&gt;R10 Einstein&lt;/span&gt;&lt;br&gt;R10 Knowledge base" style="editableCssRules=.*;html=1;fontColor=#999999;shape=image;verticalLabelPosition=middle;verticalAlign=middle;labelPosition=right;align=left;spacingLeft=20;part=1;points=[];imageAspect=0;image=data:image/svg+xml,PHN2ZyB4bWxucz0iaHR0cDovL3d3dy53My5vcmcvMjAwMC9zdmciIHhtbG5zOnY9Imh0dHBzOi8vdmVjdGEuaW8vbmFubyIgd2lkdGg9IjM2NS40NjQ5OTY3NzA0MjQ5MyIgaGVpZ2h0PSIzNzkuMjIyOTk0NDYzNTc3OTUiIHZpZXdCb3g9IjAgMCA5Ni42OTU5OTkxNDU1MDc4MSAxMDAuMzM1OTk4NTM1MTU2MjUiPiYjeGE7PHN0eWxlIHR5cGU9InRleHQvY3NzIj4mI3hhOwkuc3Qwe2ZpbGw6IzQyODVmNDt9JiN4YTsJLnN0MXtmaWxsOiNhZWNiZmE7fSYjeGE7PC9zdHlsZT4mI3hhOwk8cGF0aCBjbGFzcz0ic3QwIiBkPSJNMjkuNzk0IDEwMC4zMzZMNDYuOTIgNTAuMTY4aDQ5Ljc3NnpNMCA5OS42NzFsMTIuOTc2LTQ5LjUwMkgyOS4yMkwxNi44OTcgOTIuMDU0eiIvPiYjeGE7CTxwYXRoIGNsYXNzPSJzdDEiIGQ9Ik0yOS43OTQgMEw0Ni45MiA1MC4xNjhoNDkuNzc2ek0wIC42NjZsMTIuOTc2IDQ5LjUwMkgyOS4yMkwxNi44OTcgOC4yODN6Ii8+JiN4YTs8L3N2Zz4=;" vertex="1" parent="rqtoLYsZP0avv1NgUhm5-168">
          <mxGeometry width="50" height="50" relative="1" as="geometry">
            <mxPoint x="15" y="15" as="offset" />
          </mxGeometry>
        </mxCell>
        <mxCell id="rqtoLYsZP0avv1NgUhm5-170" value="" style="shape=mxgraph.gcp2.doubleRect;strokeColor=#dddddd;shadow=1;strokeWidth=1;rounded=1;absoluteArcSize=1;arcSize=2;" vertex="1" parent="1">
          <mxGeometry x="5285" y="6722.89" width="230" height="93.11" as="geometry" />
        </mxCell>
        <mxCell id="rqtoLYsZP0avv1NgUhm5-171" value="&lt;span style=&quot;font-size: 15px; font-weight: 700; text-align: center; text-wrap: wrap;&quot;&gt;R10 WAM&lt;/span&gt;&lt;br&gt;R10 Web Action Model" style="editableCssRules=.*;html=1;fontColor=#999999;shape=image;verticalLabelPosition=middle;verticalAlign=middle;labelPosition=right;align=left;spacingLeft=20;part=1;points=[];imageAspect=0;image=data:image/svg+xml,PHN2ZyB4bWxucz0iaHR0cDovL3d3dy53My5vcmcvMjAwMC9zdmciIHhtbG5zOnY9Imh0dHBzOi8vdmVjdGEuaW8vbmFubyIgd2lkdGg9IjM2NS40NjQ5OTY3NzA0MjQ5MyIgaGVpZ2h0PSIzNzkuMjIyOTk0NDYzNTc3OTUiIHZpZXdCb3g9IjAgMCA5Ni42OTU5OTkxNDU1MDc4MSAxMDAuMzM1OTk4NTM1MTU2MjUiPiYjeGE7PHN0eWxlIHR5cGU9InRleHQvY3NzIj4mI3hhOwkuc3Qwe2ZpbGw6IzQyODVmNDt9JiN4YTsJLnN0MXtmaWxsOiNhZWNiZmE7fSYjeGE7PC9zdHlsZT4mI3hhOwk8cGF0aCBjbGFzcz0ic3QwIiBkPSJNMjkuNzk0IDEwMC4zMzZMNDYuOTIgNTAuMTY4aDQ5Ljc3NnpNMCA5OS42NzFsMTIuOTc2LTQ5LjUwMkgyOS4yMkwxNi44OTcgOTIuMDU0eiIvPiYjeGE7CTxwYXRoIGNsYXNzPSJzdDEiIGQ9Ik0yOS43OTQgMEw0Ni45MiA1MC4xNjhoNDkuNzc2ek0wIC42NjZsMTIuOTc2IDQ5LjUwMkgyOS4yMkwxNi44OTcgOC4yODN6Ii8+JiN4YTs8L3N2Zz4=;" vertex="1" parent="rqtoLYsZP0avv1NgUhm5-170">
          <mxGeometry width="50" height="50" relative="1" as="geometry">
            <mxPoint x="15" y="15" as="offset" />
          </mxGeometry>
        </mxCell>
        <mxCell id="rqtoLYsZP0avv1NgUhm5-172" value="" style="shape=mxgraph.gcp2.doubleRect;strokeColor=#dddddd;shadow=1;strokeWidth=1;rounded=1;absoluteArcSize=1;arcSize=2;" vertex="1" parent="1">
          <mxGeometry x="5285" y="6451" width="230" height="90" as="geometry" />
        </mxCell>
        <mxCell id="rqtoLYsZP0avv1NgUhm5-173" value="&lt;span style=&quot;font-size: 15px; font-weight: 700; text-align: center; text-wrap: wrap;&quot;&gt;R10 Genesis&lt;/span&gt;&lt;br&gt;R10 Core Engine" style="editableCssRules=.*;html=1;fontColor=#999999;shape=image;verticalLabelPosition=middle;verticalAlign=middle;labelPosition=right;align=left;spacingLeft=20;part=1;points=[];imageAspect=0;image=data:image/svg+xml,PHN2ZyB4bWxucz0iaHR0cDovL3d3dy53My5vcmcvMjAwMC9zdmciIHhtbG5zOnY9Imh0dHBzOi8vdmVjdGEuaW8vbmFubyIgd2lkdGg9IjIwIiBoZWlnaHQ9IjE5Ljk4OTk5OTc3MTExODE2NCIgdmlld0JveD0iMCAwIDIwIDE5Ljk4OTk5OTc3MTExODE2NCI+JiN4YTsJPHN0eWxlIHR5cGU9InRleHQvY3NzIj4mI3hhOwkuc3Qwe2ZpbGw6IzQyODVmNDt9JiN4YTsJLnN0MXtmaWxsOiM2NjlkZjY7fSYjeGE7CS5zdDJ7ZmlsbDojYWVjYmZhO30mI3hhOwk8L3N0eWxlPiYjeGE7CTxwYXRoIGNsYXNzPSJzdDEiIGQ9Ik0zIDMuOTlMMCA2LjQydjcuMTNsMyAyLjQ0eiIvPiYjeGE7CTxwYXRoIGNsYXNzPSJzdDAiIGQ9Ik0zIDMuOTlsLTMgNCAzLTJ6bS0zIDhsMyA0di0yeiIvPiYjeGE7CTxwYXRoIGNsYXNzPSJzdDIiIGQ9Ik0wIDE1Ljk5bDQgNCAyLTItNi02em0uMDEtOEw1Ljk5IDJsLTItMkwwIDMuOTl6Ii8+JiN4YTsJPHBhdGggY2xhc3M9InN0MSIgZD0iTTE3IDE2bDMtMi40MlY2LjQ0TDE3IDR6Ii8+JiN4YTsJPHBhdGggY2xhc3M9InN0MCIgZD0iTTE3IDE2bDMtNC0zIDJ6bTMtOGwtMy00djJ6Ii8+JiN4YTsJPGcgY2xhc3M9InN0MiI+JiN4YTsJCTxwYXRoIGQ9Ik0yMCA0bC00LTQtMiAyIDYgNnptLS4wMSA4bC01Ljk4IDUuOTkgMiAyTDIwIDE2eiIvPiYjeGE7CQk8Y2lyY2xlIGN4PSI2IiBjeT0iOS45OSIgcj0iMSIvPiYjeGE7CQk8Y2lyY2xlIGN4PSIxMCIgY3k9IjkuOTkiIHI9IjEiLz4mI3hhOwkJPGNpcmNsZSBjeD0iMTMuOTkiIGN5PSI5Ljk5IiByPSIxIi8+JiN4YTsJPC9nPiYjeGE7PC9zdmc+;" vertex="1" parent="rqtoLYsZP0avv1NgUhm5-172">
          <mxGeometry width="50" height="40" relative="1" as="geometry">
            <mxPoint x="15" y="18" as="offset" />
          </mxGeometry>
        </mxCell>
        <mxCell id="rqtoLYsZP0avv1NgUhm5-174" value="&lt;div&gt;&lt;span style=&quot;font-size: 12px;&quot;&gt;IP Whitelisted/ VPN Enabled /&lt;/span&gt;&lt;/div&gt;&lt;div&gt;&lt;span style=&quot;font-size: 12px;&quot;&gt;Secured and Authorised HTTPS Requests&amp;nbsp;&lt;/span&gt;&lt;/div&gt;" style="text;html=1;align=center;verticalAlign=middle;resizable=0;points=[];autosize=1;strokeColor=none;fillColor=none;" vertex="1" parent="1">
          <mxGeometry x="4465" y="6521" width="290" height="50" as="geometry" />
        </mxCell>
        <mxCell id="rqtoLYsZP0avv1NgUhm5-175" style="edgeStyle=orthogonalEdgeStyle;rounded=0;orthogonalLoop=1;jettySize=auto;html=1;exitX=0.75;exitY=0;exitDx=0;exitDy=0;exitPerimeter=0;entryX=0;entryY=0.5;entryDx=0;entryDy=0;jumpStyle=arc;startArrow=classic;startFill=1;" edge="1" parent="1" source="rqtoLYsZP0avv1NgUhm5-29" target="rqtoLYsZP0avv1NgUhm5-172">
          <mxGeometry relative="1" as="geometry">
            <Array as="points">
              <mxPoint x="3471" y="6455" />
              <mxPoint x="4284" y="6455" />
              <mxPoint x="4284" y="6496" />
            </Array>
          </mxGeometry>
        </mxCell>
        <mxCell id="rqtoLYsZP0avv1NgUhm5-176" style="edgeStyle=orthogonalEdgeStyle;rounded=0;orthogonalLoop=1;jettySize=auto;html=1;exitX=0.849;exitY=0.997;exitDx=0;exitDy=0;exitPerimeter=0;entryX=0.045;entryY=0.009;entryDx=0;entryDy=0;entryPerimeter=0;startArrow=classic;startFill=1;jumpStyle=arc;" edge="1" parent="1" source="rqtoLYsZP0avv1NgUhm5-56" target="rqtoLYsZP0avv1NgUhm5-103">
          <mxGeometry relative="1" as="geometry" />
        </mxCell>
        <mxCell id="rqtoLYsZP0avv1NgUhm5-177" style="edgeStyle=orthogonalEdgeStyle;rounded=0;orthogonalLoop=1;jettySize=auto;html=1;exitX=0.998;exitY=0.94;exitDx=0;exitDy=0;exitPerimeter=0;entryX=0.976;entryY=0.029;entryDx=0;entryDy=0;entryPerimeter=0;jumpStyle=arc;startArrow=classic;startFill=1;" edge="1" parent="1" source="rqtoLYsZP0avv1NgUhm5-20" target="rqtoLYsZP0avv1NgUhm5-103">
          <mxGeometry relative="1" as="geometry">
            <Array as="points">
              <mxPoint x="4154" y="6395" />
              <mxPoint x="4154" y="6420" />
            </Array>
          </mxGeometry>
        </mxCell>
      </root>
    </mxGraphModel>
  </diagram>
</mxfile>
